<svg width="225" height="168" viewBox="0 0 225 168" fill="none" xmlns="http://www.w3.org/2000/svg">
<path d="M47.0518 21.0077C59.6113 -5.77589 104.224 -2.00051 121.441 16.8358C138.658 35.6722 144.256 47.7417 159.786 40.7135C175.315 33.6854 195.12 35.5596 196.236 57.91C197.352 80.2604 179.194 106.675 150.3 114.491C121.405 122.308 121.428 149.974 83.2048 144.392C62.3653 141.347 61.8928 118.776 64.8358 100.106C67.7788 81.4363 32.4808 52.0667 47.0518 21.0077Z" fill="#407BFF"/>
<path opacity="0.9" d="M47.0518 21.0077C59.6113 -5.77589 104.224 -2.00051 121.441 16.8358C138.658 35.6722 144.256 47.7417 159.786 40.7135C175.315 33.6854 195.12 35.5596 196.236 57.91C197.352 80.2604 179.194 106.675 150.3 114.491C121.405 122.308 121.428 149.974 83.2048 144.392C62.3653 141.347 61.8928 118.776 64.8358 100.106C67.7788 81.4363 32.4808 52.0667 47.0518 21.0077Z" fill="white"/>
<path d="M112.5 167.847C160.687 167.847 199.751 165.563 199.751 162.747C199.751 159.93 160.687 157.647 112.5 157.647C64.3129 157.647 25.2495 159.93 25.2495 162.747C25.2495 165.563 64.3129 167.847 112.5 167.847Z" fill="#F5F5F5"/>
<path d="M179.55 163.697H100.098C99.6205 163.697 99.1626 163.507 98.8251 163.169C98.4875 162.831 98.2979 162.373 98.2979 161.895V107.359L136.363 78.5257C137.043 78.0087 137.871 77.7236 138.724 77.7123C139.578 77.7009 140.413 77.9639 141.106 78.4626L181.35 107.359V161.908C181.346 162.384 181.155 162.839 180.818 163.174C180.481 163.509 180.025 163.697 179.55 163.697Z" fill="#407BFF"/>
<path opacity="0.2" d="M179.55 163.697H100.098C99.6205 163.697 99.1626 163.507 98.8251 163.169C98.4875 162.831 98.2979 162.373 98.2979 161.895V107.359L136.363 78.5257C137.043 78.0087 137.871 77.7236 138.724 77.7123C139.578 77.7009 140.413 77.9639 141.106 78.4626L181.35 107.359V161.908C181.346 162.384 181.155 162.839 180.818 163.174C180.481 163.509 180.025 163.697 179.55 163.697Z" fill="black"/>
<path d="M165.483 138.017H109.233C109.924 137.567 110.492 136.95 110.885 136.224C111.278 135.498 111.484 134.685 111.483 133.859V49.3183C111.484 48.4313 111.738 47.563 112.217 46.8165C112.696 46.0699 113.378 45.4763 114.183 45.106H170.433C169.628 45.4763 168.946 46.0699 168.467 46.8165C167.988 47.563 167.734 48.4313 167.733 49.3183V133.859C167.734 134.685 167.528 135.498 167.135 136.224C166.742 136.95 166.174 137.567 165.483 138.017Z" fill="#407BFF"/>
<path opacity="0.7" d="M165.483 138.017H109.233C109.924 137.567 110.492 136.95 110.885 136.224C111.278 135.498 111.484 134.685 111.483 133.859V49.3183C111.484 48.4313 111.738 47.563 112.217 46.8165C112.696 46.0699 113.378 45.4763 114.183 45.106H170.433C169.628 45.4763 168.946 46.0699 168.467 46.8165C167.988 47.563 167.734 48.4313 167.733 49.3183V133.859C167.734 134.685 167.528 135.498 167.135 136.224C166.742 136.95 166.174 137.567 165.483 138.017Z" fill="white"/>
<path d="M163.836 70.403C163.039 70.0066 160.65 70.4391 160.024 70.5112C159.399 70.5833 159.102 70.5472 158.53 70.6148C157.959 70.6824 157.9 70.6148 157.801 70.403C157.702 70.1913 156.703 70.331 156.451 70.2363C156.199 70.1417 153.954 70.6193 151.551 70.6148C149.148 70.6103 150.759 70.6553 150.412 70.2363C150.066 69.8174 148.909 70.5472 148.657 70.5923C148.405 70.6373 147.811 70.6553 147.721 70.2228C147.631 69.7903 147.01 70.6734 146.403 70.5833C145.795 70.4931 147.109 69.5425 146.277 69.9705C145.444 70.3985 143.527 70.5833 143.527 70.5833L144.135 71.0338C141.84 71.0698 139.842 71.1059 139.441 71.1419C139.041 71.1779 138.793 71.1779 138.343 70.4526C137.893 69.7273 137.943 70.6373 136.246 71.0698C134.55 71.5023 134.149 71.3942 133.348 70.9977C132.547 70.6013 132.151 71.0338 131.548 71.1059C130.945 71.1779 130.626 71.1419 130.054 71.2095C129.483 71.2771 129.429 71.2095 129.325 70.9977C129.222 70.786 128.227 70.9257 127.975 70.831C127.723 70.7364 125.478 71.214 123.075 71.2095C120.672 71.205 122.283 71.25 121.936 70.831C121.59 70.4121 120.433 71.1419 120.186 71.187C119.938 71.232 119.335 71.25 119.25 70.8175C119.164 70.385 118.534 71.2681 117.931 71.1779C117.328 71.0878 118.638 70.1372 117.801 70.5652C116.964 70.9932 115.051 71.1779 115.051 71.1779" stroke="#263238" stroke-linecap="round" stroke-linejoin="round"/>
<path d="M129.901 53.5488C129.649 53.4542 127.404 53.9318 125.001 53.9273C122.598 53.9228 124.209 53.9678 123.867 53.5488C123.525 53.1298 122.359 53.8597 122.112 53.9047C121.864 53.9498 121.261 53.9678 121.176 53.5353C121.09 53.1028 120.465 53.9858 119.857 53.8957C119.25 53.8056 120.564 52.855 119.731 53.2875C118.899 53.72 116.977 53.8957 116.977 53.8957" stroke="#263238" stroke-linecap="round" stroke-linejoin="round"/>
<path d="M163.836 116.874C163.588 116.779 161.343 117.257 158.94 117.252C156.537 117.248 158.143 117.293 157.801 116.874C157.459 116.455 156.298 117.185 156.046 117.23C155.794 117.275 155.2 117.293 155.11 116.861C155.02 116.428 154.399 117.311 153.792 117.221C153.184 117.131 154.498 116.18 153.666 116.608C152.833 117.036 150.912 117.221 150.912 117.221" stroke="#263238" stroke-linecap="round" stroke-linejoin="round"/>
<path d="M115.002 75.5569C115.162 75.4889 115.334 75.4538 115.508 75.4538C115.682 75.4538 115.854 75.4889 116.014 75.5569L116.419 75.2686C116.653 75.5524 117.099 75.4758 117.423 75.3136C117.717 75.0983 118.067 74.9731 118.431 74.9532C118.408 75.1064 118.381 75.264 118.359 75.4037C118.838 75.3404 119.306 75.21 119.749 75.0163C119.716 75.0815 119.71 75.1573 119.731 75.2272C119.753 75.2972 119.802 75.3557 119.866 75.3902C119.997 75.4522 120.142 75.4741 120.285 75.4533L124.443 75.3046L125.176 75.2776C125.217 75.292 125.251 75.3214 125.271 75.3598C125.291 75.3983 125.296 75.443 125.284 75.4848C125.819 75.3917 126.308 75.124 126.675 74.7234C126.653 74.8773 126.689 75.0338 126.777 75.1622C126.864 75.2907 126.996 75.3816 127.147 75.4172C127.457 75.4766 127.778 75.4188 128.047 75.255C128.166 75.182 128.297 75.1316 128.434 75.1064C128.504 75.0982 128.574 75.115 128.633 75.1538C128.691 75.1925 128.734 75.2507 128.754 75.3181C129.01 75.201 129.285 75.4037 129.559 75.4758C129.73 75.5112 129.904 75.5219 130.077 75.5073L135.693 75.2776L137.065 75.5434C137.065 75.5434 138.987 75.3632 139.819 74.9352C140.652 74.5072 139.342 75.4352 139.945 75.5434C140.548 75.6515 141.178 74.7504 141.264 75.1829C141.349 75.6155 141.952 75.5974 142.2 75.5524C142.447 75.5073 143.613 74.782 143.955 75.201C144.297 75.62 142.69 75.5704 145.093 75.5749C147.496 75.5794 149.742 75.1244 149.989 75.201C150.237 75.2776 151.24 75.1514 151.339 75.3632C151.438 75.5749 151.492 75.6425 152.068 75.5749C152.644 75.5073 152.937 75.5434 153.562 75.4713C154.188 75.3992 154.584 74.9712 155.385 75.3632C156.186 75.7551 156.582 75.8677 158.283 75.4352C159.984 75.0027 159.93 74.0837 160.38 74.8225C160.83 75.5614 163.458 75.5434 163.854 75.5073" stroke="#263238" stroke-linecap="round" stroke-linejoin="round"/>
<path d="M163.764 66.7177C163.593 66.7177 163.935 66.7177 163.764 66.6862C163.494 66.6141 164.021 66.4114 163.764 66.5285C163.742 66.3889 161.226 66.3078 161.087 66.3213C160.949 66.3436 160.818 66.3926 160.7 66.4654C160.43 66.6292 160.109 66.687 159.8 66.6276C159.653 66.5874 159.526 66.4945 159.443 66.3665C159.36 66.2386 159.326 66.0846 159.35 65.9338C158.982 66.3342 158.494 66.6032 157.959 66.6997C157.971 66.6573 157.966 66.612 157.946 66.5728C157.926 66.5336 157.892 66.5033 157.851 66.488L157.118 66.515L152.96 66.6682C152.816 66.6851 152.672 66.6617 152.541 66.6006C152.476 66.5661 152.428 66.5076 152.406 66.4376C152.384 66.3677 152.391 66.2919 152.424 66.2267C151.981 66.4204 151.513 66.5509 151.034 66.6141C151.061 66.4564 151.083 66.2988 151.106 66.1636C150.742 66.1857 150.393 66.3107 150.098 66.524C149.774 66.6862 149.328 66.7628 149.094 66.479L148.689 66.7718C148.529 66.7028 148.357 66.6671 148.183 66.6671C148.009 66.6671 147.836 66.7028 147.677 66.7718L143.627 66.3753C143.627 66.3753 141.755 66.4159 141.458 66.2492C141.161 66.0825 140.108 66.6682 140.108 66.6682H138.758L137.034 66.7313V66.4024C136.368 66.5425 135.693 66.6314 135.014 66.6682C134.042 66.7042 133.817 66.8439 133.772 66.4024C133.727 65.9609 132.467 66.524 131.468 66.7313C130.469 66.9385 130.671 66.8979 130.37 66.4024C130.068 65.9068 129.695 66.47 129.173 66.6727C128.901 66.793 128.608 66.8551 128.311 66.8551C128.014 66.8551 127.72 66.793 127.449 66.6727C126.999 66.3979 125.051 66.8439 124.259 66.8529C123.467 66.8619 124.227 66.6321 124.061 66.2492C123.894 65.8663 123.327 66.8979 122.792 66.8529C122.256 66.8078 123.242 65.8212 122.49 65.8978C121.778 66.063 121.099 66.3446 120.479 66.7313" stroke="#263238" stroke-linecap="round" stroke-linejoin="round"/>
<path d="M160.393 79.5619C160.096 79.5619 159.691 79.3321 159.714 78.6833C159.511 78.4851 159.291 78.841 159.097 79.0888C158.904 79.3366 158.58 79.3636 158.526 78.8861C158.465 78.9524 158.39 79.0041 158.306 79.0371C158.222 79.0701 158.132 79.0837 158.042 79.0767C157.953 79.0698 157.866 79.0425 157.788 78.997C157.71 78.9515 157.644 78.8889 157.594 78.814C157.544 78.9977 157.427 79.1561 157.267 79.2579C157.106 79.3596 156.913 79.3973 156.726 79.3636L148.779 79.0302C148.58 79.0407 148.384 78.9853 148.221 78.8726C148.104 78.7825 148 78.6383 147.879 78.5887C147.555 78.4446 147.262 79.0032 146.979 79.3366C146.695 79.67 146.205 79.6024 146.155 78.8861C145.818 79.5393 145.309 79.7286 144.891 79.3366C144.702 79.4943 144.499 79.652 144.301 79.5799C144.168 79.4747 144.065 79.3355 144.004 79.1769C143.943 79.0184 143.926 78.8463 143.955 78.6788C143.921 78.9388 143.82 79.1856 143.662 79.3948C143.504 79.6041 143.295 79.7688 143.055 79.8727C142.677 79.928 142.292 79.855 141.961 79.6655L138.771 79.7916C137.714 79.8776 136.65 79.7909 135.621 79.5348C135.648 79.7556 135.31 79.8412 135.063 79.8457L132.966 79.8817C132.813 79.8928 132.66 79.8728 132.516 79.8232C132.446 79.8004 132.387 79.7533 132.349 79.6905C132.311 79.6276 132.296 79.5532 132.309 79.4808C131.877 79.5932 131.426 79.6025 130.99 79.5078C130.743 79.3771 130.473 79.6249 130.216 79.7376C129.981 79.8217 129.731 79.854 129.483 79.8322L125.86 79.7736C125.536 79.7736 125.154 79.7376 124.983 79.4898C124.45 79.6904 123.963 79.9969 123.552 80.3908C123.624 80.133 123.624 79.8603 123.552 79.6024C123.174 79.7392 122.822 79.9404 122.512 80.1971C122.472 79.706 122.427 79.215 122.382 78.7284C121.662 78.8095 121.162 79.4943 120.438 79.5664C120.031 79.5304 119.622 79.5214 119.214 79.5393C118.894 79.6114 118.507 79.8367 118.282 79.6159C118.219 79.5574 118.188 79.4672 118.107 79.4267C118.053 79.4098 117.997 79.4038 117.941 79.4092C117.886 79.4147 117.832 79.4313 117.783 79.4582C116.854 79.7981 115.844 79.8437 114.889 79.5889" stroke="#263238" stroke-linecap="round" stroke-linejoin="round"/>
<path d="M114.525 88.7975C114.525 88.7975 116.059 88.6173 116.725 88.1848C117.391 87.7523 116.343 88.6894 116.829 88.7975C117.315 88.9056 117.814 88 117.886 88.4325C117.958 88.865 118.435 88.8515 118.633 88.8065C118.831 88.7614 119.763 88.0316 120.037 88.4506C120.312 88.8696 119.025 88.8245 120.937 88.829C122.85 88.8335 124.659 88.3785 124.857 88.4506C125.055 88.5227 125.856 88.401 125.937 88.6173C126.018 88.8335 126.058 88.8921 126.517 88.829C126.976 88.7659 127.215 88.7975 127.714 88.7254C128.214 88.6533 128.533 88.2208 129.177 88.6173C129.82 89.0137 130.135 89.1173 131.494 88.6893C132.853 88.2614 132.813 87.3378 133.173 88.0721C133.533 88.8065 133.731 88.7975 134.05 88.7614C134.37 88.7254 135.972 88.6893 137.808 88.6533L141.129 88.5407C142.082 88.7971 143.091 88.7531 144.018 88.4145C144.067 88.3876 144.121 88.371 144.177 88.3655C144.232 88.3601 144.289 88.3661 144.342 88.383C144.423 88.4235 144.459 88.5091 144.522 88.5722C144.742 88.7885 145.129 88.5722 145.453 88.4911C145.862 88.477 146.27 88.4876 146.677 88.5227C147.397 88.4506 147.897 87.7658 148.621 87.6802C148.662 88.1712 148.707 88.6623 148.752 89.1489C149.06 88.8937 149.41 88.694 149.787 88.5587C149.861 88.8163 149.861 89.0896 149.787 89.3471C150.196 88.9508 150.684 88.644 151.218 88.4461C151.389 88.6939 151.767 88.7254 152.091 88.7299L155.718 88.7885C155.966 88.8097 156.216 88.7775 156.451 88.6939C156.708 88.5812 156.978 88.3334 157.225 88.4596C157.66 88.558 158.113 88.5503 158.544 88.4371C158.532 88.5095 158.546 88.5839 158.584 88.6468C158.622 88.7096 158.681 88.7567 158.751 88.7795C158.896 88.8276 159.049 88.846 159.201 88.8335L161.298 88.7975C161.545 88.7975 161.878 88.7119 161.856 88.4911C162.877 88.7434 162.756 88.8335 163.791 88.7479" stroke="#263238" stroke-linecap="round" stroke-linejoin="round"/>
<path d="M163.836 83.9095C162.486 84.3375 163.048 84.2294 162.409 83.8374C161.77 83.4455 161.451 83.8735 160.951 83.9456C160.452 84.0176 160.209 83.9816 159.75 84.0492C159.291 84.1168 159.25 84.0492 159.169 83.8374C159.088 83.6257 158.292 83.7653 158.089 83.6707C157.887 83.5761 156.091 84.0537 154.17 84.0492C152.248 84.0447 153.535 84.0897 153.27 83.6707C153.004 83.2518 152.068 83.9816 151.866 84.0266C151.663 84.0717 151.186 84.0897 151.119 83.6527C151.051 83.2157 150.547 84.1032 150.061 84.0176C149.575 83.932 150.628 82.9769 149.962 83.4049C149.296 83.8329 147.757 84.0176 147.757 84.0176L143.955 83.9005L141.097 83.932C140.8 83.932 140.4 83.7023 140.422 83.031C140.215 82.8328 139.999 83.1887 139.801 83.4365C139.603 83.6843 139.284 83.7113 139.234 83.2337C139.173 83.3001 139.097 83.3518 139.013 83.3848C138.929 83.4178 138.839 83.4314 138.749 83.4245C138.659 83.4175 138.571 83.3903 138.493 83.3448C138.415 83.2993 138.349 83.2366 138.298 83.1616C138.248 83.3445 138.132 83.5021 137.972 83.6038C137.813 83.7054 137.621 83.7438 137.434 83.7113L129.487 83.3779C129.287 83.3894 129.089 83.3339 128.925 83.2202C128.823 83.1129 128.71 83.0177 128.587 82.9364C128.259 82.7922 127.966 83.3509 127.687 83.6843C127.408 84.0176 126.909 83.9546 126.864 83.2337C126.522 83.887 126.013 84.0762 125.595 83.6843C125.406 83.8419 125.208 84.0041 125.01 83.9275C124.876 83.8222 124.774 83.6832 124.712 83.5248C124.65 83.3664 124.632 83.1944 124.659 83.0265C124.624 83.2862 124.523 83.5325 124.365 83.7417C124.207 83.9508 123.999 84.1157 123.759 84.2204C123.38 84.2753 122.994 84.2024 122.661 84.0131" stroke="#263238" stroke-linecap="round" stroke-linejoin="round"/>
<path d="M163.836 54.3508L155.889 54.0129C155.69 54.0259 155.493 53.9703 155.331 53.8553C155.228 53.7481 155.113 53.6528 154.989 53.5714C154.665 53.4318 154.372 53.9859 154.089 54.3238C153.805 54.6617 153.31 54.5896 153.265 53.8733C152.923 54.5265 152.415 54.7158 151.996 54.3238C151.807 54.4815 151.609 54.6437 151.407 54.5716C151.274 54.4655 151.173 54.3262 151.112 54.1679C151.051 54.0096 151.033 53.838 151.06 53.6706C151.025 53.9303 150.924 54.1766 150.767 54.3857C150.609 54.5949 150.4 54.7598 150.16 54.8644C149.781 54.9156 149.396 54.843 149.062 54.6572" stroke="#263238" stroke-linecap="round" stroke-linejoin="round"/>
<path d="M163.836 120.686L155.889 120.352C155.69 120.363 155.494 120.307 155.331 120.195C155.228 120.086 155.113 119.989 154.989 119.906C154.665 119.767 154.372 120.325 154.089 120.659C153.805 120.992 153.31 120.924 153.265 120.208C152.923 120.861 152.415 121.051 151.996 120.659C151.807 120.816 151.609 120.974 151.407 120.902C151.274 120.796 151.173 120.656 151.112 120.498C151.051 120.34 151.033 120.168 151.06 120.001C151.025 120.261 150.924 120.507 150.767 120.716C150.609 120.925 150.4 121.09 150.16 121.195C149.781 121.25 149.395 121.177 149.062 120.988" stroke="#263238" stroke-linecap="round" stroke-linejoin="round"/>
<path d="M114.525 97.2312C115.717 97.4861 116.954 97.4412 118.125 97.1006C118.253 97.0459 118.395 97.0348 118.53 97.069C118.629 97.1096 118.669 97.1952 118.75 97.2583C119.029 97.4745 119.506 97.2583 119.907 97.1772C120.397 97.0871 120.919 97.2492 121.423 97.2087C122.323 97.1366 122.94 96.4518 123.84 96.3662L124.002 97.8349C124.4 97.5758 124.833 97.3769 125.289 97.2447C125.381 97.4994 125.381 97.7784 125.289 98.0332C125.821 97.6257 126.424 97.3203 127.066 97.1321C127.38 97.3614 127.77 97.4628 128.155 97.4159L132.655 97.4745C132.959 97.4953 133.263 97.4633 133.555 97.3799C133.875 97.2673 134.208 97.0195 134.518 97.1501C135.061 97.2448 135.617 97.2356 136.156 97.1231C136.098 97.2582 136.233 97.4024 136.408 97.4655C136.596 97.5148 136.791 97.5346 136.984 97.5241L139.59 97.4835C139.896 97.4835 140.314 97.3979 140.283 97.1772C141.571 97.4321 142.887 97.5184 144.198 97.4339L147.411 97.6051C147.879 97.4656 148.378 97.4656 148.846 97.6051L149.418 97.3123C149.751 97.5961 150.385 97.5241 150.844 97.3574C151.291 97.1396 151.779 97.0169 152.275 96.9969C152.244 97.1546 152.208 97.3078 152.176 97.4475C152.845 97.3858 153.505 97.256 154.147 97.06C154.026 97.1817 154.147 97.3619 154.309 97.4339C154.503 97.4954 154.706 97.5183 154.908 97.5015L160.803 97.3483L161.847 97.3213C161.964 97.3438 162.04 97.4475 162 97.5331C162.666 97.4543 163.298 97.1906 163.822 96.7717C163.714 97.0735 163.404 97.3844 163.822 97.461" stroke="#263238" stroke-linecap="round" stroke-linejoin="round"/>
<path d="M163.746 92.731C163.435 92.6048 164.065 92.8481 163.746 92.9652C163.426 93.0824 164.052 93.0598 163.746 93.0598L158.724 92.9968C158.339 93.0427 157.951 92.9431 157.635 92.7174C156.993 92.9073 156.39 93.2126 155.857 93.6185C155.95 93.3653 155.95 93.0877 155.857 92.8346C155.4 92.9629 154.966 93.162 154.57 93.4248L154.408 91.9561C153.508 92.0417 152.892 92.7265 151.992 92.7985C151.488 92.8391 150.966 92.6724 150.475 92.767C150.075 92.8436 149.575 93.0643 149.319 92.8436C149.238 92.785 149.197 92.6949 149.098 92.6544C148.963 92.6224 148.822 92.6334 148.693 92.6859C147.523 93.0311 146.285 93.076 145.093 92.8166L143.775 92.9337L135.805 93.1635C135.559 93.1779 135.312 93.1673 135.067 93.1319C134.68 93.0598 134.289 92.8571 133.924 92.9742C133.888 92.8346 133.668 92.7535 133.474 92.7625C133.287 92.7844 133.103 92.8345 132.93 92.9112C132.532 93.0725 132.1 93.1283 131.674 93.0734C131.251 92.9968 130.896 92.6814 131.004 92.3795C130.426 92.8035 129.746 93.0662 129.033 93.1409C129.069 93.0598 128.997 92.9562 128.875 92.9292L127.836 92.9607L121.941 93.1094C121.739 93.1281 121.536 93.1067 121.342 93.0463C121.167 92.9697 121.059 92.7895 121.176 92.6724C120.534 92.8692 119.874 92.9991 119.205 93.0598C119.241 92.9022 119.272 92.7445 119.308 92.5868C118.811 92.6055 118.323 92.7299 117.877 92.9517C117.427 93.1139 116.779 93.1905 116.451 92.9067L115.875 93.195C115.406 93.0575 114.908 93.0575 114.439 93.195" stroke="#263238" stroke-linecap="round" stroke-linejoin="round"/>
<path d="M114.43 101.858C114.802 101.952 115.186 101.985 115.569 101.957C115.763 101.942 115.951 101.881 116.117 101.778C116.283 101.676 116.422 101.535 116.523 101.367C116.521 101.473 116.555 101.576 116.621 101.658C116.687 101.74 116.78 101.797 116.883 101.818C117.094 101.833 117.305 101.791 117.495 101.696C117.714 101.786 117.954 101.811 118.188 101.77C118.421 101.728 118.638 101.622 118.813 101.462C118.863 101.822 119.362 101.858 119.668 101.692C119.974 101.525 120.28 101.241 120.618 101.318C120.739 101.356 120.858 101.402 120.973 101.457C121.161 101.518 121.357 101.545 121.554 101.538L129.82 101.705C129.981 101.732 130.146 101.721 130.302 101.673C130.458 101.625 130.601 101.542 130.72 101.43C130.869 101.51 131.033 101.555 131.202 101.562C131.371 101.568 131.538 101.535 131.692 101.466C131.746 101.705 132.084 101.687 132.286 101.566C132.489 101.444 132.714 101.268 132.925 101.367C132.903 101.687 133.321 101.818 133.632 101.818H136.602L137.655 101.764C138.123 101.624 138.622 101.624 139.09 101.764L139.666 101.471C139.999 101.755 140.634 101.678 141.093 101.516C141.539 101.295 142.027 101.173 142.524 101.156C142.488 101.313 142.456 101.466 142.42 101.606C143.09 101.545 143.752 101.415 144.396 101.219C144.274 101.34 144.396 101.52 144.558 101.593C144.751 101.654 144.954 101.677 145.156 101.66L151.051 101.507L152.091 101.48C152.212 101.502 152.284 101.606 152.248 101.692C152.961 101.613 153.64 101.349 154.219 100.926C154.111 101.232 154.471 101.543 154.89 101.62C155.315 101.677 155.748 101.621 156.145 101.457C156.32 101.382 156.505 101.333 156.694 101.313C156.888 101.313 157.108 101.381 157.144 101.52C157.532 101.483 157.924 101.537 158.287 101.678C158.531 101.716 158.779 101.726 159.025 101.71" stroke="#263238" stroke-linecap="round" stroke-linejoin="round"/>
<path d="M181.35 107.359V161.913C181.346 162.355 181.18 162.779 180.884 163.107C180.588 163.434 180.182 163.641 179.743 163.688H179.563H100.098H99.9134C99.4766 163.639 99.0729 163.431 98.7786 163.104C98.4843 162.777 98.3197 162.353 98.3159 161.913V107.359L133.69 131.805L135.625 133.156L138.73 135.305L142.011 133.156L144.054 131.805L181.35 107.359Z" fill="#407BFF"/>
<path opacity="0.2" d="M181.35 161.201V161.738C181.366 162.202 181.211 162.657 180.915 163.015C180.619 163.374 180.202 163.611 179.744 163.684H179.564H100.098H99.9136C99.4563 163.61 99.0419 163.371 98.7478 163.013C98.4537 162.654 98.3002 162.201 98.3161 161.738V161.197L133.691 131.8L135.626 133.152L138.731 135.301L142.011 133.152L144.054 131.8L181.35 161.201Z" fill="black"/>
<path d="M181.35 161.422V161.913C181.35 162.391 181.16 162.849 180.823 163.187C180.485 163.525 180.027 163.715 179.55 163.715H100.098C99.6205 163.715 99.1626 163.525 98.8251 163.187C98.4875 162.849 98.2979 162.391 98.2979 161.913V161.422L135.607 133.143L136.363 132.57C137.044 132.054 137.871 131.77 138.724 131.758C139.578 131.747 140.413 132.009 141.106 132.507L142.006 133.143L181.35 161.422Z" fill="#407BFF"/>
<path d="M47.4254 163.698H50.8184L50.8184 91.0194H47.4254L47.4254 163.698Z" fill="#263238"/>
<path d="M44.667 79.4097H55.017C56.2881 79.4097 57.507 79.9152 58.4058 80.815C59.3046 81.7148 59.8095 82.9352 59.8095 84.2077V92.0153H39.8745V84.2077C39.8745 82.9352 40.3794 81.7148 41.2782 80.815C42.177 79.9152 43.396 79.4097 44.667 79.4097Z" fill="#407BFF"/>
<path opacity="0.4" d="M55.1339 79.4097H55.4714C56.6171 79.4097 57.7159 79.8653 58.5261 80.6764C59.3362 81.4875 59.7914 82.5876 59.7914 83.7347V92.0153H50.8184V83.7302C50.8196 82.5847 51.2746 81.4864 52.0837 80.6764C52.8927 79.8664 53.9897 79.4109 55.1339 79.4097Z" fill="black"/>
<path d="M50.8184 91.7896H59.7914L62.7389 96.8219C63.6389 98.3627 62.3654 99.6106 59.8859 99.6106C57.4109 99.6106 54.6704 98.3627 53.7659 96.8219L50.8184 91.7896Z" fill="#407BFF"/>
<path opacity="0.2" d="M50.8184 91.7896H59.7914L62.7389 96.8219C63.6389 98.3627 62.3654 99.6106 59.8859 99.6106C57.4109 99.6106 54.6704 98.3627 53.7659 96.8219L50.8184 91.7896Z" fill="black"/>
<path opacity="0.4" d="M50.8184 84.5093H52.3304L53.9144 91.3392H50.8184V84.5093Z" fill="white"/>
<path opacity="0.4" d="M52.8745 85.8877H53.914L56.569 91.339H55.7365L52.8745 85.8877Z" fill="white"/>
<path opacity="0.4" d="M54.9268 87.2754H55.5973L59.1523 91.3391H58.6258L54.9268 87.2754Z" fill="white"/>
<path d="M47.6997 85.7751V76.8638H46.5972V77.7963H47.2002V85.7751C47.0146 85.8952 46.8648 86.0633 46.7666 86.2615C46.6684 86.4597 46.6254 86.6808 46.6422 86.9014C46.6422 87.5592 47.0067 88.0908 47.4477 88.0908C47.8887 88.0908 48.2532 87.5592 48.2532 86.9014C48.2695 86.6813 48.2267 86.4609 48.1294 86.2629C48.0321 86.0649 47.8838 85.8965 47.6997 85.7751Z" fill="#407BFF"/>
<path opacity="0.7" d="M47.6997 85.7751V76.8638H46.5972V77.7963H47.2002V85.7751C47.0146 85.8952 46.8648 86.0633 46.7666 86.2615C46.6684 86.4597 46.6254 86.6808 46.6422 86.9014C46.6422 87.5592 47.0067 88.0908 47.4477 88.0908C47.8887 88.0908 48.2532 87.5592 48.2532 86.9014C48.2695 86.6813 48.2267 86.4609 48.1294 86.2629C48.0321 86.0649 47.8838 85.8965 47.6997 85.7751Z" fill="white"/>
<path opacity="0.2" d="M50.8183 100.3L47.4253 98.1919V163.698H50.8183V100.3Z" fill="white"/>
<path d="M38.9563 163.698H61.6093C61.6093 163.698 62.4553 162.567 57.0418 162.454C57.0418 162.454 61.9423 158.143 61.1998 156.904C60.4573 155.665 56.5693 160.197 56.5693 160.197C56.5693 160.197 58.9588 155.295 58.1218 153.89C57.2848 152.484 54.7198 158.584 54.7198 158.584C54.7198 158.584 53.9548 155.043 52.8748 154.696C51.7948 154.349 49.1218 158.715 49.1218 158.715C49.1218 158.715 45.6253 149.515 43.7893 150.182C41.9533 150.849 44.9548 157.183 44.9548 157.183C44.9548 157.183 41.8048 154.336 39.8743 155.345C37.9438 156.354 41.1253 160.481 41.1253 160.481C41.1253 160.481 38.7898 161.215 38.9563 163.698Z" fill="#407BFF"/>
<path opacity="0.4" d="M38.9563 163.698H61.6093C61.6093 163.698 62.4553 162.567 57.0418 162.454C57.0418 162.454 61.9423 158.143 61.1998 156.904C60.4573 155.665 56.5693 160.197 56.5693 160.197C56.5693 160.197 58.9588 155.295 58.1218 153.89C57.2848 152.484 54.7198 158.584 54.7198 158.584C54.7198 158.584 53.9548 155.043 52.8748 154.696C51.7948 154.349 49.1218 158.715 49.1218 158.715C49.1218 158.715 45.6253 149.515 43.7893 150.182C41.9533 150.849 44.9548 157.183 44.9548 157.183C44.9548 157.183 41.8048 154.336 39.8743 155.345C37.9438 156.354 41.1253 160.481 41.1253 160.481C41.1253 160.481 38.7898 161.215 38.9563 163.698Z" fill="white"/>
<path d="M85.9502 49.6789C86.369 49.2114 86.9018 48.8606 87.4965 48.6608C88.0912 48.461 88.7274 48.4191 89.3432 48.539C91.5932 48.895 96.0932 52.8235 95.6747 57.0674C95.2562 61.3114 93.9512 65.1768 92.6192 65.348C92.6192 65.348 91.4357 63.8388 85.2167 64.028C78.9977 64.2172 80.1272 60.2797 81.1397 57.1395C82.1522 53.9994 81.8552 48.2057 85.9502 49.6789Z" fill="#263238"/>
<path d="M94.2573 67.1641C95.4948 68.3219 99.5132 75.1383 99.9857 75.4357C100.458 75.733 100.661 72.6289 100.661 72.6289L102.852 72.2415C102.852 72.2415 104.036 79.7607 100.859 79.0759C97.2947 78.301 92.6147 71.7954 92.6147 71.7954C92.6147 71.7954 92.9522 69.687 93.1232 68.9166C93.2942 68.1462 94.2573 67.1641 94.2573 67.1641Z" fill="#407BFF"/>
<path opacity="0.4" d="M100.859 79.0759C98.1047 78.4767 94.6892 74.4625 93.2762 72.6649C92.8577 72.1333 92.6147 71.7954 92.6147 71.7954C92.6147 71.7954 92.7947 70.6826 92.9522 69.7816C93.0152 69.4392 93.0782 69.1283 93.1232 68.9166C93.2987 68.1417 94.2573 67.1641 94.2573 67.1641C95.4948 68.3219 99.5132 75.1383 99.9857 75.4357C100.458 75.733 100.661 72.6289 100.661 72.6289L102.852 72.2415C102.852 72.2415 104.036 79.7427 100.859 79.0759Z" fill="white"/>
<path opacity="0.2" d="M93.2762 72.6646C92.8577 72.133 92.6147 71.7951 92.6147 71.7951C92.6147 71.7951 92.7947 70.6823 92.9522 69.7812C93.3116 70.6971 93.4234 71.6917 93.2762 72.6646Z" fill="black"/>
<path d="M92.3041 72.7231C91.7281 74.4531 91.2781 75.9488 90.9136 77.2914C89.9346 80.6537 89.3027 84.1078 89.0281 87.5993L75.1726 86.1081C74.8081 76.1966 75.1726 70.7318 75.4741 68.0106C75.8116 65.1137 76.2616 65.0146 76.2616 65.0146C76.2616 65.0146 79.4116 64.7713 82.1476 64.8479C84.2638 64.9593 86.3692 65.2228 88.4476 65.6363C90.4187 66.0031 92.3604 66.5136 94.2571 67.1636C93.9196 68.0647 93.6136 68.9297 93.3301 69.7361C92.9521 70.8083 92.6101 71.7995 92.3041 72.7231Z" fill="#407BFF"/>
<path opacity="0.4" d="M94.2568 67.1636C93.9193 68.0647 93.6133 68.9297 93.3298 69.7361C92.9518 70.8084 92.6098 71.7995 92.3038 72.7231C91.7278 74.4531 91.2778 75.9488 90.9133 77.2914C89.9342 80.6537 89.3024 84.1078 89.0278 87.5993L75.1723 86.1081C75.1273 84.8872 75.0958 83.7384 75.0688 82.6481C75.0148 80.1972 75.0058 78.0753 75.0328 76.2417C75.0328 75.9173 75.0328 75.6019 75.0328 75.2956C75.0958 72.2681 75.2443 70.1055 75.3928 68.6098C75.4198 68.3935 75.4378 68.1953 75.4603 68.0106C75.7978 65.1137 76.2478 65.0146 76.2478 65.0146C76.2478 65.0146 79.3978 64.7713 82.1338 64.8434C84.2499 64.9585 86.3551 65.2235 88.4338 65.6364C90.4094 66.0025 92.3556 66.513 94.2568 67.1636Z" fill="white"/>
<path opacity="0.2" d="M76.7564 69.1054C76.7564 69.1054 76.4279 72.7637 75.0464 75.2956C75.1094 72.2681 75.2579 70.1056 75.4064 68.6099C75.8744 68.721 76.3276 68.8873 76.7564 69.1054Z" fill="black"/>
<path opacity="0.2" d="M88.3303 82.0717L84.2263 81.5762C84.2263 81.5762 83.6098 82.8016 82.6333 82.9277C81.6568 83.0539 79.3798 81.3058 79.3798 81.3058C78.0431 82.0299 76.5793 82.4888 75.0688 82.6574C75.0148 80.2066 75.0058 78.0846 75.0328 76.251C76.2883 76.3411 79.5328 76.7871 84.1183 78.8595C84.6808 79.1028 88.3303 82.0717 88.3303 82.0717Z" fill="black"/>
<path d="M101.421 159.737L98.5815 160.237L97.416 156.363L96.354 152.808L99.6255 151.659L100.58 155.935L101.421 159.737Z" fill="#E4897B"/>
<path opacity="0.2" d="M100.593 156.025L97.4298 156.44L96.3633 152.844L99.6303 151.682L100.593 156.025Z" fill="black"/>
<path d="M82.4715 161.044H79.587L79.1145 156.98L78.687 153.272L82.107 152.7L82.3005 157.115L82.4715 161.044Z" fill="#E4897B"/>
<path opacity="0.2" d="M82.3005 157.156L79.1145 157.011L78.687 153.286L82.107 152.709L82.3005 157.156Z" fill="black"/>
<path d="M100.859 153.768L96.1922 154.592C91.4852 142.847 88.1372 133.043 85.7702 124.907C84.4967 120.519 83.4347 116.613 82.6697 113.148L82.8137 125.934V154.736H78.2147C66.6902 99.7724 74.9342 86.0495 74.9342 86.0495L88.6502 84.9502C89.1979 87.5078 89.5841 90.0975 89.8067 92.7037L90.4277 97.2855L95.8277 125.159L100.859 153.768Z" fill="#263238"/>
<path opacity="0.2" d="M85.7702 124.908C84.4967 120.519 83.5202 116.613 82.7417 113.149C82.8094 109.049 83.1098 104.956 83.6417 100.89C83.6417 100.89 85.6532 116.685 85.7702 124.908Z" fill="black"/>
<path d="M75.1323 83.8467L89.3388 84.6801L89.1138 87.131L74.7993 86.266L75.1323 83.8467Z" fill="black"/>
<path d="M84.933 84.5179C84.7624 84.3286 84.5255 84.2124 84.2715 84.1935L82.5255 84.0809C82.4226 84.0711 82.3187 84.0836 82.2209 84.1174C82.1232 84.1512 82.0338 84.2055 81.9587 84.2768C81.8837 84.3481 81.8248 84.4346 81.7859 84.5306C81.7471 84.6266 81.7292 84.7298 81.7335 84.8332V85.9595C81.7388 86.2016 81.8286 86.4341 81.9872 86.6168C82.1458 86.7995 82.3634 86.9208 82.602 86.9597H82.6785L84.4245 87.0678C84.5272 87.0769 84.6305 87.0639 84.7277 87.0298C84.825 86.9957 84.9138 86.9412 84.9883 86.87C85.0629 86.7988 85.1214 86.7125 85.1599 86.6169C85.1985 86.5213 85.2163 86.4185 85.212 86.3154V85.1936C85.2067 84.9414 85.1072 84.7003 84.933 84.5179ZM84.384 86.6218L82.638 86.5137C82.5135 86.506 82.397 86.4493 82.314 86.356C82.2293 86.2655 82.1812 86.1466 82.179 86.0226V84.9008C82.1776 84.8505 82.1867 84.8005 82.206 84.7541C82.2252 84.7076 82.2541 84.6658 82.2906 84.6313C82.3272 84.5968 82.3707 84.5705 82.4181 84.554C82.4656 84.5376 82.516 84.5314 82.566 84.5359L84.312 84.644H84.348C84.4571 84.6645 84.5566 84.7198 84.6315 84.8017C84.7164 84.8903 84.7646 85.0078 84.7665 85.1306V85.3018C84.7442 85.2977 84.7214 85.2977 84.699 85.3018L84.2085 85.2657C84.1714 85.263 84.1341 85.2683 84.0992 85.2814C84.0644 85.2946 84.0328 85.3151 84.0066 85.3417C83.9805 85.3683 83.9605 85.4003 83.948 85.4354C83.9354 85.4705 83.9307 85.5079 83.934 85.5451C83.9426 85.6274 83.979 85.7043 84.037 85.7633C84.0951 85.8222 84.1714 85.8597 84.2535 85.8694L84.744 85.9055H84.7665V86.2749C84.7661 86.3234 84.7556 86.3714 84.7358 86.4157C84.7159 86.46 84.6871 86.4997 84.6512 86.5322C84.6153 86.5648 84.573 86.5896 84.527 86.605C84.481 86.6204 84.4323 86.6262 84.384 86.6218Z" fill="white"/>
<path d="M78.9119 159.075C78.9119 158.778 82.6199 159.012 82.6199 159.012C82.6199 159.012 84.8924 161.328 87.1199 161.85C89.3474 162.373 88.0964 163.697 85.6259 163.697H79.4969C77.7419 163.697 78.8399 162.188 78.9119 159.075Z" fill="#263238"/>
<path d="M84.5639 159.958C84.0302 159.898 83.5109 159.746 83.0294 159.508L82.9979 159.485C82.989 159.46 82.989 159.433 82.9979 159.408C82.9979 159.372 83.3219 158.507 83.8259 158.3C83.9004 158.265 83.9819 158.246 84.0644 158.246C84.1469 158.246 84.2284 158.265 84.3029 158.3C84.4739 158.381 84.5549 158.485 84.5459 158.611C84.5459 158.805 84.2714 159.003 83.9699 159.161C84.2504 159.112 84.5389 159.143 84.8024 159.251C84.8501 159.277 84.8919 159.314 84.9252 159.357C84.9585 159.4 84.9826 159.45 84.9959 159.503C85.0224 159.57 85.0285 159.644 85.0132 159.714C84.998 159.785 84.9622 159.849 84.9104 159.9C84.805 159.958 84.6827 159.979 84.5639 159.958ZM83.3714 159.426C83.9159 159.661 84.5909 159.877 84.7664 159.719C84.7664 159.719 84.8294 159.67 84.7664 159.526C84.7597 159.498 84.7469 159.471 84.729 159.449C84.7112 159.426 84.6886 159.408 84.6629 159.395C84.2374 159.289 83.7912 159.3 83.3714 159.426ZM84.0329 158.408C83.9803 158.408 83.9282 158.419 83.8799 158.44C83.5902 158.633 83.3683 158.911 83.2454 159.237C83.7944 159.026 84.3254 158.742 84.3344 158.575C84.3344 158.521 84.2534 158.471 84.2039 158.449C84.1505 158.423 84.0922 158.409 84.0329 158.408Z" fill="#263238"/>
<path d="M97.8118 159.075C97.8118 158.778 101.52 159.012 101.52 159.012C101.52 159.012 103.792 161.328 106.02 161.85C108.247 162.373 106.996 163.697 104.526 163.697H98.3968C96.6418 163.697 97.7398 162.188 97.8118 159.075Z" fill="#263238"/>
<path d="M103.464 159.958C102.93 159.898 102.411 159.746 101.929 159.508L101.898 159.485C101.889 159.46 101.889 159.433 101.898 159.408C101.898 159.372 102.222 158.507 102.726 158.3C102.8 158.265 102.882 158.246 102.964 158.246C103.047 158.246 103.128 158.265 103.203 158.3C103.374 158.381 103.455 158.485 103.446 158.611C103.446 158.805 103.171 159.003 102.87 159.161C103.15 159.112 103.439 159.143 103.702 159.251C103.75 159.277 103.792 159.314 103.825 159.357C103.858 159.4 103.882 159.45 103.896 159.503C103.922 159.57 103.928 159.644 103.913 159.714C103.898 159.785 103.862 159.849 103.81 159.9C103.705 159.958 103.583 159.979 103.464 159.958ZM102.271 159.426C102.816 159.661 103.491 159.877 103.666 159.719C103.666 159.719 103.729 159.67 103.666 159.526C103.66 159.498 103.647 159.471 103.629 159.449C103.611 159.426 103.589 159.408 103.563 159.395C103.137 159.289 102.691 159.3 102.271 159.426ZM102.933 158.408C102.88 158.408 102.828 158.419 102.78 158.44C102.49 158.633 102.268 158.911 102.145 159.237C102.694 159.026 103.225 158.742 103.234 158.575C103.234 158.521 103.153 158.471 103.104 158.449C103.05 158.423 102.992 158.409 102.933 158.408Z" fill="#263238"/>
<path d="M98.2935 64.0508C98.2935 64.0508 94.347 67.718 94.185 69.0516C94.023 70.3851 93.123 75.4355 93.123 75.4355H99.9855C99.9855 75.4355 101.057 70.5969 101.588 69.7364C102.119 68.8759 104.972 66.4701 104.972 66.4701L98.2935 64.0508Z" fill="#407BFF"/>
<path opacity="0.7" d="M98.2935 64.0508C98.2935 64.0508 94.347 67.718 94.185 69.0516C94.023 70.3851 93.123 75.4355 93.123 75.4355H99.9855C99.9855 75.4355 101.057 70.5969 101.588 69.7364C102.119 68.8759 104.972 66.4701 104.972 66.4701L98.2935 64.0508Z" fill="white"/>
<path d="M78.3721 64.875C79.1162 66.0698 80.1156 67.0846 81.2983 67.8464C82.481 68.6083 83.8176 69.0983 85.2121 69.2811C89.8876 69.8172 91.5121 66.3077 91.5121 66.3077C91.5121 66.3077 85.2121 64.0505 78.3721 64.875Z" fill="#EEC1BB"/>
<path d="M85.3515 68.5604C82.4265 67.0061 81.999 65.3437 81.999 65.3437C84.645 64.2399 84.2265 60.4375 84.2265 60.4375L87.6645 62.5279C87.385 63.01 87.1398 63.5114 86.931 64.0282C86.058 66.2808 87.0615 66.6727 87.0615 66.6727C87.255 68.1324 85.3515 68.5604 85.3515 68.5604Z" fill="#EEC1BB"/>
<path opacity="0.2" d="M87.6645 62.5278C87.3849 63.0099 87.1398 63.5112 86.931 64.028C84.4335 63.0864 84.231 60.4238 84.231 60.4238L87.6645 62.5278Z" fill="black"/>
<path d="M89.523 51.4044C92.8035 52.4406 93.303 54.5581 92.475 57.9955C91.44 62.3206 89.5545 65.0282 85.725 62.8251C80.55 59.8382 84.0735 49.6789 89.523 51.4044Z" fill="#EEC1BB"/>
<path d="M90.4096 57.1396C90.5174 57.7145 90.6942 58.2742 90.9361 58.8066C90.7971 58.9112 90.632 58.9754 90.4589 58.9921C90.2858 59.0088 90.1115 58.9773 89.9551 58.9012L90.4096 57.1396Z" fill="#D4827D"/>
<path d="M88.4879 56.2386C88.4114 56.5089 88.1999 56.6891 88.0379 56.6351C87.8759 56.581 87.7724 56.3197 87.8489 56.0449C87.9254 55.7701 88.1414 55.5944 88.2989 55.6484C88.4564 55.7025 88.5689 55.9638 88.4879 56.2386Z" fill="#263238"/>
<path d="M88.2227 55.6396L88.8842 55.5811C88.8842 55.5811 88.4432 55.991 88.2227 55.6396Z" fill="#263238"/>
<path d="M91.881 57.1622C91.8 57.4325 91.5885 57.6127 91.4085 57.5586C91.2285 57.5046 91.143 57.2433 91.224 56.9729C91.305 56.7026 91.512 56.5224 91.6965 56.5765C91.881 56.6305 91.9575 56.8919 91.881 57.1622Z" fill="#263238"/>
<path d="M91.6157 56.5675L92.2727 56.5044C92.2727 56.5044 91.8362 56.9189 91.6157 56.5675Z" fill="#263238"/>
<path d="M89.1718 53.9589C88.9224 53.8456 88.6506 53.7908 88.3768 53.7986C88.1031 53.8064 87.8348 53.8766 87.5923 54.0039" stroke="#263238" stroke-width="0.72468" stroke-linecap="round" stroke-linejoin="round"/>
<path d="M91.5977 54.5762C91.8397 54.5901 92.0754 54.6585 92.2873 54.7762C92.4993 54.894 92.6819 55.0582 92.8217 55.2565" stroke="#263238" stroke-width="0.72468" stroke-linecap="round" stroke-linejoin="round"/>
<path d="M89.0686 60.0457C88.7962 60.3661 88.548 60.7064 88.3261 61.0638L88.1191 60.9782C87.2191 60.5773 86.8996 60.0772 86.8501 59.6627C86.8296 59.4561 86.8589 59.2475 86.9356 59.0545C86.9769 58.9439 87.0329 58.8393 87.1021 58.7437C87.5637 59.2432 88.1269 59.638 88.7536 59.9015C88.9426 59.9961 89.0686 60.0457 89.0686 60.0457Z" fill="#263238"/>
<path d="M88.7535 59.9196L88.5285 60.2169C87.66 59.8385 87.0975 59.4555 86.9355 59.0726C86.9769 58.9619 87.0329 58.8574 87.102 58.7617C87.5637 59.2613 88.1268 59.6561 88.7535 59.9196Z" fill="white"/>
<path d="M88.1191 60.9781C87.2191 60.5772 86.8996 60.0771 86.8501 59.6626C87.1989 59.8201 87.516 60.04 87.7861 60.3114C87.9667 60.4914 88.0836 60.7255 88.1191 60.9781Z" fill="#DE5753"/>
<path d="M84.1904 55.8061C84.1904 55.8061 86.5754 53.594 86.9984 51.436C86.9984 51.436 94.3379 50.8323 92.5739 57.5406C92.5739 57.5406 95.0624 51.8775 89.4644 49.9628C83.8664 48.0481 81.2834 56.3152 83.4164 59.6941C83.4164 59.6941 82.7054 57.2162 84.1904 55.8061Z" fill="#263238"/>
<path d="M84.5058 56.6666C84.5932 56.2771 84.523 55.8689 84.3105 55.5311C84.0979 55.1934 83.7604 54.9537 83.3718 54.8645C82.3188 54.6573 81.1758 56.59 83.5473 57.892C83.8848 58.0767 84.2043 57.7839 84.5058 56.6666Z" fill="#EEC1BB"/>
<path d="M102.726 72.2637L102.555 70.8175C102.555 70.8175 102.888 69.9164 102.726 69.547C102.42 68.8126 100.476 67.9071 100.184 67.7449C99.8913 67.5827 98.5188 69.7678 98.6988 70.2093C98.8788 70.6508 101.133 71.6645 101.133 71.6645V72.5655L102.726 72.2637Z" fill="#EEC1BB"/>
<path d="M90.8283 78.7198L88.9653 76.0752C88.9653 76.0752 84.1818 76.6293 84.1188 76.7735L82.6563 80.193C82.6404 80.2304 82.6325 80.2707 82.6328 80.3113C82.6332 80.352 82.6418 80.3921 82.6583 80.4292C82.6747 80.4664 82.6986 80.4998 82.7284 80.5273C82.7583 80.5549 82.7934 80.576 82.8318 80.5894L88.9158 82.6528C88.9858 82.6759 89.0619 82.6721 89.1292 82.6421C89.1966 82.6121 89.2504 82.5581 89.2803 82.4906L90.8058 79.0577C90.8398 78.9484 90.8475 78.8326 90.8283 78.7198Z" fill="#407BFF"/>
<path opacity="0.1" d="M90.8417 78.8411C89.9451 79.181 88.9739 79.2744 88.0292 79.1115C86.4587 78.76 84.1187 76.7642 84.1187 76.7642C84.1817 76.6201 88.9652 76.0659 88.9652 76.0659L90.8282 78.7105C90.8282 78.7105 90.8372 78.7736 90.8417 78.8411Z" fill="black"/>
<path opacity="0.1" d="M84.4336 76.8545C86.4566 77.8382 88.6173 78.5081 90.8416 78.8413C90.8416 78.8413 87.2146 77.6339 84.4336 76.8545Z" fill="black"/>
<path d="M75.735 78.3593L81.0135 78.7422C81.0135 78.7422 81.846 78.1836 82.296 78.2917C82.746 78.3998 85.149 79.7154 85.1985 80.0938C85.248 80.4723 83.97 82.1752 83.3985 82.0941C82.827 82.013 80.91 80.5624 80.7795 80.3551L74.4795 80.4723L75.735 78.3593Z" fill="#EEC1BB"/>
<path d="M76.6709 64.9876C77.3054 65.1904 77.8094 67.1637 76.1489 70.5155C76.1489 70.5155 73.8989 75.6019 74.3489 76.4534C74.8574 77.4851 79.3934 78.3276 79.3934 78.3276L79.0334 81.238C79.0334 81.238 73.0169 82.0715 71.2979 78.3141C69.5789 74.5567 74.5289 64.2938 76.6709 64.9876Z" fill="#407BFF"/>
<path opacity="0.4" d="M76.6709 64.9876C77.3054 65.1904 77.8094 67.1637 76.1489 70.5155C76.1489 70.5155 73.8989 75.6019 74.3489 76.4534C74.8574 77.4851 79.3934 78.3276 79.3934 78.3276L79.0334 81.238C79.0334 81.238 73.0169 82.0715 71.2979 78.3141C69.5789 74.5567 74.5289 64.2938 76.6709 64.9876Z" fill="white"/>
<path d="M88.8794 49.8095C88.8794 49.8095 91.5794 47.8993 94.6079 52.1162C95.4867 53.2959 96.0559 54.6773 96.2635 56.1342C96.471 57.5911 96.3102 59.0768 95.7959 60.4554" stroke="#263238" stroke-width="0.5" stroke-linecap="round" stroke-linejoin="round"/>
</svg>
