<svg width="193" height="144" viewBox="0 0 193 144" fill="none" xmlns="http://www.w3.org/2000/svg">
<path d="M120.302 92.6976C129.946 90.5523 139.294 86.4384 146.535 79.76C158.945 68.3334 163.86 49.4786 158.606 33.4729C156.777 27.9018 153.668 22.5268 148.807 19.2242C144.297 16.1483 138.634 15.1295 133.183 15.4255C127.732 15.7216 122.431 17.2595 117.246 18.9627C113.327 20.2507 109.315 21.654 105.195 21.431C100.345 21.1658 95.936 18.6859 91.6114 16.5136C83.2969 12.3467 74.5369 9.12879 65.4979 6.9209C58.361 5.17922 50.3831 4.18727 44.037 7.87824C38.2117 11.2655 35.0753 17.9054 33.5283 24.4453C28.5749 45.3686 37.6408 68.8485 55.3712 81.0595C64.4833 87.3342 75.2041 90.6138 85.8054 93.4089C96.777 96.304 109.253 95.1583 120.302 92.6976Z" fill="#7E57C2"/>
<path opacity="0.8" d="M120.302 92.6976C129.946 90.5523 139.294 86.4384 146.535 79.76C158.945 68.3334 163.86 49.4786 158.606 33.4729C156.777 27.9018 153.668 22.5268 148.807 19.2242C144.297 16.1483 138.634 15.1295 133.183 15.4255C127.732 15.7216 122.431 17.2595 117.246 18.9627C113.327 20.2507 109.315 21.654 105.195 21.431C100.345 21.1658 95.936 18.6859 91.6114 16.5136C83.2969 12.3467 74.5369 9.12879 65.4979 6.9209C58.361 5.17922 50.3831 4.18727 44.037 7.87824C38.2117 11.2655 35.0753 17.9054 33.5283 24.4453C28.5749 45.3686 37.6408 68.8485 55.3712 81.0595C64.4833 87.3342 75.2041 90.6138 85.8054 93.4089C96.777 96.304 109.253 95.1583 120.302 92.6976Z" fill="white"/>
<path d="M96.4454 143.029C137.756 143.029 171.244 141.081 171.244 138.677C171.244 136.273 137.756 134.325 96.4454 134.325C55.1351 134.325 21.6465 136.273 21.6465 138.677C21.6465 141.081 55.1351 143.029 96.4454 143.029Z" fill="#F5F5F5"/>
<path d="M95.2876 119.665C95.2418 119.665 95.1974 119.649 95.1626 119.619C95.1279 119.59 95.1051 119.548 95.0986 119.503C95.0986 119.461 94.327 114.966 91.5687 112.444C89.3466 110.418 87.0705 105.977 86.974 105.789C86.9622 105.766 86.955 105.742 86.9528 105.717C86.9507 105.691 86.9537 105.666 86.9616 105.642C86.9695 105.618 86.9822 105.596 86.9989 105.577C87.0156 105.558 87.036 105.542 87.0589 105.531C87.1045 105.508 87.1572 105.504 87.2056 105.52C87.2541 105.536 87.2942 105.57 87.3174 105.616C87.3405 105.662 89.6591 110.183 91.8271 112.152C94.6935 114.762 95.4458 119.242 95.4766 119.43C95.4845 119.48 95.4724 119.532 95.4429 119.573C95.4134 119.615 95.3687 119.644 95.3185 119.653L95.2876 119.665Z" fill="#263238"/>
<path d="M92.1434 113.578C92.1434 113.578 89.2037 112.867 90.2145 115.001C91.2252 117.135 93.5823 116.219 93.5823 116.219C93.5823 116.219 95.5845 114.643 94.5622 112.759C93.5399 110.875 92.1434 113.578 92.1434 113.578Z" fill="#7E57C2"/>
<path opacity="0.1" d="M94.5739 112.74C93.5516 110.817 92.1435 113.578 92.1435 113.578C92.1435 113.578 91.9314 114.95 93.5941 116.219C93.5941 116.219 95.5963 114.643 94.5739 112.74Z" fill="black"/>
<path d="M87.2674 105.731C87.2674 105.731 85.404 103.682 85.3385 105.758C85.2729 107.834 87.3252 108.395 87.3252 108.395C87.3252 108.395 89.3544 108.303 89.3158 106.392C89.2773 104.481 87.2674 105.731 87.2674 105.731Z" fill="#7E57C2"/>
<path opacity="0.1" d="M89.3347 106.381C89.2923 104.458 87.267 105.72 87.267 105.72C87.267 105.72 86.6111 106.6 87.3441 108.384C87.3441 108.384 89.3733 108.292 89.3347 106.381Z" fill="black"/>
<path d="M89.6279 109.576C89.6279 109.576 88.895 106.684 90.4805 107.542C92.0661 108.399 91.607 110.821 91.607 110.821C91.607 110.821 90.6503 112.955 89.2267 112.082C87.8032 111.21 89.6279 109.576 89.6279 109.576Z" fill="#7E57C2"/>
<path opacity="0.1" d="M89.2275 112.094C87.8001 111.218 89.6133 109.587 89.6133 109.587C89.6133 109.587 90.5661 109.268 91.5923 110.833C91.6077 110.833 90.6587 112.967 89.2275 112.094Z" fill="black"/>
<path d="M97.73 119.664C97.7122 119.668 97.6938 119.668 97.676 119.664C97.6514 119.658 97.6284 119.646 97.6083 119.63C97.5883 119.615 97.5717 119.595 97.5594 119.573C97.5472 119.551 97.5396 119.526 97.5371 119.501C97.5345 119.476 97.5372 119.45 97.5448 119.426C97.595 119.257 98.7909 115.281 101.788 113.032C103.544 111.72 104.992 110.043 106.032 108.118C106.042 108.095 106.057 108.075 106.076 108.058C106.094 108.041 106.116 108.027 106.14 108.019C106.163 108.01 106.189 108.006 106.214 108.008C106.239 108.009 106.264 108.015 106.287 108.026C106.31 108.037 106.331 108.052 106.348 108.071C106.365 108.09 106.378 108.112 106.387 108.136C106.396 108.16 106.399 108.185 106.398 108.21C106.397 108.236 106.39 108.261 106.379 108.284C105.32 110.267 103.834 111.992 102.028 113.336C99.1304 115.512 97.9306 119.487 97.919 119.533C97.9053 119.572 97.8796 119.606 97.8457 119.629C97.8118 119.653 97.7713 119.665 97.73 119.664Z" fill="#263238"/>
<path d="M97.1744 119.664C97.1252 119.664 97.0778 119.646 97.042 119.612C97.0061 119.579 96.9845 119.533 96.9816 119.484C96.9816 119.449 96.7655 115.993 96.5379 112.755C96.3103 109.518 95.153 107.757 95.1414 107.757C95.1272 107.736 95.1175 107.712 95.1127 107.687C95.108 107.663 95.1083 107.637 95.1137 107.612C95.1191 107.587 95.1295 107.564 95.1442 107.543C95.1589 107.523 95.1776 107.505 95.1993 107.492C95.2422 107.464 95.2944 107.455 95.3443 107.466C95.3942 107.477 95.4378 107.507 95.4654 107.549C95.5156 107.626 96.6922 109.472 96.9237 112.748C97.1552 116.023 97.3673 119.445 97.3673 119.48C97.3689 119.505 97.3654 119.53 97.3572 119.554C97.3489 119.578 97.336 119.6 97.3191 119.619C97.3023 119.638 97.2819 119.654 97.259 119.665C97.2362 119.676 97.2114 119.682 97.186 119.684L97.1744 119.664Z" fill="#263238"/>
<path d="M96.4838 110.345C96.4838 110.345 95.6274 108.099 97.7145 108.68C99.8015 109.26 99.0801 111.206 99.0801 111.206C99.0801 111.206 97.7106 112.951 95.8396 112.359C93.9685 111.767 96.4838 110.345 96.4838 110.345Z" fill="#7E57C2"/>
<path opacity="0.1" d="M95.8396 112.363C93.9685 111.756 96.4838 110.36 96.4838 110.36C96.954 110.291 97.434 110.333 97.885 110.482C98.336 110.632 98.7454 110.885 99.0801 111.221C99.0801 111.221 97.7106 112.967 95.8396 112.363Z" fill="black"/>
<path d="M104.639 110.729C104.639 110.729 103.783 108.488 105.874 109.068C107.965 109.649 107.239 111.594 107.239 111.594C107.239 111.594 105.866 113.34 103.995 112.748C102.124 112.156 104.639 110.729 104.639 110.729Z" fill="#7E57C2"/>
<path opacity="0.1" d="M103.995 112.747C102.124 112.144 104.639 110.744 104.639 110.744C105.11 110.676 105.591 110.719 106.042 110.869C106.494 111.02 106.904 111.273 107.239 111.609C107.239 111.609 105.866 113.355 103.995 112.747Z" fill="black"/>
<path d="M99.9399 115.558C99.9399 115.558 99.5233 113.144 101.452 114.263C103.381 115.382 102.312 117.085 102.312 117.085C102.312 117.085 100.65 118.427 98.9369 117.342C97.224 116.258 99.9399 115.558 99.9399 115.558Z" fill="#7E57C2"/>
<path opacity="0.1" d="M98.9372 117.342C97.2282 116.258 99.9402 115.558 99.9402 115.558C99.9402 115.558 101.256 115.593 102.313 117.096C102.313 117.084 100.65 118.419 98.9372 117.342Z" fill="black"/>
<path d="M96.7031 114.224C96.7031 114.224 96.1206 112.686 97.5441 113.09C97.7272 113.127 97.8997 113.204 98.0497 113.315C98.1996 113.426 98.3233 113.569 98.4119 113.733C98.5006 113.897 98.5521 114.078 98.5628 114.264C98.5735 114.45 98.5431 114.636 98.4739 114.809C98.4739 114.809 97.5403 116 96.2633 115.578C94.9864 115.155 96.7031 114.224 96.7031 114.224Z" fill="#7E57C2"/>
<path opacity="0.1" d="M96.2633 115.589C94.9864 115.177 96.7031 114.224 96.7031 114.224C97.0236 114.177 97.3507 114.205 97.6582 114.306C97.9658 114.408 98.2451 114.58 98.4739 114.808C98.4739 114.808 97.5403 116 96.2633 115.589Z" fill="black"/>
<path d="M95.4339 107.503C95.4339 107.503 96.1669 105.166 94.4695 105.819C92.7721 106.473 93.3121 108.461 93.3121 108.461C93.3121 108.461 94.3885 110.226 95.9084 109.557C97.4284 108.888 95.4339 107.503 95.4339 107.503Z" fill="#7E57C2"/>
<path opacity="0.1" d="M95.9205 109.575C97.4636 108.903 95.4344 107.522 95.4344 107.522C95.4344 107.522 94.4005 107.23 93.3242 108.48C93.3242 108.46 94.4005 110.225 95.9205 109.575Z" fill="black"/>
<path d="M106.09 107.311C106.09 107.311 105.257 105.854 106.514 105.962C107.772 106.069 107.672 107.546 107.672 107.546C107.672 107.546 107.182 108.976 106.04 108.818C104.898 108.661 106.09 107.311 106.09 107.311Z" fill="#7E57C2"/>
<path opacity="0.1" d="M106.044 108.807C104.886 108.653 106.09 107.299 106.09 107.299C106.09 107.299 106.757 106.892 107.675 107.534C107.675 107.545 107.186 108.976 106.044 108.807Z" fill="black"/>
<path d="M102.351 112.402C102.351 112.402 105.325 111.917 103.771 110.306C102.216 108.695 100.252 110.476 100.252 110.476C100.252 110.476 98.7979 112.752 100.291 114.147C101.784 115.543 102.351 112.402 102.351 112.402Z" fill="#7E57C2"/>
<path opacity="0.1" d="M100.303 114.147C101.796 115.543 102.363 112.401 102.363 112.401C102.363 112.401 102.185 111.021 100.264 110.479C100.252 110.475 98.798 112.751 100.303 114.147Z" fill="black"/>
<path d="M94.752 116.439C94.752 116.439 94.019 113.544 95.6045 114.401C97.1901 115.258 96.731 117.684 96.731 117.684C96.731 117.684 95.7743 119.818 94.3508 118.942C92.9272 118.065 94.752 116.439 94.752 116.439Z" fill="#7E57C2"/>
<path opacity="0.1" d="M94.3505 118.942C92.9231 118.065 94.7363 116.439 94.7363 116.439C94.7363 116.439 95.6853 116.116 96.7154 117.684C96.7308 117.684 95.7741 119.818 94.3505 118.942Z" fill="black"/>
<path d="M90.4307 133.798V135.72H91.9738C92.001 135.479 92.1195 135.257 92.3052 135.1C92.4908 134.943 92.7297 134.862 92.973 134.874H100.905C101.155 134.857 101.403 134.939 101.593 135.103C101.784 135.266 101.902 135.498 101.923 135.747H103.466V133.825L90.4307 133.798Z" fill="#263238"/>
<path d="M103.362 134.001H90.5159C89.5245 134.001 88.6796 132.079 88.5291 129.426L87.9852 120.026C87.9768 119.882 87.998 119.738 88.0475 119.602C88.0971 119.467 88.1739 119.343 88.2732 119.238C88.3726 119.133 88.4924 119.05 88.6253 118.993C88.7582 118.936 88.9014 118.907 89.0461 118.907H104.832C104.977 118.906 105.12 118.935 105.254 118.992C105.387 119.048 105.507 119.132 105.606 119.237C105.706 119.342 105.783 119.466 105.832 119.601C105.881 119.737 105.902 119.882 105.893 120.026L105.353 129.426C105.199 132.06 104.354 134.001 103.362 134.001Z" fill="#263238"/>
<path opacity="0.2" d="M103.362 134.001H90.5159C89.5245 134.001 88.6796 132.079 88.5291 129.426L87.9852 120.026C87.9768 119.882 87.998 119.738 88.0475 119.602C88.0971 119.467 88.1739 119.343 88.2732 119.238C88.3726 119.133 88.4924 119.05 88.6253 118.993C88.7582 118.936 88.9014 118.907 89.0461 118.907H104.832C104.977 118.906 105.12 118.935 105.254 118.992C105.387 119.048 105.507 119.132 105.606 119.237C105.706 119.342 105.783 119.466 105.832 119.601C105.881 119.737 105.902 119.882 105.893 120.026L105.353 129.426C105.199 132.06 104.354 134.001 103.362 134.001Z" fill="white"/>
<path d="M94.5357 39.4704C94.4845 39.4704 94.4354 39.4501 94.3993 39.4141C94.3631 39.378 94.3428 39.3291 94.3428 39.2782V35.4911C94.3428 35.4401 94.3631 35.3912 94.3993 35.3551C94.4354 35.3191 94.4845 35.2988 94.5357 35.2988C94.5868 35.2988 94.6359 35.3191 94.6721 35.3551C94.7082 35.3912 94.7286 35.4401 94.7286 35.4911V39.2782C94.7286 39.3291 94.7082 39.378 94.6721 39.4141C94.6359 39.4501 94.5868 39.4704 94.5357 39.4704Z" fill="#7E57C2"/>
<path d="M89.933 40.3319C89.9053 40.3316 89.878 40.3257 89.8528 40.3145C89.8276 40.3032 89.805 40.2869 89.7864 40.2665L88.3436 38.5594C88.3238 38.5408 88.3082 38.5183 88.2979 38.4933C88.2875 38.4682 88.2825 38.4413 88.2833 38.4142C88.2841 38.3872 88.2906 38.3606 88.3024 38.3362C88.3142 38.3118 88.3311 38.2902 88.3518 38.2727C88.3726 38.2553 88.3969 38.2424 88.423 38.235C88.4491 38.2275 88.4765 38.2256 88.5034 38.2295C88.5303 38.2333 88.5561 38.2428 88.5791 38.2572C88.6021 38.2717 88.6217 38.2908 88.6367 38.3134L90.0911 40.0166C90.1238 40.0561 90.1397 40.1068 90.1353 40.1578C90.131 40.2088 90.1068 40.2561 90.068 40.2896C90.0293 40.319 89.9815 40.3339 89.933 40.3319Z" fill="#7E57C2"/>
<path d="M91.1445 41.7543C91.1164 41.7546 91.0886 41.7486 91.0632 41.7366C91.0378 41.7246 91.0155 41.707 90.9979 41.6851L90.5658 41.1815C90.5326 41.1427 90.5161 41.0924 90.5201 41.0416C90.5241 40.9907 90.5482 40.9435 90.5871 40.9104C90.6259 40.8773 90.6764 40.8609 90.7274 40.8648C90.7784 40.8688 90.8258 40.8928 90.859 40.9316L91.2911 41.4391C91.3145 41.467 91.3294 41.501 91.3341 41.5371C91.3389 41.5732 91.3333 41.6099 91.3179 41.6429C91.3026 41.676 91.2781 41.704 91.2474 41.7237C91.2167 41.7434 91.181 41.754 91.1445 41.7543Z" fill="#7E57C2"/>
<path d="M97.9569 41.7237C97.9204 41.7234 97.8847 41.7128 97.854 41.6931C97.8233 41.6733 97.7989 41.6453 97.7835 41.6123C97.7682 41.5793 97.7625 41.5426 97.7673 41.5065C97.772 41.4704 97.7869 41.4364 97.8103 41.4084L99.4306 39.5053C99.447 39.4861 99.4672 39.4703 99.4897 39.4589C99.5123 39.4474 99.5369 39.4405 99.5622 39.4386C99.5874 39.4366 99.6128 39.4396 99.6369 39.4474C99.661 39.4553 99.6833 39.4677 99.7026 39.4841C99.7218 39.5005 99.7376 39.5206 99.7491 39.5431C99.7606 39.5656 99.7675 39.5901 99.7695 39.6153C99.7715 39.6405 99.7685 39.6658 99.7606 39.6898C99.7528 39.7138 99.7402 39.736 99.7238 39.7552L98.1035 41.6545C98.0858 41.6762 98.0634 41.6936 98.038 41.7056C98.0127 41.7175 97.985 41.7237 97.9569 41.7237Z" fill="#7E57C2"/>
<path d="M100.23 39.0555C100.184 39.0553 100.14 39.039 100.106 39.0093C100.067 38.9758 100.043 38.9285 100.039 38.8775C100.034 38.8265 100.05 38.7758 100.083 38.7363L100.446 38.3134C100.479 38.2747 100.527 38.2506 100.578 38.2463C100.629 38.242 100.68 38.2578 100.72 38.2903C100.739 38.3063 100.755 38.326 100.767 38.3483C100.779 38.3705 100.786 38.3949 100.788 38.42C100.79 38.4451 100.787 38.4704 100.78 38.4944C100.772 38.5183 100.759 38.5404 100.743 38.5595L100.38 38.9862C100.362 39.0082 100.339 39.0258 100.313 39.0378C100.287 39.0497 100.258 39.0558 100.23 39.0555Z" fill="#7E57C2"/>
<path d="M136.559 129.784L142.114 127.977L144.328 134.486L139.687 136.005L136.559 129.784Z" fill="#CE7A63"/>
<path opacity="0.2" d="M136.562 129.788L142.118 127.977L143.155 131.026L138.055 132.76L136.562 129.788Z" fill="black"/>
<path d="M137.338 135.655C136.825 135.793 136.312 135.855 136.1 135.655C136.043 135.604 136.003 135.537 135.984 135.463C135.966 135.389 135.97 135.311 135.995 135.239C136.013 135.176 136.043 135.116 136.085 135.065C136.127 135.014 136.179 134.973 136.238 134.943C136.856 134.586 138.461 135.009 138.53 135.028C138.549 135.033 138.567 135.044 138.58 135.059C138.593 135.074 138.601 135.093 138.603 135.113C138.605 135.133 138.601 135.153 138.591 135.171C138.582 135.188 138.567 135.203 138.549 135.212C138.161 135.398 137.755 135.546 137.338 135.655ZM136.501 135.043C136.44 135.062 136.381 135.086 136.323 135.113C136.288 135.131 136.256 135.156 136.231 135.187C136.205 135.218 136.187 135.255 136.177 135.293C136.138 135.428 136.177 135.478 136.208 135.509C136.462 135.716 137.477 135.455 138.187 135.159C137.637 135.013 137.064 134.977 136.501 135.051V135.043Z" fill="#7E57C2"/>
<path d="M138.53 135.232H138.495C137.955 135.144 136.771 134.536 136.729 134.079C136.727 133.995 136.753 133.914 136.805 133.848C136.856 133.782 136.929 133.736 137.01 133.717C137.1 133.679 137.196 133.66 137.294 133.66C137.391 133.66 137.488 133.679 137.577 133.717C138.198 134.002 138.584 135.04 138.604 135.086C138.613 135.1 138.618 135.117 138.618 135.134C138.618 135.151 138.613 135.168 138.604 135.182L138.53 135.232ZM137.13 133.871H137.068C136.906 133.936 136.914 134.002 136.914 134.029C136.914 134.305 137.77 134.798 138.341 134.978C138.179 134.536 137.88 134.157 137.489 133.894C137.376 133.841 137.248 133.832 137.13 133.871Z" fill="#7E57C2"/>
<path d="M138.981 134.324L143.638 132.786C143.716 132.763 143.8 132.767 143.876 132.798C143.952 132.829 144.015 132.884 144.054 132.956L145.814 135.858C145.968 136.162 145.478 136.724 145.428 136.735C143.171 137.704 137.35 139.738 135.687 140.234C134.024 140.73 133.314 139.153 133.951 138.804C136.802 137.227 137.678 135.966 138.387 134.805C138.514 134.573 138.728 134.4 138.981 134.324Z" fill="#263238"/>
<path d="M110.079 130.545L116.093 131.041L115.071 138.088L110.044 137.681L110.079 130.545Z" fill="#CE7A63"/>
<path opacity="0.2" d="M110.078 130.549L116.096 131.045L115.602 134.428L110.062 134.013L110.078 130.549Z" fill="black"/>
<path d="M121.571 109.96C123.916 100.948 130.664 80.7169 125.965 72.4507L109.176 74.0078C109.176 74.0078 108.894 99.3333 108.79 107.761C108.666 116.527 109.426 133.094 109.426 133.094L116.317 133.613C116.317 133.613 121.023 120.072 121.571 109.96Z" fill="#7E57C2"/>
<g opacity="0.3">
<path d="M121.571 109.96C123.916 100.948 130.664 80.7169 125.965 72.4507L109.176 74.0078C109.176 74.0078 108.894 99.3333 108.79 107.761C108.666 116.527 109.426 133.094 109.426 133.094L116.317 133.613C116.317 133.613 121.023 120.072 121.571 109.96Z" fill="white"/>
</g>
<path opacity="0.2" d="M122.617 83.8159C122.694 85.8959 126.201 94.2852 125.973 96.4421C125.148 99.2757 123.385 103.882 122.443 106.635C121.205 98.8336 122.617 83.8159 122.617 83.8159Z" fill="black"/>
<path d="M138.63 107.038C139.448 97.926 141.979 76.7683 138.676 72.8735L121.065 73.2811C121.065 73.2811 123.766 99.933 125.421 108.338C127.134 117.081 137.179 132.175 137.179 132.175L143.371 130.111C143.371 130.111 140.705 117.438 138.63 107.038Z" fill="#7E57C2"/>
<g opacity="0.3">
<path d="M138.63 107.038C139.448 97.926 141.979 76.7683 138.676 72.8735L121.065 73.2811C121.065 73.2811 123.766 99.933 125.421 108.338C127.134 117.081 137.179 132.175 137.179 132.175L143.371 130.111C143.371 130.111 140.705 117.438 138.63 107.038Z" fill="white"/>
</g>
<path d="M108.273 136.266C107.74 136.212 107.243 136.081 107.115 135.828C107.082 135.76 107.069 135.683 107.078 135.608C107.088 135.533 107.12 135.462 107.169 135.405C107.21 135.351 107.26 135.307 107.319 135.274C107.378 135.242 107.442 135.222 107.509 135.216C108.211 135.105 109.554 136.081 109.608 136.12C109.624 136.132 109.637 136.148 109.644 136.168C109.651 136.187 109.652 136.208 109.646 136.228C109.641 136.247 109.63 136.263 109.614 136.276C109.599 136.289 109.581 136.298 109.561 136.301C109.132 136.33 108.7 136.318 108.273 136.266ZM107.713 135.393H107.521C107.441 135.404 107.369 135.446 107.32 135.509C107.235 135.624 107.254 135.682 107.27 135.724C107.436 136.008 108.473 136.131 109.245 136.108C108.783 135.772 108.258 135.531 107.702 135.397L107.713 135.393Z" fill="#7E57C2"/>
<path d="M109.527 136.297H109.484C109.014 136.02 108.134 135.024 108.265 134.575C108.292 134.497 108.345 134.431 108.416 134.388C108.486 134.345 108.569 134.328 108.651 134.34C108.748 134.335 108.845 134.351 108.936 134.385C109.027 134.42 109.11 134.472 109.179 134.54C109.654 135.028 109.639 136.139 109.639 136.185C109.642 136.203 109.64 136.22 109.634 136.236C109.628 136.253 109.617 136.267 109.604 136.278L109.527 136.297ZM108.716 134.525L108.659 134.501C108.485 134.501 108.466 134.567 108.458 134.59C108.358 134.851 108.971 135.632 109.442 135.993C109.454 135.524 109.319 135.063 109.056 134.674C108.967 134.582 108.845 134.528 108.716 134.525Z" fill="#7E57C2"/>
<path d="M110.276 135.616L115.403 135.855C115.484 135.86 115.562 135.894 115.622 135.95C115.682 136.006 115.72 136.081 115.73 136.162L116.313 139.503C116.34 139.616 116.34 139.733 116.313 139.845C116.273 139.946 116.204 140.032 116.115 140.094C116.025 140.155 115.92 140.189 115.811 140.192C113.169 140.261 106.73 140.061 105.06 139.926C103.331 139.788 103.243 138.065 103.964 137.965C107.193 137.527 108.466 136.67 109.55 135.843C109.65 135.76 109.766 135.697 109.89 135.658C110.015 135.619 110.146 135.605 110.276 135.616Z" fill="#263238"/>
<path d="M118.067 46.0489C117.574 47.237 117.026 48.3788 116.455 49.5092C115.884 50.6396 115.278 51.7661 114.646 52.8772C114.013 53.9884 113.369 55.0918 112.686 56.1876C112.003 57.2833 111.309 58.3637 110.495 59.521L110.248 59.8709C109.906 60.3582 109.449 60.7543 108.917 61.0243C108.625 61.1718 108.318 61.289 108.002 61.3742C107.864 61.4088 107.725 61.4357 107.582 61.4626L107.37 61.4933H107.192C106.794 61.5229 106.393 61.501 106 61.428C105.546 61.345 105.105 61.2028 104.689 61.0051C104.208 60.7786 103.755 60.4987 103.338 60.1707C102.756 59.7139 102.213 59.2098 101.714 58.6636C100.855 57.7287 100.064 56.7342 99.3456 55.6877C98.6435 54.6804 98.0069 53.6462 97.4167 52.5889C96.8187 51.52 96.2866 50.4158 95.8234 49.2824C95.7548 49.1082 95.7213 48.9222 95.7249 48.7352C95.7284 48.5481 95.769 48.3635 95.8443 48.1921C95.9195 48.0207 96.028 47.8657 96.1634 47.7361C96.2989 47.6065 96.4586 47.5048 96.6336 47.4369C96.8314 47.3582 97.0446 47.3252 97.2571 47.3405C97.4696 47.3559 97.6759 47.419 97.8603 47.5253H97.8989C98.9367 48.1212 99.9165 48.7902 100.893 49.4477L103.728 51.3931C104.646 52.0314 105.564 52.6504 106.429 53.1733C106.79 53.4019 107.168 53.6036 107.559 53.7769C107.698 53.8269 107.817 53.8461 107.732 53.7769C107.584 53.686 107.419 53.6258 107.246 53.6C106.992 53.5521 106.733 53.5379 106.475 53.5577H106.351H106.193C106.087 53.5749 105.981 53.598 105.877 53.6269C105.63 53.6884 105.392 53.7788 105.167 53.8961L103.589 55.3917L105.086 52.0929C105.6 50.9574 106.13 49.8245 106.675 48.6941C107.215 47.5638 107.783 46.4411 108.365 45.3261C108.948 44.2111 109.553 43.1077 110.209 42.0388C110.787 41.0895 111.703 40.3928 112.774 40.0883C113.846 39.7837 114.993 39.8939 115.986 40.3966C116.979 40.8993 117.745 41.7575 118.131 42.7993C118.516 43.841 118.492 44.9894 118.064 46.0143L118.067 46.0489Z" fill="#CE7A63"/>
<path d="M117.971 41.0427C119.306 47.3904 114.924 53.9342 114.924 53.9342C112.536 54.4532 107.528 50.8583 106.367 48.4938C106.367 48.4938 107.382 43.9878 110.144 41.0196C112.702 38.2706 117.188 37.3209 117.971 41.0427Z" fill="#7E57C2"/>
<g opacity="0.1">
<path d="M117.971 41.0427C119.306 47.3904 114.924 53.9342 114.924 53.9342C112.536 54.4532 107.528 50.8583 106.367 48.4938C106.367 48.4938 107.382 43.9878 110.144 41.0196C112.702 38.2706 117.188 37.3209 117.971 41.0427Z" fill="black"/>
</g>
<path d="M97.6603 47.4598L95.8433 49.063L93.328 48.2249L91.9276 47.3829C91.6899 47.2145 91.5203 46.967 91.4496 46.685C91.3789 46.403 91.4116 46.105 91.5419 45.845L92.1475 44.3609C92.2543 44.0479 92.4791 43.7887 92.7743 43.638C93.0695 43.4873 93.412 43.457 93.7292 43.5535L95.0563 44.0802C95.4424 44.2346 95.7843 44.4815 96.0516 44.7992L97.6603 47.4598Z" fill="#CE7A63"/>
<path d="M117.277 38.063C122.181 37.071 128.507 35.7561 133.712 35.9791C136.96 36.1214 139.417 37.9015 139.66 44.4684C139.803 48.2555 138.715 56.1526 138.808 59.8474C139.039 69.1671 139.066 73.3541 139.066 73.3541C139.066 73.3541 135.34 72.4352 109.06 73.9154C108.038 55.722 110.827 47.3865 113.099 41.6771C114.654 37.8092 115.348 38.4705 117.277 38.063Z" fill="#7E57C2"/>
<path opacity="0.2" d="M119.862 41.3541L119.986 41.7117L120.642 44.1608L122.852 40.9351L119.862 41.3541Z" fill="black"/>
<path d="M118.982 38.6128C119.561 37.9246 120.263 38.2283 120.483 37.2556C120.55 36.5037 120.352 35.752 119.923 35.1294L127.13 30.3081C127.249 33.1109 127.35 35.3063 128.696 36.3098C129.259 38.3552 125.61 40.8005 120.406 41.3272C117.111 41.6655 118.149 39.6009 118.982 38.6128Z" fill="#CE7A63"/>
<path opacity="0.2" d="M120.059 35.3716L125.915 33.2993C124.63 35.8215 122.022 37.3863 120.514 36.9518C120.497 36.3954 120.341 35.852 120.059 35.3716Z" fill="black"/>
<path d="M121.219 21.4732C125.108 20.216 128.854 23.1687 128.433 26.829C128.013 30.4892 127.643 32.9806 125.274 34.4224C120.564 37.3252 117.925 35.2182 117.173 31.508C116.467 28.1708 117.277 22.7497 121.219 21.4732Z" fill="#CE7A63"/>
<path d="M120.31 32.1114C120.144 32.1444 119.977 32.165 119.808 32.1729C119.782 32.173 119.757 32.1631 119.737 32.1453C119.718 32.1275 119.706 32.103 119.704 32.0768C119.704 32.0505 119.714 32.0252 119.732 32.006C119.75 31.9867 119.774 31.9749 119.801 31.973C120.224 31.9618 120.638 31.8515 121.011 31.6512C121.384 31.4508 121.704 31.1659 121.945 30.8196C121.952 30.8079 121.96 30.7976 121.97 30.7893C121.98 30.781 121.992 30.7749 122.005 30.7713C122.017 30.7677 122.031 30.7667 122.044 30.7684C122.057 30.7701 122.069 30.7744 122.081 30.7811C122.092 30.7878 122.102 30.7968 122.11 30.8074C122.118 30.8181 122.124 30.8302 122.127 30.8431C122.13 30.8559 122.131 30.8693 122.129 30.8825C122.127 30.8956 122.122 30.9082 122.115 30.9195C121.909 31.228 121.643 31.4923 121.333 31.697C121.023 31.9016 120.675 32.0425 120.31 32.1114Z" fill="#263238"/>
<path d="M122.466 27.1751C122.626 27.2243 122.781 27.2873 122.929 27.3635C122.941 27.3688 122.952 27.3765 122.96 27.386C122.969 27.3956 122.976 27.4068 122.98 27.419C122.985 27.4312 122.986 27.4442 122.986 27.4571C122.985 27.47 122.981 27.4826 122.975 27.4942C122.97 27.5061 122.962 27.5168 122.952 27.5256C122.942 27.5344 122.93 27.5411 122.918 27.5454C122.905 27.5497 122.892 27.5514 122.878 27.5506C122.865 27.5497 122.852 27.5462 122.84 27.5403C121.567 26.929 121.347 27.6634 121.201 27.7633C121.19 27.7702 121.177 27.7747 121.165 27.7767C121.152 27.7787 121.139 27.778 121.126 27.7748C121.113 27.7715 121.101 27.7658 121.091 27.7579C121.081 27.75 121.072 27.7401 121.066 27.7287C121.053 27.7062 121.049 27.6796 121.056 27.6544C121.062 27.6293 121.078 27.6077 121.101 27.5942C121.135 27.5672 121.413 26.8637 122.466 27.1751Z" fill="#263238"/>
<path opacity="0.1" d="M123.708 27.4822C123.471 27.4249 123.222 27.4592 123.01 27.5783C123.051 27.6284 123.108 27.6636 123.172 27.6782C123.27 27.683 123.368 27.6681 123.46 27.6344C123.552 27.6007 123.636 27.549 123.708 27.4822Z" fill="black"/>
<path opacity="0.1" d="M123.77 27.0361C123.526 27.0449 123.294 27.1467 123.122 27.3206C123.176 27.3562 123.239 27.3737 123.303 27.3706C123.4 27.3487 123.491 27.3078 123.571 27.2504C123.651 27.1929 123.719 27.1201 123.77 27.0361Z" fill="black"/>
<path d="M118.396 27.7475C118.555 27.8001 118.709 27.863 118.859 27.9359C118.883 27.9476 118.902 27.9684 118.91 27.9937C118.919 28.0189 118.917 28.0465 118.906 28.0705C118.894 28.0944 118.873 28.1128 118.848 28.1214C118.822 28.1301 118.795 28.1284 118.771 28.1166C117.497 27.5015 117.278 28.2397 117.131 28.3396C117.119 28.3464 117.107 28.3508 117.093 28.3525C117.08 28.3543 117.066 28.3533 117.053 28.3497C117.04 28.3461 117.028 28.34 117.018 28.3317C117.007 28.3233 116.999 28.3129 116.992 28.3012C116.985 28.2899 116.981 28.2774 116.979 28.2644C116.978 28.2514 116.979 28.2382 116.982 28.2256C116.986 28.213 116.992 28.2012 117 28.1911C117.009 28.181 117.019 28.1726 117.031 28.1666C117.073 28.1435 117.343 27.4361 118.396 27.7475Z" fill="#263238"/>
<path d="M119.426 23.9452C119.069 23.936 118.713 23.8909 118.365 23.8106C117.482 22.8825 116.929 21.6911 116.791 20.4195C117.999 20.7432 119.262 20.81 120.498 20.6156C123.021 20.1465 125.074 19.8812 127.215 20.6463C128.152 20.9808 129.097 21.4153 128.469 22.5687C128.465 22.5572 121.212 23.5914 119.426 23.9452Z" fill="#263238"/>
<path d="M127.261 32.6805C127.261 32.6805 127.377 29.8508 125.914 29.324C124.811 28.9396 126.447 26.4289 125.077 26.1521C124.491 25.9676 124.583 24.0336 124.583 23.5723C124.583 23.5723 126.879 22.6649 128.468 22.5649C128.565 23.0686 128.854 24.2759 129.039 25.3562C129.039 25.3486 128.464 28.286 127.261 32.6805Z" fill="#263238"/>
<path d="M129.352 29.943C129.132 30.3115 128.84 30.6327 128.495 30.8881C128.149 31.1435 127.756 31.328 127.338 31.4309C126.216 31.7001 125.687 30.6889 126.027 29.6546C126.331 28.7242 127.284 27.4631 128.399 27.6554C129.514 27.8476 129.888 29.0279 129.352 29.943Z" fill="#CE7A63"/>
<path d="M119.611 28.0435L119.565 30.4541C119.565 30.4541 118.581 30.6271 118.045 30.0697C119.592 29.1623 119.611 28.0435 119.611 28.0435Z" fill="#BA4D3C"/>
<path d="M122.616 26.2634C122.645 26.2475 122.669 26.2241 122.686 26.1957C122.703 26.1673 122.711 26.1349 122.711 26.1019C122.711 26.069 122.703 26.0366 122.686 26.0082C122.669 25.9798 122.645 25.9564 122.616 25.9405C122.352 25.7945 122.056 25.7134 121.755 25.704C121.453 25.6947 121.153 25.7573 120.88 25.8866C120.858 25.8987 120.839 25.9149 120.823 25.9344C120.808 25.9539 120.796 25.9762 120.789 26.0002C120.783 26.0242 120.781 26.0492 120.784 26.0739C120.787 26.0987 120.794 26.1226 120.807 26.1442C120.832 26.1875 120.873 26.2193 120.921 26.233C120.969 26.2466 121.021 26.241 121.065 26.2173C121.282 26.1178 121.52 26.0708 121.758 26.0802C121.997 26.0895 122.23 26.155 122.439 26.2711C122.467 26.2841 122.497 26.2902 122.528 26.2888C122.559 26.2875 122.589 26.2788 122.616 26.2634Z" fill="#263238"/>
<path d="M116.995 26.9133C117.025 26.9233 117.057 26.9257 117.088 26.9204C117.119 26.915 117.148 26.902 117.173 26.8826C117.354 26.7296 117.57 26.6225 117.801 26.5703C118.033 26.5181 118.274 26.5224 118.504 26.5827C118.551 26.5973 118.602 26.5931 118.645 26.5708C118.689 26.5485 118.723 26.51 118.739 26.4635C118.755 26.4156 118.751 26.3633 118.729 26.3179C118.706 26.2726 118.667 26.2379 118.619 26.2213C118.329 26.1458 118.024 26.1413 117.731 26.2082C117.438 26.2752 117.166 26.4115 116.937 26.6057C116.918 26.6211 116.901 26.6402 116.889 26.6618C116.877 26.6835 116.869 26.7073 116.866 26.732C116.864 26.7566 116.866 26.7816 116.873 26.8055C116.879 26.8293 116.891 26.8516 116.906 26.871C116.931 26.8932 116.962 26.9078 116.995 26.9133Z" fill="#263238"/>
<path d="M116.563 42.677C116.625 42.1502 116.911 41.6004 117.007 41.0775C117.281 39.5396 118.882 36.906 120.479 36.583C120.437 38.0402 119.769 41.3544 119.769 41.3544C119.09 41.4466 117.389 41.6889 116.563 42.677Z" fill="#263238"/>
<path d="M127.859 35.3721C127.678 36.4025 123.963 40.2588 122.771 40.9393C124.58 40.8547 125.818 41.17 127.076 41.9735C128.754 40.2588 129.186 36.1295 129.217 36.0987C129.282 35.5566 128.38 35.1991 127.859 35.3721Z" fill="#263238"/>
<path d="M136.397 46.864C140.949 45.2569 139.36 44.5264 140.023 44.288C140.14 44.023 140.232 43.7475 140.297 43.4652C140.328 43.3153 140.355 43.1615 140.374 43.0077V42.8231V42.6424V42.3464V42.1426V42.0234L140.351 41.8581C140.351 41.8235 140.351 41.8389 140.351 41.8581L140.444 42.1503L140.698 42.9193L141.281 44.6148C141.666 45.7682 142.091 46.9486 142.48 48.1366C142.677 48.7287 142.889 49.3208 143.078 49.9167L143.379 50.8395C143.514 51.224 143.63 51.6392 143.738 52.0544C144.197 53.8018 144.295 55.6241 144.024 57.4102C143.985 57.6563 143.962 57.7716 143.931 57.9369L143.858 58.4406L143.676 59.3749L143.291 61.2396C143.028 62.4776 142.754 63.7194 142.469 64.9575C141.89 67.4373 140.594 71.3628 139.811 73.8004C139.425 74.9539 138.364 75.6997 137.195 75.3383C136.304 75.0577 136.204 72.72 136.138 71.8434C135.953 69.2713 135.918 66.7145 135.941 64.1539C135.941 62.8774 135.98 61.6048 136.019 60.3091L136.088 58.3868L136.177 56.5451C136.149 55.8061 135.992 55.0776 135.714 54.392C135.641 54.196 135.56 54.0076 135.467 53.8038L135.081 52.9503C134.819 52.3659 134.58 51.7699 134.329 51.1817C133.827 49.9975 133.361 48.7941 132.902 47.5676C132.682 46.9524 132.454 46.3296 132.25 45.6721C132.145 45.3453 132.037 45.0108 131.933 44.6379C131.883 44.4495 131.829 44.2534 131.771 44.0112C131.744 43.892 131.713 43.7536 131.679 43.5652C131.659 43.4614 131.64 43.3576 131.613 43.1807L131.594 43.0038C131.594 42.927 131.594 42.8885 131.594 42.7386V42.4002V42.2041L131.613 42.0042C131.631 41.8451 131.658 41.6872 131.694 41.5313C131.756 41.2444 131.848 40.9648 131.968 40.697C132.631 40.4509 131.05 39.7166 135.602 38.1056C136.178 38.0539 136.759 38.1157 137.311 38.2877C137.864 38.4597 138.377 38.7384 138.821 39.1079C139.265 39.4774 139.632 39.9305 139.9 40.4413C140.169 40.9521 140.334 41.5106 140.386 42.0849C140.438 42.6593 140.376 43.2382 140.203 43.7886C140.03 44.339 139.751 44.8501 139.38 45.2928C139.009 45.7356 138.555 46.1011 138.042 46.3687C137.53 46.6363 136.969 46.8007 136.393 46.8525L136.397 46.864Z" fill="#CE7A63"/>
<path d="M136.539 72.8735L138.881 73.358C141.006 74.6998 138.831 77.6334 138.831 77.6334L138.244 79.2251C138.122 79.4998 137.906 79.7224 137.635 79.8534C137.364 79.9843 137.055 80.0151 136.763 79.9402L135.119 79.6134C134.778 79.5673 134.467 79.39 134.255 79.1192C134.042 78.8485 133.944 78.5057 133.981 78.1639L134.263 76.7106C134.344 76.2882 134.528 75.8921 134.799 75.5572L136.539 72.8735Z" fill="#CE7A63"/>
<path d="M138.109 37.8095C141.681 43.0307 142.665 46.6524 142.665 46.6524C142.665 46.6524 137.904 52.0966 133.545 50.5856C133.545 50.5856 130.845 45.8489 130.764 41.785C130.683 38.0402 135.644 34.2377 138.109 37.8095Z" fill="#7E57C2"/>
<path opacity="0.1" d="M138.109 37.8095C141.681 43.0307 142.665 46.6524 142.665 46.6524C142.665 46.6524 137.904 52.0966 133.545 50.5856C133.545 50.5856 130.845 45.8489 130.764 41.785C130.683 38.0402 135.644 34.2377 138.109 37.8095Z" fill="white"/>
<path d="M68.4991 39.5163C68.3178 41.0542 68.0748 42.6152 67.8086 44.1531C67.6774 44.922 67.5424 45.691 67.3919 46.4599C67.2415 47.2289 67.1065 47.9978 66.9406 48.7668L65.9916 53.3805C65.859 53.998 65.7803 54.6257 65.7562 55.2568C65.7445 55.8822 65.7884 56.5075 65.8874 57.1253L65.8411 56.9062C66.0649 57.9314 66.2732 58.9503 66.4661 59.9628C66.659 60.9855 66.8287 62.0159 67.0023 63.0386L67.2299 64.5765L67.4344 66.1144C67.5501 67.1563 67.6658 68.1982 67.716 69.2594C67.7292 69.5789 67.6319 69.8933 67.4404 70.1498C67.2488 70.4064 66.9747 70.5896 66.6639 70.6689C66.353 70.7481 66.0243 70.7186 65.7326 70.5852C65.441 70.4518 65.2042 70.2227 65.0618 69.9361C64.595 68.9864 64.19 68.0137 63.7888 67.0448L63.2139 65.5838L62.6661 64.1151C62.3189 63.1308 61.9717 62.1504 61.6477 61.1585C61.3236 60.1665 61.0111 59.1784 60.7141 58.1826V58.1173L60.6832 57.9596C60.5132 57.0362 60.4254 56.0995 60.4209 55.1606C60.4287 54.2256 60.5177 53.2929 60.6871 52.3732C60.8375 51.5196 60.9803 50.816 61.1037 50.0663L61.4895 47.7595C61.613 46.9905 61.7634 46.2216 61.9062 45.4526C62.0489 44.6836 62.1955 43.9147 62.3537 43.1457C62.6661 41.6078 62.9979 40.0699 63.3991 38.5589C63.5638 37.9204 63.9659 37.3681 64.5239 37.0139C65.0818 36.6597 65.754 36.53 66.4043 36.6512C67.0546 36.7725 67.6343 37.1354 68.0262 37.6667C68.418 38.1979 68.5926 38.8577 68.5146 39.5124L68.4991 39.5163Z" fill="#FFB573"/>
<path d="M66.7174 35.8371C66.7174 35.8371 64.0864 35.395 62.5626 38.2593C61.4399 40.3624 60.0164 48.0827 60.2749 48.1327C60.5334 48.1826 67.6317 49.6706 67.6317 49.6706C67.6317 49.6706 72.1685 35.7833 66.7174 35.8371Z" fill="#7E57C2"/>
<path opacity="0.1" d="M66.7174 35.8371C66.7174 35.8371 64.0864 35.395 62.5626 38.2593C61.4399 40.3624 60.0164 48.0827 60.2749 48.1327C60.5334 48.1826 67.6317 49.6706 67.6317 49.6706C67.6317 49.6706 72.1685 35.7833 66.7174 35.8371Z" fill="black"/>
<path d="M69.02 31.1427C67.392 29.9893 65.899 28.5628 65.1622 26.7174C64.4253 24.8719 64.6298 22.5804 66.0186 21.1617C66.1305 21.0463 66.2809 20.931 66.4314 20.9848C66.5819 21.0386 66.6127 21.154 66.659 21.2732C67.9244 24.4797 67.5116 28.0669 69.02 31.1427Z" fill="#263238"/>
<path d="M69.2058 28.6514C69.4681 30.9582 69.5067 34.803 67.7745 36.1948C67.7745 36.1948 67.6704 38.5401 73.947 41.5967C76.5703 38.4363 74.9269 36.7792 74.9269 36.7792C72.4039 35.9603 72.6932 34.4954 73.2835 32.7499L69.2058 28.6514Z" fill="#FFB573"/>
<path d="M75.3317 36.1679C76.2982 36.2163 77.2383 36.4987 78.0707 36.9906C79.8955 38.0979 80.6014 39.8434 80.6014 42.8962C80.6014 46.9678 80.8252 45.1531 80.6014 47.3407L80.4394 64.127L64.7459 63.2927C64.7459 63.2927 64.3215 56.6297 64.2174 52.7926C64.0399 46.3334 61.6558 43.296 62.8787 38.4478C63.2375 37.0175 65.1548 35.6719 67.6161 35.6719L75.3317 36.1679Z" fill="#7E57C2"/>
<path d="M67.0176 35.6718L67.087 35.1988C67.1119 35.0375 67.1985 34.8921 67.3288 34.7932C67.459 34.6942 67.6226 34.6495 67.7853 34.6683L73.0975 35.2873L74.6792 36.1639C74.6792 36.1639 70.0305 36.7444 67.0176 35.6718Z" fill="#7E57C2"/>
<path opacity="0.2" d="M67.0176 35.6718L67.087 35.1988C67.1119 35.0375 67.1985 34.8921 67.3288 34.7932C67.459 34.6942 67.6226 34.6495 67.7853 34.6683L73.0975 35.2873L74.6792 36.1639C74.6792 36.1639 70.0305 36.7444 67.0176 35.6718Z" fill="white"/>
<path d="M56.8145 133.806L60.1206 135.017L68.5113 116.485L63.2878 114.574L56.8145 133.806Z" fill="#FFB573"/>
<path opacity="0.2" d="M68.5108 116.485L61.4317 132.118L57.7822 130.918L63.2873 114.574L68.5108 116.485Z" fill="black"/>
<path d="M61.4819 135.463C61.9063 135.617 62.3422 135.701 62.5389 135.559C62.5912 135.519 62.6298 135.464 62.6491 135.401C62.6685 135.339 62.6677 135.271 62.647 135.209C62.6215 135.095 62.5522 134.996 62.4541 134.932C61.9487 134.582 60.5676 134.836 60.5252 134.848C60.5088 134.852 60.4939 134.861 60.4822 134.873C60.4706 134.885 60.4628 134.9 60.4596 134.917C60.4576 134.934 60.4605 134.952 60.468 134.967C60.4755 134.983 60.4873 134.996 60.502 135.005C60.8156 135.184 61.1433 135.337 61.4819 135.463ZM62.2187 134.998C62.2702 135.017 62.3193 135.041 62.3653 135.071C62.3949 135.089 62.4205 135.113 62.4404 135.141C62.4603 135.17 62.4741 135.202 62.4811 135.236C62.5081 135.355 62.4811 135.398 62.4425 135.421C62.2187 135.582 61.3739 135.286 60.7798 134.978C61.2561 134.891 61.745 134.897 62.2187 134.998Z" fill="#7E57C2"/>
<path d="M60.5018 135.009H60.5365C60.9956 134.967 62.0256 134.525 62.0796 134.121C62.0796 134.029 62.0796 133.894 61.8558 133.794C61.7812 133.758 61.6998 133.737 61.6168 133.734C61.5337 133.731 61.4509 133.745 61.3736 133.775C60.8374 133.975 60.4593 134.851 60.4439 134.886C60.4371 134.899 60.4336 134.914 60.4336 134.928C60.4336 134.943 60.4371 134.958 60.4439 134.971C60.4501 134.981 60.4585 134.99 60.4685 134.996C60.4785 135.003 60.4899 135.007 60.5018 135.009ZM61.7517 133.936L61.798 133.956C61.9369 134.021 61.9253 134.082 61.9214 134.102C61.8867 134.34 61.1499 134.721 60.6715 134.825C60.829 134.457 61.0991 134.149 61.4431 133.944C61.5414 133.903 61.6514 133.901 61.7517 133.936Z" fill="#7E57C2"/>
<path d="M60.2976 134.417L56.6559 133.117C56.5907 133.094 56.5196 133.095 56.4548 133.119C56.39 133.143 56.3356 133.188 56.3009 133.248L54.6884 136.005C54.6495 136.073 54.6261 136.149 54.6199 136.227C54.6136 136.305 54.6247 136.383 54.6523 136.457C54.6799 136.53 54.7234 136.596 54.7796 136.651C54.8358 136.706 54.9035 136.748 54.9777 136.774C56.2971 137.22 58.2183 137.815 59.8694 138.404C61.7983 139.092 60.6757 138.811 62.9556 139.615C64.3252 140.103 65.1507 138.846 64.6184 138.511C62.1918 137.008 62.8399 137.17 61.0345 134.963C60.8447 134.716 60.5895 134.527 60.2976 134.417Z" fill="#263238"/>
<path d="M76.5004 63.2925L76.0221 89.1178C75.9179 100.433 72.4112 111.198 67.5851 121.441L63.0213 131.137L57.0957 129.184L64.5104 102.271L65.1122 79.675C63.6462 76.3993 63.1833 72.9313 63.6578 70.2284C63.9356 68.6213 64.2365 67.0142 64.4525 65.3994L64.7341 63.2925H76.5004Z" fill="#263238"/>
<path opacity="0.2" d="M76.5004 63.2925L76.0221 89.1178C75.9179 100.433 72.4112 111.198 67.5851 121.441L63.0213 131.137L57.0957 129.184L64.5104 102.271L65.1122 79.675C63.6462 76.3993 63.1833 72.9313 63.6578 70.2284C63.9356 68.6213 64.2365 67.0142 64.4525 65.3994L64.7341 63.2925H76.5004Z" fill="black"/>
<path d="M56.4712 129.184L63.4615 131.806C63.5207 131.828 63.586 131.828 63.6451 131.805C63.7041 131.783 63.7527 131.739 63.7817 131.683L65.0895 129.253C65.1099 129.219 65.1221 129.18 65.1252 129.14C65.1283 129.101 65.1221 129.06 65.1072 129.023C65.0923 128.986 65.069 128.953 65.0392 128.926C65.0094 128.899 64.9738 128.88 64.9352 128.869L56.9766 126.408C56.9405 126.397 56.9025 126.394 56.8652 126.399C56.8278 126.404 56.792 126.417 56.7602 126.437C56.7283 126.457 56.7012 126.484 56.6806 126.516C56.66 126.547 56.6465 126.583 56.6409 126.62L56.3053 128.892C56.2925 128.952 56.3023 129.016 56.3328 129.069C56.3634 129.123 56.4126 129.164 56.4712 129.184Z" fill="#263238"/>
<path d="M76.921 137.174H80.744L82.3412 115.17H76.3037L76.921 137.174Z" fill="#FFB573"/>
<path opacity="0.2" d="M82.3412 115.17L80.9909 133.779H76.8284L76.3037 115.17H82.3412Z" fill="black"/>
<path d="M82.0709 136.804C82.5145 136.804 82.9427 136.743 83.0855 136.543C83.1223 136.491 83.1421 136.428 83.1421 136.364C83.1421 136.3 83.1223 136.238 83.0855 136.185C83.0584 136.137 83.0214 136.096 82.9768 136.063C82.9322 136.031 82.8811 136.008 82.827 135.997C82.2522 135.839 81.0408 136.528 80.9907 136.555C80.9759 136.563 80.9641 136.575 80.9571 136.59C80.9501 136.606 80.9484 136.623 80.9521 136.639C80.9543 136.656 80.9618 136.672 80.9736 136.684C80.9853 136.697 81.0008 136.705 81.0177 136.708C81.3653 136.77 81.7177 136.802 82.0709 136.804ZM82.6187 136.135C82.6721 136.134 82.7254 136.14 82.7768 136.155C82.8094 136.162 82.8402 136.175 82.8673 136.194C82.8945 136.214 82.9175 136.238 82.935 136.266C82.9929 136.37 82.9736 136.42 82.9543 136.447C82.7923 136.67 81.9165 136.678 81.2723 136.585C81.6878 136.35 82.145 136.198 82.6187 136.135Z" fill="#7E57C2"/>
<path d="M81.0136 136.709H81.0444C81.4649 136.524 82.2905 135.778 82.2288 135.386C82.2288 135.294 82.1477 135.182 81.924 135.159C81.8426 135.15 81.7603 135.157 81.682 135.181C81.6037 135.205 81.5311 135.245 81.4688 135.297C81.029 135.659 80.9364 136.589 80.9325 136.628C80.9308 136.639 80.9316 136.651 80.9349 136.662C80.9383 136.673 80.944 136.683 80.9518 136.691C80.9596 136.7 80.9692 136.706 80.9799 136.711C80.9905 136.715 81.002 136.717 81.0136 136.716V136.709ZM81.8545 135.313H81.9047C82.0513 135.313 82.0629 135.386 82.0667 135.405C82.1014 135.64 81.5421 136.224 81.1139 136.482C81.1533 136.088 81.3136 135.716 81.5729 135.417C81.6547 135.348 81.759 135.311 81.8661 135.313H81.8545Z" fill="#7E57C2"/>
<path d="M80.5477 136.228H76.9638C76.8971 136.229 76.8328 136.253 76.7816 136.296C76.7304 136.339 76.6954 136.397 76.6822 136.463L76.0341 139.538C76.0168 139.611 76.016 139.686 76.0316 139.759C76.0473 139.831 76.079 139.9 76.1244 139.959C76.1699 140.017 76.2279 140.066 76.2944 140.099C76.3609 140.133 76.434 140.152 76.5086 140.154C77.801 140.13 79.6681 140.05 81.2923 140.05C83.1942 140.05 84.8337 140.157 87.079 140.157C88.4253 140.157 88.7996 138.727 88.2363 138.596C85.667 138.008 83.5722 137.947 81.354 136.509C81.1191 136.337 80.8385 136.24 80.5477 136.228Z" fill="#263238"/>
<path d="M67.1262 63.3003H64.7536C64.3679 72.9122 68.0829 77.9104 68.3221 78.3987L69.3251 80.4249C70.332 82.4511 74.3403 102.459 74.3403 102.459C73.5224 109.118 74.8688 115.989 75.297 122.683L75.9798 132.625H82.2063L84.2162 108.292C84.6212 104.817 84.6523 101.308 84.3088 97.8263C80.6246 64.1346 80.451 63.3003 80.451 63.3003H67.1262Z" fill="#263238"/>
<path d="M75.4741 133.125L82.9389 132.925C83.0025 132.923 83.0631 132.898 83.1098 132.855C83.1565 132.812 83.1862 132.754 83.1936 132.691L83.479 129.949C83.4831 129.911 83.4787 129.873 83.4661 129.836C83.4535 129.8 83.4331 129.767 83.4062 129.739C83.3793 129.712 83.3466 129.69 83.3106 129.677C83.2745 129.663 83.2358 129.658 83.1974 129.661L74.8916 130.376C74.8542 130.38 74.8182 130.392 74.7858 130.411C74.7534 130.43 74.7255 130.455 74.7039 130.486C74.6823 130.517 74.6676 130.551 74.6607 130.588C74.6538 130.625 74.6549 130.663 74.664 130.699L75.2156 132.929C75.2291 132.987 75.2622 133.038 75.3094 133.073C75.3566 133.109 75.4148 133.128 75.4741 133.125Z" fill="#263238"/>
<path opacity="0.2" d="M70.8679 30.3008L73.2751 32.7461C73.1289 33.1505 73.0204 33.5675 72.9511 33.9918C71.9751 33.7726 70.5014 32.8153 70.3779 31.7349C70.4209 31.2241 70.5892 30.7316 70.8679 30.3008Z" fill="black"/>
<path d="M76.126 21.8346C76.0907 21.2878 75.9386 20.7548 75.6798 20.2715C75.4209 19.7881 75.0614 19.3654 74.6254 19.0317C74.7136 19.4766 74.6412 19.9383 74.4209 20.3351L76.126 21.8346Z" fill="#263238"/>
<path d="M66.9682 25.3216C67.6549 28.9665 67.871 30.5198 69.9696 32.1692C73.1253 34.6567 77.4692 33.015 77.8897 29.2395C78.2754 25.8368 77.0718 20.4273 73.2603 19.4391C72.4249 19.2119 71.545 19.2016 70.7044 19.4092C69.8639 19.6167 69.0906 20.0353 68.4583 20.625C67.826 21.2147 67.3557 21.9559 67.0922 22.778C66.8286 23.6001 66.7807 24.4758 66.9528 25.3216H66.9682Z" fill="#FFB573"/>
<path d="M73.3326 25.5445C73.375 25.8444 73.5641 26.0674 73.757 26.0443C73.9499 26.0212 74.0849 25.756 74.0502 25.4561C74.0154 25.1562 73.8187 24.937 73.6258 24.9563C73.4329 24.9755 73.2979 25.26 73.3326 25.5445Z" fill="#263238"/>
<path d="M76.7242 25.1295C76.7666 25.4333 76.9557 25.6486 77.1486 25.6294C77.3414 25.6101 77.4765 25.3372 77.4418 25.0411C77.407 24.7451 77.2103 24.5182 77.0174 24.5451C76.8245 24.5721 76.6895 24.8297 76.7242 25.1295Z" fill="#263238"/>
<path d="M75.7979 25.0332C76.3509 25.8847 77.0224 26.6536 77.7923 27.317C77.6119 27.5173 77.3913 27.6776 77.1447 27.7876C76.8982 27.8975 76.6312 27.9546 76.3611 27.9552L75.7979 25.0332Z" fill="#ED893E"/>
<path d="M71.8515 24.3915C71.8854 24.4082 71.9239 24.4131 71.961 24.4054C71.998 24.3977 72.0314 24.378 72.0559 24.3492C72.2742 24.1597 72.5294 24.0171 72.8056 23.9304C73.0817 23.8437 73.3729 23.8149 73.6608 23.8456C73.7063 23.8502 73.752 23.837 73.788 23.8089C73.8241 23.7808 73.8479 23.7398 73.8544 23.6946C73.8609 23.6494 73.8495 23.6035 73.8228 23.5664C73.7961 23.5293 73.756 23.504 73.7109 23.4957C73.3633 23.4534 73.0106 23.4873 72.6775 23.5948C72.3443 23.7024 72.0387 23.8811 71.782 24.1185C71.7657 24.1346 71.7527 24.1538 71.7439 24.1749C71.735 24.196 71.7305 24.2187 71.7305 24.2416C71.7305 24.2645 71.735 24.2871 71.7439 24.3082C71.7527 24.3293 71.7657 24.3485 71.782 24.3646C71.7911 24.3736 71.8019 24.3807 71.8139 24.3853C71.8259 24.39 71.8386 24.3921 71.8515 24.3915Z" fill="#263238"/>
<path d="M77.384 23.2644C77.4151 23.2584 77.4441 23.2442 77.4678 23.2232C77.4916 23.2023 77.5093 23.1753 77.519 23.1453C77.5338 23.1004 77.5304 23.0515 77.5095 23.0091C77.4886 22.9667 77.4519 22.9341 77.4071 22.9184C77.1398 22.8184 76.8518 22.7854 76.5686 22.8223C76.2854 22.8591 76.0157 22.9648 75.783 23.1299C75.7467 23.1568 75.7223 23.1967 75.7151 23.2412C75.7079 23.2858 75.7184 23.3313 75.7444 23.3682C75.7739 23.404 75.8162 23.4269 75.8624 23.4319C75.9085 23.437 75.9548 23.4238 75.9913 23.3952C76.1775 23.2721 76.3903 23.1948 76.6122 23.1694C76.8341 23.144 77.059 23.1713 77.2683 23.2491C77.3035 23.2687 77.3449 23.2742 77.384 23.2644Z" fill="#263238"/>
<path d="M70.2971 22.123C69.9834 23.4172 69.7807 24.7356 69.6914 26.0639C69.2555 26.2023 69.5024 26.1716 69.0703 26.31C69.155 27.0257 69.4205 27.7083 69.8419 28.2939C69.4297 28.492 68.9761 28.5895 68.5187 28.5784C68.3964 28.1685 68.1483 27.8071 67.8092 27.545C67.4701 27.283 67.0571 27.1334 66.6284 27.1174C66.0839 25.6861 65.9308 24.1363 66.1847 22.6267C67.5635 22.5319 68.9363 22.3638 70.2971 22.123Z" fill="#263238"/>
<path d="M74.8417 18.9317C75.1068 19.4182 75.1926 19.9819 75.0841 20.5248C74.9755 21.0678 74.6796 21.5556 74.2476 21.9037C74.2476 21.5193 74.2476 21.1348 74.2476 20.7503C73.8089 21.4174 73.2551 22.0019 72.6119 22.4766C72.6544 22.0921 72.7045 21.8153 72.747 21.45C72.222 22.0722 71.5626 22.5677 70.8181 22.8995C71.1048 22.5008 71.2998 22.044 71.389 21.5615C70.7348 22.3338 69.8946 22.9278 68.947 23.2878C69.1425 23.0326 69.2555 22.7242 69.2711 22.4035C68.4725 22.6227 67.6701 22.8303 66.8638 23.0187C66.615 23.1113 66.3411 23.1113 66.0922 23.0187C65.7065 22.8111 65.7065 22.2498 65.8415 21.8653C66.1026 21.0405 66.6137 20.3167 67.3046 19.7934C67.9954 19.2702 68.8321 18.9731 69.6993 18.9433C70.3019 18.9478 70.9021 18.8662 71.4816 18.701C72.0653 18.4902 72.6755 18.3608 73.2948 18.3166C73.8927 18.255 74.5138 18.3973 74.8417 18.9317Z" fill="#263238"/>
<path d="M66.3193 28.2704C66.4756 28.5835 66.6924 28.8629 66.9571 29.0925C67.2219 29.3221 67.5295 29.4974 67.8624 29.6083C68.7535 29.8929 69.2435 29.1085 69.0197 28.2435C68.8191 27.4745 68.1208 26.3826 67.2104 26.4556C67.0093 26.4776 66.8171 26.55 66.6516 26.6659C66.4861 26.7818 66.3527 26.9375 66.2637 27.1186C66.1748 27.2997 66.1333 27.5002 66.143 27.7016C66.1527 27.903 66.2133 28.0986 66.3193 28.2704Z" fill="#FFB573"/>
<path d="M92.7767 49.1668L95.0914 47.6289L96.0365 46.8176C96.0365 46.8176 93.8299 44.2224 93.5483 44.0532C93.5483 44.0532 91.9087 45.0029 91.3454 46.4831L90.9365 47.898L92.7767 49.1668Z" fill="#FFB573"/>
<path d="M95.2419 47.4599L93.4287 44.165L94.0768 43.7805C94.1348 43.7343 94.2021 43.701 94.274 43.6829C94.346 43.6647 94.4211 43.6621 94.4941 43.6752C94.5672 43.6883 94.6366 43.7168 94.6977 43.7589C94.7588 43.8009 94.8102 43.8555 94.8484 43.9189L96.2642 45.3415C96.4918 45.7259 96.65 46.2373 96.3684 46.5602L95.2419 47.4599Z" fill="#FFB573"/>
<path opacity="0.1" d="M73.4717 40.8506C73.4717 40.8506 73.626 51.962 75.2733 51.9504C76.9206 51.9389 79.7445 49.8704 79.3047 47.1176C78.8649 44.3647 73.4717 40.8506 73.4717 40.8506Z" fill="black"/>
<path d="M80.0375 39.2974C80.3693 40.3393 80.6663 41.3928 80.9556 42.4462C81.245 43.4997 81.5189 44.557 81.7774 45.622C82.0358 46.687 82.2943 47.7482 82.5489 48.8209C82.8035 49.8935 83.0273 50.9586 83.251 52.0312L83.1546 51.7698C83.1123 51.7224 83.0575 51.6877 82.9964 51.6698C82.9468 51.6505 82.8917 51.6505 82.8421 51.6698C82.7993 51.6881 82.7621 51.7173 82.7341 51.7544C82.6955 51.7813 82.6222 51.8275 82.6261 51.8428C82.6299 51.8582 82.6492 51.8659 82.6994 51.8428L82.8691 51.7083C83.7333 51.1854 84.6167 50.6894 85.4886 50.1704C86.3604 49.6513 87.2593 49.1784 88.1389 48.6786C89.0184 48.1788 89.9212 47.7059 90.8393 47.2407C91.7575 46.7754 92.6525 46.3064 93.5745 45.8681C93.7762 45.7733 94.0048 45.7521 94.2205 45.808C94.4363 45.8638 94.6256 45.9934 94.7554 46.174C94.8853 46.3546 94.9474 46.5749 94.9312 46.7965C94.9149 47.0181 94.8211 47.2269 94.6663 47.3868C93.9539 48.1173 93.226 48.8311 92.4827 49.5283C91.7498 50.2319 90.9975 50.9124 90.2491 51.6006C89.5007 52.2888 88.7445 52.9617 87.9768 53.6153C87.2091 54.2689 86.453 54.9533 85.6622 55.5953L85.8319 55.4608C85.5818 55.6985 85.3077 55.9098 85.014 56.0913C84.6656 56.304 84.289 56.467 83.8953 56.5758C83.1518 56.7811 82.37 56.8076 81.6142 56.6532C80.8583 56.4988 80.1501 56.1679 79.5475 55.6876C78.9321 55.1932 78.4408 54.5626 78.1124 53.846L78.0199 53.5807C77.6341 52.5618 77.2136 51.543 76.8317 50.5049C76.4497 49.4668 76.0601 48.4518 75.6975 47.4291C75.3348 46.4063 74.9761 45.3644 74.6289 44.3263C74.2817 43.2882 73.9576 42.2463 73.6567 41.1928C73.4179 40.3526 73.52 39.4525 73.9408 38.6865C74.3617 37.9205 75.0676 37.35 75.9065 37.0979C76.7455 36.8457 77.6502 36.9322 78.4258 37.3385C79.2014 37.7449 79.7858 38.4387 80.0529 39.2705L80.0375 39.2974Z" fill="#FFB573"/>
<path d="M75.8758 37.0061C75.8758 37.0061 73.2178 37.652 73.3952 40.0281C73.5727 42.4041 75.4399 49.9706 75.7099 49.8976C75.98 49.8245 83.0397 47.46 83.0397 47.46C83.0397 47.46 80.7482 34.5724 75.8758 37.0061Z" fill="#7E57C2"/>
<path d="M77.0594 28.8971C77.0594 28.8971 76.1066 28.6241 73.3945 28.5703C73.4905 29.072 73.7677 29.5213 74.1736 29.833C74.5796 30.1448 75.0861 30.2974 75.5973 30.262C75.9535 30.2855 76.3047 30.1691 76.5758 29.9377C76.8469 29.7063 77.0164 29.3783 77.0479 29.024L77.0594 28.8971Z" fill="#263238"/>
<path d="M74.9997 29.5241C75.5359 29.5019 76.0624 29.671 76.4849 30.0008C76.2262 30.1794 75.9159 30.2686 75.6015 30.2546C75.0653 30.2761 74.539 30.1071 74.1162 29.7778C74.3717 29.5926 74.6844 29.5027 74.9997 29.5241Z" fill="#ED893E"/>
<path d="M76.9366 28.8706C76.9069 28.9773 76.8496 29.0743 76.7703 29.1519C76.6911 29.2296 76.5928 29.285 76.4852 29.3127C75.682 29.2897 74.8827 29.1932 74.0972 29.0244C73.9685 29.0053 73.8471 28.9525 73.7455 28.8715C73.6438 28.7904 73.5655 28.684 73.5186 28.563C74.6648 28.5651 75.8085 28.6681 76.9366 28.8706Z" fill="white"/>
</svg>
