<svg width="30" height="42" viewBox="0 0 30 42" fill="none" xmlns="http://www.w3.org/2000/svg">
<mask id="mask0_566_13007" style="mask-type:luminance" maskUnits="userSpaceOnUse" x="7" y="0" width="20" height="30">
<path d="M7.36133 0H26.0035V29.7946H7.36133V0Z" fill="white"/>
</mask>
<g mask="url(#mask0_566_13007)">
<path fill-rule="evenodd" clip-rule="evenodd" d="M18.8573 14.2702C18.5628 14.4444 18.3381 14.6946 18.2146 15.0715C17.575 16.997 16.9228 18.9193 16.2864 20.848C16.1471 21.2692 16.0458 21.7031 15.9951 22.1686C16.0616 22.0609 16.1281 21.9501 16.1946 21.8424C17.5054 19.7364 19.1391 17.9534 21.3364 16.7468C22.2799 16.2274 23.2772 15.8759 24.3822 15.9931C25.731 16.1356 26.2819 17.054 25.7626 18.3081C25.446 19.0682 24.9046 19.6541 24.2745 20.1639C23.1189 21.0918 21.7733 21.6366 20.3802 22.0863C19.4715 22.3776 18.547 22.65 17.6732 23.03C17.1191 23.2675 16.622 23.6602 16.1344 24.0276C15.7577 24.3158 15.6468 24.7338 15.7007 25.2215C15.8843 26.8779 16.4637 28.3727 17.4325 29.7249C17.4927 29.8104 17.5592 29.8896 17.6193 29.9751C17.632 29.9941 17.6257 30.0226 17.6288 30.086C16.8436 30.086 16.0616 30.1018 15.2827 30.0733C15.1624 30.067 15.02 29.8833 14.944 29.7503C13.5255 27.2484 13.3229 24.6357 14.2917 21.9406C14.4722 21.4434 14.3867 21.0412 14.048 20.7276C13.611 20.3191 13.1298 19.9486 12.6264 19.6287C11.952 19.198 11.2238 18.856 10.543 18.4348C9.67236 17.9027 8.8935 17.2503 8.39641 16.3414C8.19378 15.9677 8.03231 15.5465 7.97848 15.1285C7.86134 14.2734 8.35525 13.7097 9.22277 13.754C9.72935 13.7794 10.2613 13.9282 10.7235 14.1467C11.7968 14.6534 12.563 15.5244 13.2311 16.4808C13.9878 17.5607 14.5609 18.7356 14.9788 20.1196C15.6215 18.6406 16.432 17.3517 16.6632 15.8347C16.7645 15.1855 16.6505 14.5616 15.9825 14.1626C15.859 14.0866 15.7133 14.0201 15.5455 13.9599C13.0031 13.0731 11.3726 11.2173 10.4291 8.74393C9.77051 7.02745 9.46973 5.25079 9.86866 3.4203C9.95098 3.0466 10.1125 2.66657 10.3309 2.34987C10.7678 1.71965 11.5594 1.65631 12.047 2.24536C12.3477 2.60323 12.5884 3.06877 12.6897 3.52481C13.1804 5.691 14.2063 7.59116 15.5012 9.36782C15.669 9.60217 15.8431 9.83336 16.0015 10.074C16.6157 11.0178 17.2236 11.9615 17.8885 12.994C17.6162 12.3194 17.423 11.6987 17.1254 11.1318C16.432 9.82386 15.631 8.56975 14.9851 7.23963C14.4595 6.15971 14.0828 5.0101 13.6743 3.87951C13.6015 3.68316 13.6395 3.40763 13.7218 3.20811C14.0923 2.28653 14.6052 1.44729 15.3176 0.750565C16.4257 -0.338864 17.4895 -0.240688 18.3665 1.04192C19.1264 2.15352 19.5222 3.4203 19.8166 4.71875C20.3105 6.87544 20.5005 9.04796 20.0161 11.2331C19.8958 11.7747 19.6805 12.2972 19.4715 12.9465C19.6172 12.7279 19.7153 12.6044 19.7913 12.4714C20.8456 10.6093 21.1116 8.57925 20.9248 6.4954C20.8235 5.3933 20.5353 4.30704 20.3422 3.21128C20.3232 3.10677 20.3422 2.93892 20.4119 2.88192C20.9564 2.41638 21.5517 2.03951 22.2704 1.90333C23.2012 1.72915 23.9199 2.07435 24.1859 2.98009C24.3917 3.68632 24.5025 4.44956 24.4835 5.18429C24.4233 7.43915 23.8408 9.56417 22.5997 11.4738C21.805 12.6963 20.738 13.5989 19.3322 14.0612C19.1612 14.1182 19.0029 14.1847 18.8573 14.2702Z" fill="white"/>
</g>
<mask id="mask1_566_13007" style="mask-type:luminance" maskUnits="userSpaceOnUse" x="8" y="0" width="18" height="15">
<path d="M8.98242 0H25.193V14.6851H8.98242V0Z" fill="white"/>
</mask>
<g mask="url(#mask1_566_13007)">
<mask id="mask2_566_13007" style="mask-type:luminance" maskUnits="userSpaceOnUse" x="7" y="0" width="19" height="31">
<path fill-rule="evenodd" clip-rule="evenodd" d="M18.8578 14.2702C18.5633 14.4444 18.3385 14.6946 18.2151 15.0715C17.5755 16.997 16.9233 18.9193 16.2869 20.848C16.1476 21.2692 16.0463 21.7031 15.9956 22.1686C16.0621 22.0609 16.1286 21.9501 16.1951 21.8424C17.5058 19.7364 19.1396 17.9534 21.3369 16.7468C22.2804 16.2274 23.2777 15.8759 24.3827 15.9931C25.7314 16.1356 26.2824 17.054 25.7631 18.3081C25.4465 19.0682 24.9051 19.6541 24.275 20.1639C23.1194 21.0918 21.7738 21.6366 20.3807 22.0863C19.472 22.3776 18.5475 22.65 17.6737 23.03C17.1196 23.2675 16.6225 23.6602 16.1349 24.0276C15.7581 24.3158 15.6473 24.7338 15.7012 25.2215C15.8848 26.8779 16.4642 28.3727 17.433 29.7249C17.4932 29.8104 17.5597 29.8896 17.6198 29.9751C17.6325 29.9941 17.6262 30.0226 17.6293 30.086C16.8441 30.086 16.0621 30.1018 15.2832 30.0733C15.1629 30.067 15.0204 29.8833 14.9445 29.7503C13.526 27.2484 13.3234 24.6357 14.2922 21.9406C14.4727 21.4434 14.3872 21.0412 14.0484 20.7276C13.6115 20.3191 13.1303 19.9486 12.6268 19.6287C11.9525 19.198 11.2243 18.856 10.5435 18.4348C9.67285 17.9027 8.89398 17.2503 8.3969 16.3414C8.19427 15.9677 8.0328 15.5465 7.97897 15.1285C7.86183 14.2734 8.35574 13.7097 9.22326 13.754C9.72984 13.7794 10.2617 13.9282 10.724 14.1467C11.7973 14.6534 12.5635 15.5244 13.2316 16.4808C13.9883 17.5607 14.5614 18.7356 14.9793 20.1196C15.622 18.6406 16.4325 17.3517 16.6637 15.8347C16.765 15.1855 16.651 14.5616 15.9829 14.1626C15.8595 14.0866 15.7138 14.0201 15.546 13.9599C13.0036 13.0731 11.3731 11.2173 10.4296 8.74393C9.771 7.02745 9.47022 5.25079 9.86915 3.4203C9.95147 3.0466 10.1129 2.66657 10.3314 2.34987C10.7683 1.71965 11.5599 1.65631 12.0474 2.24536C12.3482 2.60323 12.5889 3.06877 12.6902 3.52481C13.1809 5.691 14.2067 7.59116 15.5017 9.36782C15.6695 9.60217 15.8436 9.83336 16.0019 10.074C16.6162 11.0178 17.2241 11.9615 17.889 12.994C17.6167 12.3194 17.4235 11.6987 17.1259 11.1318C16.4325 9.82386 15.6315 8.56975 14.9856 7.23963C14.46 6.15971 14.0833 5.0101 13.6748 3.87951C13.602 3.68316 13.64 3.40763 13.7223 3.20811C14.0928 2.28653 14.6057 1.44729 15.3181 0.750565C16.4262 -0.338864 17.49 -0.240688 18.367 1.04192C19.1269 2.15352 19.5227 3.4203 19.8171 4.71875C20.311 6.87544 20.501 9.04796 20.0166 11.2331C19.8963 11.7747 19.681 12.2972 19.472 12.9465C19.6177 12.7279 19.7158 12.6044 19.7918 12.4714C20.8461 10.6093 21.1121 8.57925 20.9253 6.4954C20.8239 5.3933 20.5358 4.30704 20.3427 3.21128C20.3237 3.10677 20.3427 2.93892 20.4124 2.88192C20.9569 2.41638 21.5522 2.03951 22.2709 1.90333C23.2017 1.72915 23.9204 2.07435 24.1864 2.98009C24.3922 3.68632 24.503 4.44956 24.484 5.18429C24.4238 7.43915 23.8413 9.56417 22.6001 11.4738C21.8054 12.6963 20.7385 13.5989 19.3327 14.0612C19.1617 14.1182 19.0034 14.1847 18.8578 14.2702Z" fill="white"/>
</mask>
<g mask="url(#mask2_566_13007)">
<path fill-rule="evenodd" clip-rule="evenodd" d="M15.9827 14.1626C15.8592 14.0866 15.7136 14.0201 15.5458 13.9599C13.0034 13.0731 11.3728 11.2173 10.4293 8.74393C9.77077 7.02745 9.46999 5.25079 9.86892 3.4203C9.95124 3.0466 10.1127 2.66657 10.3312 2.34987C10.7681 1.71965 11.5596 1.65631 12.0472 2.24536C12.348 2.60323 12.5886 3.06877 12.6899 3.52481C13.1807 5.691 14.2065 7.59116 15.5015 9.36782C15.6693 9.60217 15.8434 9.83336 16.0017 10.074C16.6159 11.0178 17.2238 11.9615 17.8887 12.994C17.6164 12.3194 17.4233 11.6987 17.1257 11.1318C16.4323 9.82386 15.6313 8.56975 14.9854 7.23963C14.4598 6.15971 14.083 5.0101 13.6746 3.87951C13.6018 3.68316 13.6398 3.40763 13.7221 3.20811C14.0925 2.28653 14.6055 1.44729 15.3178 0.750565C16.426 -0.338864 17.4898 -0.240688 18.3668 1.04192C19.1267 2.15352 19.5224 3.4203 19.8169 4.71875C20.3108 6.87543 20.5008 9.04796 20.0164 11.2331C19.896 11.7747 19.6808 12.2972 19.4718 12.9465C19.6174 12.7279 19.7156 12.6044 19.7916 12.4714C20.8459 10.6093 21.1118 8.57925 20.925 6.4954C20.8237 5.3933 20.5356 4.30704 20.3425 3.21128C20.3235 3.10677 20.3425 2.93892 20.4121 2.88192C20.9567 2.41638 21.5519 2.03951 22.2706 1.90333C23.2015 1.72915 23.9202 2.07435 24.1862 2.98009C24.3919 3.68632 24.5028 4.44956 24.4838 5.18429C24.4236 7.43915 23.841 9.56417 22.5999 11.4738C21.8052 12.6963 20.7382 13.5989 19.3325 14.0612C19.1615 14.1182 19.0032 14.1847 18.8576 14.2702C17.8792 14.4413 16.9326 14.3874 15.9827 14.1626Z" fill="white"/>
</g>
</g>
<mask id="mask3_566_13007" style="mask-type:luminance" maskUnits="userSpaceOnUse" x="0" y="25" width="30" height="17">
<path d="M0 25.5825H29.179V42H0V25.5825Z" fill="white"/>
</mask>
<g mask="url(#mask3_566_13007)">
<path d="M15.7546 35.3969L29.4735 30.3425L14.7383 25.5952L0 31.0329V36.3723L14.7383 41.791L29.4735 36.3597V35.2639L15.7546 40.3152V39.4316L29.4735 34.3803V33.2909L15.7546 38.3327V37.4491L29.4735 32.3851V31.3084L15.7546 36.3597V35.3969Z" fill="white"/>
</g>
</svg>
