<svg width="144" height="143" viewBox="0 0 144 143" fill="none" xmlns="http://www.w3.org/2000/svg">
<path d="M134.315 18.7656L133.496 17.4197C126.588 6.09054 114.1 -0.76182 100.932 0.0676933C99.2359 0.173696 97.5505 0.404567 95.889 0.758417C83.9061 3.31151 73.5005 12.3329 69.1834 23.888C66.6443 30.6855 65.9448 38.5094 61.116 43.8996C54.846 50.9198 44.1974 51.1425 34.8346 50.852C25.4717 50.5615 14.8199 50.8068 8.57905 57.8561C4.67003 62.2683 3.42964 68.5462 3.74379 74.4593C4.57935 90.1103 15.5194 104.102 29.4358 111.058C43.3521 118.014 59.7363 118.637 74.9676 115.577C96.3036 111.294 116.59 99.5222 128.79 81.3407C140.99 63.1592 144.073 38.3899 134.315 18.7656Z" fill="#F5F5F5"/>
<path d="M99.4902 142.027H53.0872C47.4811 142.002 42.743 137.238 42.7657 131.65L43.2612 15.1829C43.2766 12.5009 44.3598 9.93469 46.2727 8.04822C48.1856 6.16174 50.7718 5.10931 53.4629 5.12219L100.073 5.31908C102.766 5.33103 105.344 6.4085 107.24 8.31452C109.136 10.2205 110.195 12.7991 110.184 15.483L109.689 131.951C109.683 133.28 109.416 134.595 108.9 135.821C108.385 137.047 107.632 138.16 106.685 139.096C105.738 140.031 104.615 140.772 103.38 141.275C102.146 141.778 100.824 142.034 99.4902 142.027Z" fill="#263238"/>
<path d="M100.012 10.2124L90.9731 10.1704C90.3809 10.1815 89.8171 10.425 89.4041 10.8481C88.9911 11.2711 88.7624 11.8396 88.7676 12.4298V14.063C88.7745 14.6532 88.5468 15.2221 88.1341 15.6455C87.7215 16.0688 87.1575 16.3122 86.5653 16.3224L68.9472 16.2417C68.3522 16.2256 67.7879 15.975 67.378 15.5448C66.9682 15.1145 66.7463 14.5399 66.7611 13.9468V12.3136C66.7717 11.7214 66.5485 11.1488 66.1397 10.719C65.7308 10.2892 65.169 10.0366 64.5751 10.0155H61.3948L53.486 9.98C52.5504 9.97788 51.6234 10.1594 50.7582 10.5143C49.8929 10.8692 49.1063 11.3905 48.4432 12.0484C47.7801 12.7063 47.2535 13.4879 46.8934 14.3486C46.5334 15.2093 46.347 16.1323 46.3449 17.0648L45.8623 130.747C45.858 132.625 46.6005 134.429 47.9274 135.762C49.2543 137.096 51.0574 137.852 52.9419 137.864L99.4615 138.077C101.35 138.082 103.163 137.34 104.503 136.013C105.843 134.686 106.599 132.884 106.606 131.002L107.088 17.3197C107.09 15.4437 106.347 13.6432 105.021 12.3115C103.695 10.9798 101.894 10.2252 100.012 10.2124Z" fill="#E0E0E0"/>
<path d="M100.012 10.2124L90.9729 10.1704C90.3808 10.1815 89.8169 10.425 89.4039 10.8481C88.991 11.2711 88.7622 11.8396 88.7674 12.4298V14.063C88.7744 14.6532 88.5466 15.2221 88.134 15.6455C87.7213 16.0688 87.1573 16.3122 86.5652 16.3224L68.9471 16.2417C68.3521 16.2256 67.7877 15.975 67.3779 15.5448C66.9681 15.1145 66.7462 14.5399 66.761 13.9468V12.3136C66.7716 11.7214 66.5484 11.1488 66.1395 10.719C65.7307 10.2892 65.1688 10.0366 64.5749 10.0155H61.3946L53.4859 9.98C52.5502 9.97788 51.6233 10.1594 50.7581 10.5143C49.8928 10.8692 49.1062 11.3905 48.443 12.0484C47.7799 12.7063 47.2533 13.4879 46.8933 14.3486C46.5333 15.2093 46.3469 16.1323 46.3447 17.0648L46.2832 31.6797H107.027L107.088 17.3391C107.095 15.4597 106.354 13.6543 105.028 12.3184C103.701 10.9825 101.898 10.2252 100.012 10.2124Z" fill="#C53F3F"/>
<path d="M50.8852 26.7474C50.862 26.7472 50.8391 26.7422 50.8179 26.7328C50.7968 26.7234 50.7778 26.7097 50.7622 26.6926L49.525 25.2272C49.4988 25.1972 49.4844 25.1588 49.4844 25.1191C49.4844 25.0793 49.4988 25.0409 49.525 25.0109L50.7589 23.7425C50.7738 23.7272 50.7916 23.715 50.8112 23.7066C50.8308 23.6982 50.8519 23.6937 50.8732 23.6934C50.8946 23.6931 50.9158 23.697 50.9356 23.7048C50.9555 23.7127 50.9736 23.7244 50.9889 23.7392C51.0042 23.7541 51.0164 23.7718 51.0249 23.7913C51.0333 23.8108 51.0378 23.8319 51.0381 23.8531C51.0384 23.8744 51.0345 23.8955 51.0266 23.9153C51.0187 23.9351 51.007 23.9531 50.9921 23.9684L49.8748 25.1336L51.018 26.4828C51.045 26.5163 51.0578 26.5591 51.0536 26.6019C51.0493 26.6448 51.0284 26.6843 50.9953 26.7119C50.964 26.7363 50.925 26.7489 50.8852 26.7474Z" fill="white"/>
<path d="M52.5108 25.311H49.7029C49.66 25.311 49.6188 25.294 49.5884 25.2638C49.5581 25.2335 49.541 25.1925 49.541 25.1497C49.541 25.1069 49.5581 25.0658 49.5884 25.0355C49.6188 25.0053 49.66 24.9883 49.7029 24.9883H52.5108C52.5538 24.9883 52.595 25.0053 52.6253 25.0355C52.6557 25.0658 52.6728 25.1069 52.6728 25.1497C52.6728 25.1925 52.6557 25.2335 52.6253 25.2638C52.595 25.294 52.5538 25.311 52.5108 25.311Z" fill="white"/>
<path d="M81.9371 25.2274C81.9371 25.2726 77.4483 25.3113 71.9168 25.3113C66.3852 25.3113 61.8965 25.2726 61.8965 25.2274C61.8965 25.1822 66.3917 25.1338 71.8973 25.1338C77.403 25.1338 81.9371 25.1822 81.9371 25.2274Z" fill="white"/>
<path d="M76.4893 27.3671C76.4893 27.4123 73.2183 27.451 69.1895 27.451C65.1607 27.451 61.8896 27.4123 61.8896 27.3671C61.8896 27.3219 65.1574 27.2832 69.1895 27.2832C73.2216 27.2832 76.4893 27.3219 76.4893 27.3671Z" fill="white"/>
<path d="M100.692 23.8715C100.692 23.952 100.668 24.0306 100.623 24.0975C100.579 24.1644 100.515 24.2165 100.44 24.2473C100.366 24.278 100.284 24.2861 100.204 24.2704C100.125 24.2547 100.053 24.216 99.9955 24.1591C99.9384 24.1022 99.8996 24.0298 99.8838 23.9509C99.8681 23.872 99.8761 23.7902 99.907 23.7159C99.9379 23.6416 99.9902 23.5781 100.057 23.5334C100.124 23.4887 100.203 23.4648 100.284 23.4648C100.392 23.4648 100.496 23.5077 100.573 23.584C100.649 23.6602 100.692 23.7637 100.692 23.8715Z" fill="white"/>
<path d="M100.692 25.2275C100.692 25.3079 100.668 25.3866 100.623 25.4534C100.579 25.5203 100.515 25.5724 100.44 25.6032C100.366 25.634 100.284 25.6421 100.204 25.6264C100.125 25.6107 100.053 25.5719 99.9955 25.5151C99.9384 25.4582 99.8996 25.3857 99.8838 25.3068C99.8681 25.2279 99.8761 25.1462 99.907 25.0719C99.9379 24.9975 99.9902 24.934 100.057 24.8893C100.124 24.8447 100.203 24.8208 100.284 24.8208C100.392 24.8208 100.496 24.8636 100.573 24.9399C100.649 25.0162 100.692 25.1196 100.692 25.2275Z" fill="white"/>
<path d="M100.284 26.9896C100.509 26.9896 100.692 26.8076 100.692 26.583C100.692 26.3583 100.509 26.1763 100.284 26.1763C100.059 26.1763 99.876 26.3583 99.876 26.583C99.876 26.8076 100.059 26.9896 100.284 26.9896Z" fill="white"/>
<path d="M106.757 31.6699H46.1562V91.2335H106.757V31.6699Z" fill="white"/>
<g opacity="0.3">
<path d="M89.3408 112.652V112.459C89.3408 112.33 89.3408 112.136 89.3149 111.888C89.2341 110.628 88.9509 109.39 88.4761 108.221C88.2444 107.636 87.965 107.072 87.6405 106.533C86.8471 105.218 85.8108 104.064 84.5865 103.134C83.878 102.592 83.1085 102.133 82.2935 101.769C81.4123 101.367 80.4843 101.075 79.531 100.9C78.5119 100.71 77.4721 100.652 76.4381 100.729C75.8938 100.768 75.3528 100.844 74.8188 100.955C74.2749 101.072 73.7394 101.224 73.2157 101.41C70.9843 102.221 69.0437 103.672 67.6388 105.581C67.2755 106.078 66.9507 106.603 66.6672 107.149C66.5182 107.424 66.3951 107.708 66.2656 107.995C66.136 108.282 66.0292 108.576 65.9417 108.876C65.5347 110.093 65.3269 111.367 65.3264 112.649C65.3287 113.298 65.3807 113.945 65.4818 114.586C65.5843 115.214 65.737 115.832 65.9385 116.435C66.0357 116.735 66.1555 117.026 66.2624 117.32C66.3692 117.613 66.5182 117.891 66.6672 118.165C66.9483 118.713 67.2732 119.238 67.6388 119.734C69.0442 121.641 70.9847 123.091 73.2157 123.901C73.7394 124.088 74.2749 124.24 74.8188 124.356C76.3687 124.68 77.9674 124.699 79.5245 124.411C81.3602 124.069 83.0903 123.304 84.5768 122.177C85.8011 121.247 86.8374 120.094 87.6308 118.779C87.9543 118.239 88.2348 117.674 88.4696 117.091C88.666 116.6 88.8305 116.098 88.9619 115.586C89.1426 114.878 89.2575 114.154 89.3051 113.424C89.3278 113.172 89.3246 112.982 89.331 112.853C89.331 112.982 89.3311 113.175 89.3116 113.424C89.2723 114.155 89.1638 114.882 88.9878 115.593C88.8577 116.107 88.6943 116.613 88.4987 117.107C88.2672 117.693 87.9877 118.26 87.6632 118.801C86.8716 120.125 85.834 121.286 84.6059 122.223C83.1138 123.361 81.3745 124.135 79.5277 124.482C78.5022 124.674 77.4561 124.733 76.4154 124.656C75.8713 124.618 75.3303 124.544 74.7961 124.434C74.2472 124.315 73.7064 124.162 73.1768 123.975C70.9298 123.161 68.9756 121.7 67.561 119.779C67.196 119.278 66.8711 118.749 66.5895 118.198C66.4405 117.923 66.3109 117.636 66.1814 117.346C66.0518 117.055 65.945 116.761 65.8575 116.458C65.6549 115.85 65.5011 115.228 65.3976 114.596C65.2971 113.955 65.2451 113.307 65.2422 112.659C65.2438 111.368 65.4526 110.085 65.8608 108.86C65.9547 108.56 66.0778 108.266 66.1846 107.972C66.2915 107.679 66.4405 107.398 66.5895 107.12C67.985 104.436 70.3421 102.372 73.193 101.339C73.7226 101.153 74.2634 101 74.8123 100.881C75.3465 100.771 75.8875 100.696 76.4316 100.658C77.4723 100.582 78.5184 100.641 79.5439 100.833C80.502 101.01 81.4342 101.305 82.3194 101.711C83.1365 102.081 83.909 102.542 84.6221 103.086C85.8495 104.024 86.8869 105.186 87.6794 106.51C88.0039 107.051 88.2834 107.618 88.5149 108.205C88.71 108.697 88.8734 109.202 89.004 109.715C89.1799 110.428 89.2883 111.155 89.3278 111.888C89.3505 112.136 89.3278 112.33 89.3472 112.459L89.3408 112.652Z" fill="#C53F3F"/>
</g>
<path d="M87.8148 112.394C87.8148 112.394 87.8148 112.336 87.8148 112.226C87.8148 112.117 87.8148 111.949 87.7921 111.733C87.7478 111.103 87.6481 110.479 87.4942 109.867C86.9146 107.6 85.5798 105.596 83.7082 104.183C83.0953 103.717 82.4315 103.322 81.7294 103.005C80.9702 102.658 80.1706 102.406 79.3491 102.256C78.4695 102.093 77.5725 102.045 76.6804 102.111C76.2145 102.144 75.7514 102.209 75.2943 102.305C74.8254 102.407 74.3635 102.538 73.9114 102.698C71.9865 103.396 70.3126 104.647 69.1021 106.294C68.7847 106.722 68.502 107.174 68.2568 107.646C67.9992 108.124 67.7825 108.623 67.6091 109.138C66.9009 111.25 66.9009 113.535 67.6091 115.648C67.7825 116.162 67.9992 116.661 68.2568 117.139C69.4524 119.437 71.4705 121.204 73.9114 122.09C74.3631 122.251 74.8251 122.381 75.2943 122.481C75.7511 122.578 76.2143 122.643 76.6804 122.674C77.5725 122.744 78.4699 122.695 79.3491 122.529C80.935 122.232 82.4291 121.569 83.7115 120.593C84.7674 119.791 85.6609 118.796 86.3445 117.662C86.8564 116.803 87.2435 115.876 87.4942 114.909C87.6483 114.297 87.748 113.672 87.7921 113.043C87.8116 112.827 87.8083 112.662 87.8148 112.552C87.8213 112.443 87.8148 112.385 87.8148 112.385C87.8148 112.385 87.8148 112.611 87.8148 113.03C87.7201 114.669 87.2314 116.261 86.3898 117.672C85.7061 118.815 84.8104 119.818 83.7503 120.628C82.4591 121.625 80.95 122.304 79.3458 122.61C78.4613 122.776 77.5588 122.827 76.661 122.762C76.191 122.727 75.7236 122.662 75.2619 122.568C74.7899 122.466 74.3247 122.335 73.8693 122.174C71.407 121.287 69.3714 119.506 68.1693 117.187C67.9118 116.706 67.6952 116.204 67.5216 115.687C66.8092 113.557 66.8092 111.254 67.5216 109.125C67.6952 108.607 67.9118 108.105 68.1693 107.624C68.4167 107.147 68.7015 106.69 69.0211 106.258C70.5326 104.199 72.7558 102.77 75.2619 102.246C75.722 102.149 76.1885 102.084 76.6578 102.053C77.5566 101.985 78.4604 102.036 79.3458 102.205C80.9387 102.499 82.4397 103.162 83.7277 104.141C85.6041 105.565 86.9373 107.583 87.5071 109.864C87.6598 110.478 87.7552 111.104 87.7921 111.736C87.8213 112.165 87.8148 112.394 87.8148 112.394Z" fill="#C53F3F"/>
<path d="M83.3501 118.676C86.6878 115.35 86.6878 109.957 83.3501 106.63C80.0124 103.304 74.6009 103.304 71.2632 106.63C67.9255 109.957 67.9255 115.35 71.2632 118.676C74.6009 122.003 80.0124 122.003 83.3501 118.676Z" fill="#C53F3F"/>
<path d="M77.3248 110.063H77.26C76.6536 110.063 76.1621 110.553 76.1621 111.158V112.546C76.1621 113.15 76.6536 113.64 77.26 113.64H77.3248C77.9311 113.64 78.4227 113.15 78.4227 112.546V111.158C78.4227 110.553 77.9311 110.063 77.3248 110.063Z" fill="#FAFAFA"/>
<path d="M77.2926 114.324C76.8508 114.323 76.4274 114.148 76.1153 113.836C75.8032 113.524 75.6279 113.102 75.6279 112.662C75.6316 112.644 75.6416 112.627 75.656 112.615C75.6705 112.604 75.6886 112.597 75.7073 112.597C75.726 112.597 75.7441 112.604 75.7585 112.615C75.773 112.627 75.7829 112.644 75.7866 112.662C75.7866 113.06 75.9452 113.442 76.2275 113.724C76.5098 114.006 76.8929 114.165 77.2926 114.166C77.4932 114.175 77.6936 114.142 77.8809 114.07C78.0681 113.998 78.2382 113.887 78.3802 113.746C78.5223 113.604 78.6331 113.435 78.7057 113.248C78.7783 113.061 78.811 112.862 78.8018 112.662C78.8055 112.644 78.8154 112.627 78.8299 112.615C78.8444 112.604 78.8625 112.597 78.8811 112.597C78.8998 112.597 78.9179 112.604 78.9324 112.615C78.9468 112.627 78.9568 112.644 78.9605 112.662C78.9706 112.883 78.9344 113.103 78.8542 113.31C78.7739 113.516 78.6514 113.703 78.4945 113.86C78.3376 114.016 78.1496 114.138 77.9427 114.218C77.7357 114.298 77.5143 114.334 77.2926 114.324Z" fill="#FAFAFA"/>
<path d="M77.3735 114.244H77.2148V115.057H77.3735V114.244Z" fill="white"/>
<path d="M78.2803 115.102H76.308C76.2963 115.105 76.2841 115.104 76.2725 115.101C76.2608 115.099 76.25 115.093 76.2407 115.086C76.2314 115.078 76.2239 115.068 76.2187 115.058C76.2136 115.047 76.2109 115.035 76.2109 115.023C76.2109 115.011 76.2136 114.999 76.2187 114.988C76.2239 114.978 76.2314 114.968 76.2407 114.961C76.25 114.953 76.2608 114.948 76.2725 114.945C76.2841 114.942 76.2963 114.942 76.308 114.944H78.2803C78.2986 114.948 78.3151 114.958 78.3269 114.972C78.3387 114.986 78.3452 115.004 78.3452 115.023C78.3452 115.042 78.3387 115.06 78.3269 115.074C78.3151 115.089 78.2986 115.098 78.2803 115.102Z" fill="white"/>
<path d="M75.6408 110.716C75.6408 110.735 75.5113 110.696 75.3688 110.635C75.2263 110.574 75.1129 110.519 75.1194 110.496C75.1259 110.474 75.2554 110.496 75.4012 110.561C75.5469 110.625 75.6505 110.696 75.6408 110.716Z" fill="white"/>
<path d="M76.2759 109.873C76.2565 109.873 76.1561 109.78 76.046 109.634C75.9359 109.489 75.8646 109.357 75.884 109.344C75.9035 109.331 76.0039 109.437 76.114 109.586C76.2241 109.734 76.2954 109.86 76.2759 109.873Z" fill="white"/>
<path d="M77.2996 109.573C77.2769 109.573 77.2607 109.434 77.2607 109.25C77.2607 109.066 77.2834 108.928 77.3061 108.944C77.3288 108.96 77.3449 109.082 77.3449 109.25C77.3578 109.36 77.3422 109.471 77.2996 109.573Z" fill="white"/>
<path d="M78.611 109.35C78.6304 109.35 78.5818 109.479 78.4879 109.602C78.394 109.725 78.2968 109.802 78.2806 109.789C78.2644 109.776 78.3357 109.673 78.4231 109.554C78.5106 109.434 78.5915 109.341 78.611 109.35Z" fill="white"/>
<path d="M79.4915 110.416C79.4915 110.435 79.3976 110.516 79.2583 110.596C79.1191 110.677 78.9928 110.726 78.9831 110.703C78.9733 110.68 79.077 110.603 79.2162 110.525C79.3555 110.448 79.4818 110.396 79.4915 110.416Z" fill="white"/>
<path d="M93.6159 112.117L94.5486 110.948C94.5872 110.899 94.6363 110.86 94.6924 110.832C94.7485 110.805 94.8101 110.79 94.8725 110.79H97.6804C97.7915 110.79 97.8981 110.834 97.977 110.912C98.0558 110.99 98.1006 111.096 98.1014 111.206V113.511C98.1014 113.566 98.0905 113.621 98.0694 113.672C98.0482 113.722 98.0172 113.769 97.9781 113.808C97.939 113.847 97.8926 113.878 97.8415 113.899C97.7904 113.92 97.7357 113.931 97.6804 113.931H94.9178C94.8565 113.932 94.7956 113.919 94.7397 113.894C94.6837 113.869 94.6339 113.832 94.594 113.785L93.6224 112.649C93.5602 112.575 93.5256 112.481 93.5244 112.384C93.5233 112.287 93.5556 112.193 93.6159 112.117Z" fill="#455A64"/>
<path d="M56.6558 110.935C56.7856 110.858 56.925 110.798 57.0704 110.758L57.1578 110.348H57.8509L57.948 110.754C58.0952 110.79 58.2368 110.845 58.3691 110.919L58.7188 110.69L59.2176 111.171L59.0006 111.526C59.0789 111.655 59.1398 111.794 59.182 111.939L59.59 112.026V112.717L59.1852 112.814C59.1469 112.96 59.0903 113.101 59.0168 113.233L59.2662 113.572L58.7868 114.069L58.4274 113.853C58.2983 113.932 58.1588 113.993 58.0128 114.034L57.9286 114.44H57.2355L57.1351 114.034C56.989 113.998 56.8485 113.943 56.7174 113.869L56.3643 114.098L55.8688 113.621L56.0858 113.262C56.0063 113.134 55.9452 112.995 55.9045 112.849L55.4932 112.765V112.074L55.898 111.974C55.9343 111.828 55.9898 111.687 56.0632 111.555L55.8332 111.206L56.3158 110.709L56.672 110.925L56.6558 110.935ZM57.0283 111.855C56.9262 111.96 56.8577 112.093 56.8314 112.237C56.8051 112.38 56.8221 112.529 56.8804 112.663C56.9386 112.797 57.0354 112.911 57.1586 112.99C57.2818 113.069 57.4258 113.111 57.5725 113.108C57.7191 113.106 57.8618 113.06 57.9824 112.977C58.1031 112.894 58.1964 112.778 58.2504 112.642C58.3045 112.506 58.3169 112.357 58.2862 112.214C58.2554 112.071 58.1828 111.941 58.0776 111.839C58.0076 111.771 57.925 111.718 57.8344 111.682C57.7438 111.646 57.647 111.629 57.5496 111.63C57.4521 111.632 57.3559 111.652 57.2665 111.691C57.177 111.729 57.0961 111.785 57.0283 111.855Z" fill="#455A64"/>
<path d="M96.6523 111.491L95.166 112.973L95.395 113.201L96.8813 111.72L96.6523 111.491Z" fill="white"/>
<path d="M95.5044 111.495L95.2754 111.723L96.7619 113.204L96.9909 112.976L95.5044 111.495Z" fill="white"/>
<path d="M91.4201 72.2998H53.0359C50.9056 72.2998 49.1787 74.0209 49.1787 76.144V76.3667C49.1787 78.4898 50.9056 80.2109 53.0359 80.2109H91.4201C93.5503 80.2109 95.2773 78.4898 95.2773 76.3667V76.144C95.2773 74.0209 93.5503 72.2998 91.4201 72.2998Z" fill="#EBEBEB"/>
<path d="M106.916 83.1997H46.0303V92.518H106.916V83.1997Z" fill="#F5F5F5"/>
<path d="M69.9895 87.4277H70.2778V89.2643H71.4177V89.5225H69.9766L69.9895 87.4277Z" fill="#263238"/>
<path d="M71.6807 87.4278C71.6807 87.4025 71.6857 87.3775 71.6955 87.3541C71.7053 87.3308 71.7197 87.3097 71.7378 87.292C71.7559 87.2742 71.7773 87.2603 71.8009 87.2509C71.8244 87.2415 71.8496 87.2369 71.875 87.2373C71.9117 87.2386 71.9472 87.2506 71.9772 87.2717C72.0071 87.2929 72.0302 87.3224 72.0435 87.3565C72.0568 87.3906 72.0598 87.4279 72.0521 87.4637C72.0444 87.4995 72.0264 87.5322 72.0002 87.5579C71.974 87.5836 71.9408 87.601 71.9048 87.6081C71.8687 87.6152 71.8314 87.6116 71.7974 87.5977C71.7634 87.5839 71.7342 87.5604 71.7135 87.5302C71.6927 87.5 71.6813 87.4644 71.6807 87.4278ZM71.7325 87.9184H72.0207V89.5032H71.7325V87.9184Z" fill="#263238"/>
<path d="M72.3672 89.3647L72.487 89.1355C72.6538 89.2435 72.8485 89.3007 73.0473 89.3001C73.3161 89.3001 73.4262 89.2194 73.4262 89.0839C73.4262 88.7288 72.419 89.0355 72.419 88.4061C72.419 88.122 72.6749 87.9284 73.0667 87.9284C73.2694 87.9253 73.4693 87.9754 73.6464 88.0736L73.5234 88.2995C73.3859 88.2132 73.2259 88.1694 73.0635 88.1737C72.8109 88.1737 72.6878 88.2673 72.6878 88.3931C72.6878 88.7676 73.6983 88.4609 73.6983 89.0774C73.6983 89.3679 73.4327 89.5487 73.0084 89.5487C72.7813 89.5509 72.5584 89.487 72.3672 89.3647Z" fill="#263238"/>
<path d="M74.9679 89.426C74.8685 89.5014 74.7461 89.5401 74.6213 89.5358C74.5536 89.5439 74.4848 89.5367 74.4203 89.5147C74.3557 89.4927 74.2969 89.4565 74.2484 89.4087C74.1998 89.3609 74.1627 89.3029 74.1398 89.2388C74.1169 89.1747 74.1088 89.1063 74.1161 89.0387V88.1672H73.8408V87.9316H74.1129V87.583H74.4011V87.9316H74.8578V88.1672H74.4011V89.0419C74.3962 89.0766 74.3991 89.1119 74.4097 89.1453C74.4202 89.1786 74.438 89.2093 74.4619 89.2349C74.4858 89.2606 74.5151 89.2806 74.5477 89.2936C74.5803 89.3065 74.6154 89.3121 74.6505 89.3098C74.7313 89.3116 74.8103 89.2853 74.8739 89.2356L74.9679 89.426Z" fill="#263238"/>
<path d="M76.6937 88.8191H75.3983C75.4169 88.9558 75.4874 89.0801 75.5952 89.1666C75.7031 89.2531 75.8401 89.295 75.978 89.2839C76.0639 89.2868 76.1494 89.2714 76.2287 89.2385C76.3081 89.2057 76.3794 89.1562 76.4379 89.0934L76.5966 89.2774C76.4791 89.397 76.3294 89.48 76.1655 89.5165C76.0017 89.553 75.8307 89.5413 75.6733 89.4829C75.516 89.4245 75.3791 89.3218 75.2791 89.1874C75.1791 89.0529 75.1204 88.8925 75.1101 88.7255C75.1056 88.619 75.1231 88.5127 75.1616 88.4133C75.2 88.3138 75.2586 88.2233 75.3336 88.1473C75.4086 88.0714 75.4984 88.0116 75.5976 87.9717C75.6968 87.9318 75.8031 87.9126 75.91 87.9153C76.0169 87.9124 76.1233 87.9317 76.2223 87.9722C76.3213 88.0126 76.4107 88.0732 76.4848 88.1501C76.5589 88.227 76.616 88.3185 76.6526 88.4187C76.6891 88.5189 76.7042 88.6256 76.697 88.7319C76.6975 88.761 76.6964 88.7901 76.6937 88.8191ZM75.3983 88.6125H76.4314C76.4172 88.4871 76.3572 88.3714 76.2628 88.2873C76.1684 88.2032 76.0463 88.1568 75.9197 88.1568C75.7931 88.1568 75.671 88.2032 75.5766 88.2873C75.4822 88.3714 75.4222 88.4871 75.408 88.6125H75.3983Z" fill="#263238"/>
<path d="M78.6111 88.6028V89.5162H78.3228V88.6383C78.3228 88.3155 78.1674 88.1735 77.8921 88.1735C77.8226 88.1688 77.7529 88.1794 77.6879 88.2045C77.6229 88.2297 77.5642 88.2687 77.5161 88.3189C77.4679 88.369 77.4313 88.4291 77.409 88.4949C77.3867 88.5607 77.3791 88.6306 77.3869 88.6996V89.5162H77.0986V87.9314H77.3739V88.1703C77.4429 88.0854 77.5311 88.018 77.6314 87.9737C77.7316 87.9293 77.8409 87.9093 77.9504 87.9153C78.0414 87.9085 78.1329 87.9218 78.2182 87.9544C78.3034 87.987 78.3804 88.0379 78.4435 88.1036C78.5067 88.1694 78.5545 88.2482 78.5834 88.3345C78.6124 88.4208 78.6218 88.5124 78.6111 88.6028Z" fill="#263238"/>
<path d="M79.0938 87.4278C79.0937 87.4025 79.0988 87.3775 79.1086 87.3541C79.1184 87.3308 79.1328 87.3097 79.1509 87.292C79.1689 87.2742 79.1904 87.2603 79.214 87.2509C79.2375 87.2415 79.2627 87.2369 79.2881 87.2373C79.3248 87.2386 79.3603 87.2506 79.3903 87.2717C79.4202 87.2929 79.4433 87.3224 79.4566 87.3565C79.4699 87.3906 79.4729 87.4279 79.4652 87.4637C79.4575 87.4995 79.4395 87.5322 79.4133 87.5579C79.3871 87.5836 79.3539 87.601 79.3179 87.6081C79.2818 87.6152 79.2445 87.6116 79.2105 87.5977C79.1765 87.5839 79.1473 87.5604 79.1266 87.5302C79.1058 87.5 79.0944 87.4644 79.0938 87.4278ZM79.1423 87.9184H79.4306V89.5032H79.1423V87.9184Z" fill="#263238"/>
<path d="M81.4936 88.6028V89.5162H81.2054V88.6383C81.2054 88.3155 81.0467 88.1735 80.7746 88.1735C80.705 88.1682 80.635 88.1784 80.5697 88.2033C80.5045 88.2282 80.4456 88.2672 80.3973 88.3176C80.349 88.3679 80.3124 88.4282 80.2903 88.4943C80.2682 88.5603 80.2611 88.6305 80.2694 88.6996V89.5162H79.9941V87.9314H80.2727V88.1703C80.3406 88.085 80.4282 88.0173 80.528 87.9729C80.6278 87.9285 80.7368 87.9088 80.8459 87.9153C80.9359 87.9104 81.0259 87.9252 81.1095 87.9587C81.1932 87.9921 81.2685 88.0434 81.3302 88.1089C81.3919 88.1744 81.4385 88.2525 81.4667 88.3378C81.495 88.4231 81.5041 88.5136 81.4936 88.6028Z" fill="#263238"/>
<path d="M83.5561 87.9313V89.303C83.5721 89.4144 83.5617 89.528 83.5257 89.6346C83.4897 89.7413 83.4291 89.838 83.3488 89.9171C83.2685 89.9962 83.1707 90.0555 83.0633 90.0901C82.9559 90.1247 82.8418 90.1337 82.7303 90.1164C82.4578 90.1281 82.1898 90.0448 81.9724 89.8808L82.1084 89.6581C82.2837 89.7952 82.501 89.8681 82.7238 89.8646C83.0962 89.8646 83.2679 89.6903 83.2679 89.3321V89.2062C83.1968 89.2872 83.1084 89.3513 83.0092 89.3937C82.91 89.4362 82.8025 89.4559 82.6946 89.4515C82.4902 89.4515 82.2941 89.3706 82.1496 89.2265C82.005 89.0824 81.9238 88.8871 81.9238 88.6833C81.9238 88.4796 82.005 88.2842 82.1496 88.1401C82.2941 87.9961 82.4902 87.9151 82.6946 87.9151C82.8064 87.9107 82.9177 87.932 83.02 87.9773C83.1222 88.0226 83.2125 88.0908 83.2841 88.1766V87.9313H83.5561ZM83.2743 88.6833C83.2802 88.5744 83.2531 88.4662 83.1966 88.3728C83.1401 88.2793 83.0568 88.2049 82.9574 88.1591C82.8581 88.1134 82.7472 88.0983 82.6392 88.116C82.5312 88.1336 82.431 88.1831 82.3515 88.2581C82.272 88.3331 82.2169 88.4302 82.1933 88.5367C82.1697 88.6432 82.1787 88.7544 82.2192 88.8557C82.2596 88.9571 82.3296 89.0441 82.4201 89.1054C82.5106 89.1667 82.6175 89.1996 82.727 89.1997C82.7978 89.2052 82.869 89.1958 82.9359 89.1721C83.0028 89.1485 83.064 89.1111 83.1156 89.0625C83.1671 89.0138 83.2079 88.955 83.2352 88.8896C83.2626 88.8243 83.2759 88.7541 83.2743 88.6833Z" fill="#263238"/>
<path d="M83.9707 89.3293C83.9703 89.3025 83.9753 89.2759 83.9854 89.251C83.9955 89.2261 84.0105 89.2036 84.0295 89.1846C84.0486 89.1656 84.0712 89.1507 84.0962 89.1406C84.1211 89.1305 84.1478 89.1256 84.1748 89.126C84.2013 89.126 84.2275 89.1313 84.2519 89.1416C84.2763 89.1519 84.2984 89.167 84.3168 89.1859C84.3352 89.2049 84.3496 89.2274 84.3592 89.252C84.3687 89.2767 84.3732 89.303 84.3723 89.3293C84.3732 89.3559 84.3687 89.3823 84.3592 89.4072C84.3497 89.432 84.3354 89.4547 84.317 89.4739C84.2986 89.4931 84.2765 89.5085 84.2521 89.5191C84.2277 89.5298 84.2014 89.5355 84.1748 89.5359C84.1477 89.5359 84.1209 89.5306 84.0959 89.5201C84.071 89.5097 84.0483 89.4944 84.0293 89.4752C84.0103 89.456 83.9954 89.4332 83.9853 89.4081C83.9753 89.3831 83.9703 89.3563 83.9707 89.3293Z" fill="#263238"/>
<path d="M84.6514 89.3294C84.651 89.3025 84.6559 89.2759 84.666 89.251C84.6761 89.2261 84.6911 89.2036 84.7102 89.1846C84.7292 89.1656 84.7519 89.1507 84.7768 89.1406C84.8018 89.1305 84.8285 89.1256 84.8554 89.126C84.8822 89.1256 84.9088 89.1305 84.9336 89.1406C84.9583 89.1507 84.9808 89.1657 84.9996 89.1848C85.0184 89.2038 85.0331 89.2264 85.0428 89.2513C85.0525 89.2761 85.0571 89.3027 85.0562 89.3294C85.0571 89.3562 85.0525 89.3829 85.0428 89.4079C85.0331 89.4329 85.0185 89.4558 84.9997 89.475C84.981 89.4943 84.9586 89.5096 84.9338 89.5201C84.909 89.5305 84.8824 89.5359 84.8554 89.5359C84.8284 89.5359 84.8016 89.5306 84.7766 89.5201C84.7516 89.5097 84.729 89.4944 84.71 89.4752C84.691 89.456 84.676 89.4332 84.666 89.4082C84.6559 89.3831 84.651 89.3563 84.6514 89.3294Z" fill="#263238"/>
<path d="M85.334 89.3293C85.3336 89.3025 85.3386 89.2759 85.3487 89.251C85.3588 89.2261 85.3738 89.2036 85.3928 89.1846C85.4118 89.1656 85.4345 89.1507 85.4595 89.1406C85.4844 89.1305 85.5111 89.1256 85.538 89.126C85.5645 89.126 85.5908 89.1313 85.6152 89.1416C85.6396 89.1519 85.6616 89.167 85.6801 89.1859C85.6985 89.2049 85.7129 89.2274 85.7225 89.252C85.732 89.2767 85.7365 89.303 85.7356 89.3293C85.7365 89.3559 85.732 89.3823 85.7225 89.4072C85.713 89.432 85.6986 89.4547 85.6803 89.4739C85.6619 89.4931 85.6398 89.5085 85.6154 89.5191C85.591 89.5298 85.5647 89.5355 85.538 89.5359C85.511 89.5359 85.4842 89.5306 85.4592 89.5201C85.4342 89.5097 85.4116 89.4944 85.3926 89.4752C85.3736 89.456 85.3587 89.4332 85.3486 89.4081C85.3385 89.3831 85.3336 89.3563 85.334 89.3293Z" fill="#263238"/>
<path d="M56.2163 75.1626V77.2574H55.9151V76.3246H54.7071V77.2574H54.4092V75.1626H54.7071V76.0631H55.9151V75.1626H56.2163Z" fill="#263238"/>
<path d="M56.75 75.1886C56.75 75.163 56.7551 75.1377 56.7651 75.1142C56.7751 75.0907 56.7898 75.0694 56.8082 75.0516C56.8267 75.0338 56.8485 75.0199 56.8724 75.0108C56.8964 75.0016 56.9219 74.9973 56.9476 74.9982C56.9841 75 57.0193 75.0125 57.0488 75.0341C57.0783 75.0556 57.1009 75.0853 57.1137 75.1194C57.1265 75.1536 57.1291 75.1907 57.121 75.2263C57.113 75.2619 57.0947 75.2943 57.0684 75.3197C57.0421 75.345 57.0089 75.3622 56.973 75.369C56.9371 75.3758 56.8999 75.3721 56.8661 75.3581C56.8323 75.3442 56.8033 75.3208 56.7827 75.2906C56.762 75.2605 56.7507 75.225 56.75 75.1886ZM56.8018 75.6792H57.0901V77.264H56.8018V75.6792Z" fill="#263238"/>
<path d="M57.5733 77.0992C57.5728 77.0731 57.5777 77.0472 57.5877 77.023C57.5977 76.9989 57.6126 76.977 57.6314 76.9589C57.6503 76.9407 57.6727 76.9266 57.6972 76.9174C57.7217 76.9083 57.7479 76.9042 57.7741 76.9055C57.8209 76.9116 57.8639 76.9344 57.895 76.9698C57.9262 77.0051 57.9434 77.0505 57.9434 77.0976C57.9434 77.1446 57.9262 77.1901 57.895 77.2254C57.8639 77.2607 57.8209 77.2836 57.7741 77.2896C57.7483 77.2905 57.7226 77.2862 57.6985 77.2771C57.6743 77.2679 57.6523 77.2541 57.6336 77.2364C57.6149 77.2187 57.6 77.1974 57.5896 77.1738C57.5792 77.1503 57.5737 77.1249 57.5733 77.0992ZM57.6024 75.1626H57.9263L57.868 76.5957H57.6478L57.6024 75.1626Z" fill="#263238"/>
<path d="M58.3174 77.0769C58.317 77.0501 58.3219 77.0234 58.332 76.9986C58.3421 76.9737 58.3572 76.9511 58.3762 76.9322C58.3952 76.9132 58.4179 76.8982 58.4428 76.8882C58.4678 76.8781 58.4945 76.8731 58.5214 76.8736C58.5482 76.8731 58.5748 76.8781 58.5996 76.8882C58.6244 76.8983 58.6468 76.9133 58.6656 76.9323C58.6844 76.9513 58.6991 76.974 58.7088 76.9988C58.7186 77.0237 58.7231 77.0502 58.7222 77.0769C58.7231 77.1037 58.7186 77.1304 58.7088 77.1555C58.6991 77.1805 58.6845 77.2033 58.6658 77.2226C58.647 77.2419 58.6246 77.2572 58.5998 77.2677C58.575 77.2781 58.5484 77.2835 58.5214 77.2835C58.4944 77.2835 58.4676 77.2781 58.4426 77.2677C58.4176 77.2573 58.395 77.242 58.376 77.2228C58.357 77.2036 58.3421 77.1808 58.332 77.1557C58.3219 77.1307 58.317 77.1039 58.3174 77.0769Z" fill="#263238"/>
<path d="M59.0011 77.0769C59.0024 77.0378 59.0151 76.9999 59.0378 76.9679C59.0605 76.9359 59.0921 76.9113 59.1287 76.897C59.1653 76.8828 59.2053 76.8795 59.2437 76.8877C59.2821 76.8959 59.3173 76.9151 59.3449 76.943C59.3724 76.9709 59.3912 77.0063 59.3988 77.0447C59.4064 77.0831 59.4025 77.1229 59.3876 77.1592C59.3727 77.1954 59.3475 77.2265 59.3151 77.2486C59.2826 77.2707 59.2444 77.2829 59.2051 77.2835C59.1779 77.284 59.1509 77.2789 59.1257 77.2686C59.1006 77.2584 59.0778 77.2431 59.0587 77.2238C59.0396 77.2045 59.0247 77.1815 59.0148 77.1563C59.0049 77.131 59.0002 77.104 59.0011 77.0769Z" fill="#263238"/>
<path d="M59.6807 77.0769C59.6803 77.0501 59.6852 77.0235 59.6953 76.9986C59.7054 76.9737 59.7204 76.9511 59.7395 76.9322C59.7585 76.9132 59.7812 76.8982 59.8061 76.8882C59.8311 76.8781 59.8578 76.8731 59.8847 76.8736C59.9114 76.8731 59.9378 76.8781 59.9624 76.8882C59.987 76.8983 60.0093 76.9134 60.0278 76.9325C60.0463 76.9516 60.0607 76.9742 60.0701 76.9991C60.0795 77.0239 60.0836 77.0504 60.0823 77.0769C60.0836 77.1036 60.0795 77.1302 60.0701 77.1552C60.0608 77.1803 60.0464 77.2031 60.028 77.2224C60.0095 77.2418 59.9873 77.2571 59.9626 77.2676C59.938 77.2781 59.9115 77.2835 59.8847 77.2835C59.8577 77.2835 59.8309 77.2781 59.8059 77.2677C59.7809 77.2573 59.7583 77.242 59.7393 77.2228C59.7203 77.2036 59.7053 77.1808 59.6953 77.1557C59.6852 77.1307 59.6803 77.1039 59.6807 77.0769Z" fill="#263238"/>
<path d="M100.575 80.1267C102.72 80.1267 104.459 78.394 104.459 76.2567C104.459 74.1194 102.72 72.3867 100.575 72.3867C98.4309 72.3867 96.6924 74.1194 96.6924 76.2567C96.6924 78.394 98.4309 80.1267 100.575 80.1267Z" fill="#C53F3F"/>
<path d="M99.6973 75.9759V74.8947C99.6976 74.8758 99.7027 74.8573 99.7121 74.8408C99.7214 74.8244 99.7348 74.8106 99.7509 74.8006C99.767 74.7907 99.7853 74.7849 99.8043 74.7839C99.8232 74.7828 99.8421 74.7865 99.8592 74.7946L102.667 76.1761C102.686 76.1847 102.703 76.1988 102.714 76.2165C102.726 76.2343 102.732 76.255 102.732 76.2761C102.732 76.2972 102.726 76.3179 102.714 76.3357C102.703 76.3534 102.686 76.3675 102.667 76.3762L99.8592 77.7189C99.8421 77.727 99.8232 77.7307 99.8043 77.7296C99.7853 77.7286 99.767 77.7228 99.7509 77.7128C99.7348 77.7029 99.7214 77.6891 99.7121 77.6726C99.7027 77.6562 99.6976 77.6377 99.6973 77.6188V76.6989C99.6971 76.6748 99.705 76.6512 99.7196 76.632C99.7343 76.6127 99.7549 76.5988 99.7782 76.5924L100.808 76.3019L99.7879 76.0857C99.7628 76.08 99.7402 76.0661 99.7238 76.0462C99.7074 76.0264 99.6981 76.0016 99.6973 75.9759Z" fill="white"/>
<path d="M103.882 36.3756C103.925 36.3411 103.957 36.2942 103.972 36.2413C103.987 36.1883 103.985 36.132 103.967 36.0802C103.948 36.0283 103.914 35.9835 103.868 35.952C103.823 35.9205 103.769 35.9038 103.714 35.9043H53.1915C53.0099 35.9043 52.8301 35.94 52.6623 36.0092C52.4945 36.0785 52.342 36.18 52.2136 36.308C52.0852 36.436 51.9834 36.5879 51.9139 36.7551C51.8444 36.9223 51.8086 37.1015 51.8086 37.2825V47.2076C51.8086 47.3886 51.8444 47.5679 51.9139 47.7351C51.9834 47.9023 52.0852 48.0542 52.2136 48.1822C52.342 48.3102 52.4945 48.4117 52.6623 48.481C52.8301 48.5502 53.0099 48.5859 53.1915 48.5859H99.3483C99.7151 48.5859 100.067 48.4407 100.326 48.1822C100.586 47.9237 100.731 47.5732 100.731 47.2076V39.0868C100.731 39.0478 100.74 39.0094 100.757 38.9742C100.774 38.939 100.798 38.908 100.828 38.8835L103.882 36.3756Z" fill="#EBEBEB"/>
<path d="M92.5885 40.927C92.5885 40.9722 84.7445 41.0109 75.0707 41.0109C65.397 41.0109 57.5498 40.9722 57.5498 40.927C57.5498 40.8818 65.3937 40.8398 75.0707 40.8398C84.7477 40.8398 92.5885 40.8786 92.5885 40.927Z" fill="#263238"/>
<path d="M92.5885 43.3281C92.5885 43.3732 84.7445 43.412 75.0707 43.412C65.397 43.412 57.5498 43.3732 57.5498 43.3281C57.5498 43.2829 65.3937 43.2441 75.0707 43.2441C84.7477 43.2441 92.5885 43.2829 92.5885 43.3281Z" fill="#263238"/>
<path d="M99.1241 50.1997H64.0822C63.3686 50.1997 62.79 50.7763 62.79 51.4875V56.8745C62.79 57.5858 63.3686 58.1624 64.0822 58.1624H99.1241C99.8378 58.1624 100.416 57.5858 100.416 56.8745V51.4875C100.416 50.7763 99.8378 50.1997 99.1241 50.1997Z" fill="#EBEBEB"/>
<path d="M96.3492 53.957C96.3492 54.0022 89.7165 54.0409 81.539 54.0409C73.3615 54.0409 66.7158 54.0022 66.7158 53.957C66.7158 53.9118 73.3453 53.873 81.5293 53.873C89.7133 53.873 96.3492 53.9118 96.3492 53.957Z" fill="#263238"/>
<path d="M22.702 127.984L17.6109 134.655L15.1106 141.091C15.0677 141.201 15.0026 141.3 14.9196 141.384C14.8365 141.468 14.7371 141.533 14.6276 141.577C14.5181 141.621 14.4007 141.642 14.2827 141.639C14.1647 141.636 14.0486 141.609 13.9415 141.559C13.8166 141.502 13.7074 141.415 13.6234 141.307C13.5394 141.198 13.483 141.071 13.4589 140.936C13.1351 139.193 12.008 132.77 12.4096 132.302C12.8728 131.76 17.3129 124.908 17.3129 124.908L22.702 127.984Z" fill="#C53F3F"/>
<g opacity="0.6">
<path d="M13.9418 141.56L12.7435 131.844L12.533 132.132C12.3522 132.38 12.2661 132.684 12.2901 132.99C12.3516 133.81 12.5783 136.066 13.4365 140.92C13.4607 141.061 13.5195 141.194 13.6077 141.307C13.6958 141.419 13.8106 141.508 13.9418 141.566V141.56Z" fill="white"/>
</g>
<g opacity="0.6">
<path d="M15.733 130.679C15.7757 130.803 15.77 130.938 15.7172 131.057C15.6644 131.177 15.5683 131.272 15.448 131.325C15.3251 131.372 15.1882 131.37 15.067 131.318C14.9458 131.266 14.85 131.169 14.8003 131.047C14.76 130.918 14.7688 130.778 14.8249 130.655C14.8811 130.532 14.9806 130.434 15.1047 130.379C15.2351 130.347 15.3729 130.366 15.4894 130.433C15.6058 130.5 15.6919 130.609 15.7298 130.737" fill="white"/>
</g>
<path d="M14.5413 137.457C14.8559 137.363 15.1858 137.33 15.5129 137.36C15.8384 137.441 16.1452 137.583 16.4165 137.78C16.4165 137.78 16.3873 137.651 16.2416 137.515C16.0496 137.343 15.8107 137.23 15.555 137.192C15.2986 137.145 15.0339 137.174 14.7939 137.276C14.6126 137.357 14.5284 137.457 14.5413 137.457Z" fill="#263238"/>
<path d="M14.3662 138.729C14.6408 138.76 14.9133 138.808 15.1823 138.871C15.4322 138.988 15.6745 139.121 15.9078 139.268C15.9531 139.245 15.7297 138.864 15.2406 138.7C15.1034 138.634 14.9521 138.602 14.7998 138.607C14.6475 138.612 14.4987 138.654 14.3662 138.729Z" fill="#263238"/>
<path d="M14.4863 135.653C14.9134 135.666 15.3389 135.711 15.7591 135.788C16.1655 135.923 16.5607 136.089 16.9412 136.286C16.6567 135.932 16.2545 135.693 15.8077 135.611C15.3766 135.465 14.9073 135.48 14.4863 135.653Z" fill="#263238"/>
<path d="M15.8691 133.494C15.8691 133.548 16.3452 133.665 16.8407 134C17.3362 134.336 17.6439 134.733 17.6892 134.701C17.548 134.337 17.2833 134.034 16.9411 133.845C16.6347 133.609 16.2563 133.485 15.8691 133.494Z" fill="#263238"/>
<path d="M17.3096 131.499C17.6751 131.617 18.0227 131.784 18.3427 131.996C18.6289 132.252 18.8775 132.548 19.0811 132.874C19.1038 132.874 19.0811 132.728 19.0001 132.525C18.8749 132.261 18.6897 132.03 18.4593 131.85C18.2285 131.67 17.9575 131.547 17.6691 131.492C17.4488 131.453 17.3096 131.476 17.3096 131.499Z" fill="#263238"/>
<path d="M18.6088 131.609C18.6088 131.609 18.6995 131.534 18.8031 131.36C18.9528 131.108 19.0497 130.828 19.0881 130.537C19.1364 130.328 19.1136 130.109 19.0233 129.914C18.9876 129.852 18.9334 129.803 18.8684 129.774C18.8034 129.744 18.7308 129.736 18.6606 129.749C18.5283 129.784 18.4132 129.866 18.3368 129.979C18.1872 130.218 18.1257 130.502 18.1629 130.782C18.2002 131.061 18.3337 131.319 18.5408 131.512C18.7497 131.698 19.0093 131.818 19.2867 131.856C19.5641 131.895 19.8467 131.85 20.0986 131.728C20.1622 131.696 20.2182 131.65 20.2629 131.594C20.3075 131.539 20.3398 131.474 20.3577 131.405C20.3681 131.334 20.356 131.262 20.3228 131.198C20.2897 131.134 20.2373 131.083 20.1731 131.05C19.9791 130.968 19.7672 130.937 19.5577 130.96C19.266 130.974 18.979 131.039 18.7092 131.15C18.5181 131.231 18.4274 131.302 18.4339 131.312C18.7961 131.181 19.1761 131.106 19.561 131.089C19.744 131.078 19.9271 131.11 20.0953 131.183C20.1309 131.2 20.16 131.228 20.1781 131.263C20.1962 131.298 20.2024 131.337 20.1957 131.376C20.1805 131.42 20.1565 131.459 20.1253 131.493C20.0942 131.527 20.0564 131.554 20.0144 131.573C19.7939 131.672 19.5496 131.705 19.3108 131.669C19.0719 131.633 18.8485 131.529 18.6671 131.37C18.4946 131.207 18.382 130.991 18.3473 130.757C18.3127 130.523 18.358 130.284 18.476 130.079C18.5275 129.997 18.6069 129.938 18.6995 129.911C18.7379 129.903 18.7777 129.907 18.8137 129.923C18.8496 129.938 18.8798 129.965 18.9003 129.998C18.9752 130.164 18.9978 130.348 18.9651 130.527C18.9105 130.906 18.7899 131.272 18.6088 131.609Z" fill="#263238"/>
<path d="M28.0036 131.541L28.5218 138.357C28.5218 138.357 21.7207 140.672 21.7207 141.943L35.0282 141.911L34.659 131.26L28.0036 131.541Z" fill="#C53F3F"/>
<g opacity="0.6">
<path d="M32.6089 137.619C32.7381 137.653 32.8501 137.733 32.9236 137.845C32.9971 137.956 33.0268 138.09 33.0072 138.222C32.9784 138.352 32.9004 138.466 32.7895 138.541C32.6786 138.615 32.5432 138.645 32.4113 138.622C32.2732 138.586 32.1537 138.5 32.0763 138.381C31.999 138.261 31.9694 138.117 31.9935 137.977C32.0368 137.847 32.1278 137.739 32.2481 137.675C32.3685 137.61 32.5091 137.593 32.6413 137.628" fill="white"/>
</g>
<g opacity="0.6">
<path d="M35.0119 141.911L34.9731 140.84L22.1254 141.33C21.9903 141.401 21.8751 141.504 21.7902 141.63C21.7054 141.757 21.6536 141.902 21.6396 142.053L35.0119 141.911Z" fill="white"/>
</g>
<path d="M28.3023 138.296C28.3023 138.361 28.6261 138.38 28.95 138.574C29.2738 138.767 29.4584 139.035 29.5167 139.006C29.575 138.977 29.4617 138.609 29.0633 138.38C28.665 138.151 28.2861 138.238 28.3023 138.296Z" fill="#263238"/>
<path d="M26.9316 138.929C26.9316 138.99 27.2037 139.09 27.4369 139.355C27.67 139.62 27.7413 139.907 27.8061 139.9C27.8708 139.894 27.8967 139.529 27.6053 139.203C27.3138 138.877 26.9316 138.868 26.9316 138.929Z" fill="#263238"/>
<path d="M26.2061 140.623C26.2644 140.623 26.3422 140.301 26.1608 139.958C25.9794 139.616 25.6718 139.484 25.6459 139.539C25.62 139.594 25.8175 139.774 25.9697 140.062C26.1219 140.349 26.1414 140.617 26.2061 140.623Z" fill="#263238"/>
<path d="M28.3569 136.731C28.3861 136.789 28.6808 136.689 29.05 136.698C29.4192 136.708 29.6977 136.811 29.7398 136.756C29.7819 136.701 29.4872 136.479 29.0532 136.472C28.6192 136.466 28.3245 136.682 28.3569 136.731Z" fill="#263238"/>
<g opacity="0.3">
<path d="M28.1074 132.893L28.1981 134.107L34.7304 133.787L34.6948 132.693L28.1074 132.893Z" fill="black"/>
</g>
<path d="M28.2793 135.356C28.4995 135.404 28.7287 135.393 28.9432 135.324C29.182 135.272 29.4136 135.192 29.633 135.085C29.7627 135.021 29.8872 134.948 30.0055 134.865C30.0798 134.823 30.1466 134.768 30.203 134.704C30.2411 134.654 30.2618 134.594 30.2618 134.531C30.2618 134.469 30.2411 134.408 30.203 134.359C30.169 134.315 30.1253 134.279 30.0753 134.255C30.0253 134.231 29.9703 134.219 29.9148 134.22C29.8301 134.225 29.7464 134.24 29.6654 134.265C29.5251 134.306 29.3886 134.359 29.2574 134.423C29.0365 134.533 28.8343 134.677 28.6582 134.849C28.3635 135.146 28.2663 135.391 28.289 135.404C28.3117 135.417 28.4607 135.214 28.7651 134.969C28.9438 134.826 29.1396 134.705 29.348 134.61C29.4696 134.557 29.5952 134.512 29.7237 134.478C29.863 134.436 29.9828 134.43 30.0217 134.478C30.0605 134.526 30.0379 134.51 30.0217 134.552C29.9792 134.599 29.9301 134.639 29.8759 134.672C29.7652 134.749 29.6507 134.822 29.5326 134.888C29.3255 134.998 29.1087 135.089 28.8849 135.159C28.6782 135.209 28.4758 135.275 28.2793 135.356Z" fill="#263238"/>
<path d="M28.3667 135.443C28.4848 135.249 28.5371 135.023 28.5157 134.797C28.5178 134.551 28.4772 134.307 28.3959 134.074C28.3485 133.936 28.2866 133.803 28.2113 133.677C28.1727 133.59 28.1121 133.515 28.0355 133.458C27.9588 133.402 27.8687 133.366 27.7741 133.354C27.715 133.359 27.6584 133.38 27.6104 133.415C27.5624 133.45 27.5249 133.497 27.502 133.551C27.4719 133.63 27.4523 133.713 27.4437 133.797C27.4261 133.946 27.4315 134.097 27.4599 134.245C27.5115 134.493 27.6226 134.725 27.7838 134.92C28.0558 135.243 28.3311 135.317 28.3343 135.298C28.3376 135.278 28.1238 135.146 27.9133 134.826C27.7902 134.641 27.7095 134.43 27.6769 134.21C27.6577 134.083 27.6577 133.953 27.6769 133.826C27.6769 133.684 27.7417 133.568 27.7935 133.58C27.8453 133.593 27.9781 133.677 28.0364 133.79C28.1059 133.902 28.1655 134.02 28.2145 134.142C28.2971 134.349 28.3495 134.566 28.37 134.788C28.3894 135.197 28.3311 135.436 28.3667 135.443Z" fill="#263238"/>
<path d="M23.6969 73.2422C23.6969 73.2422 20.5684 79.2263 20.5684 84.0743C20.5684 85.0975 26.5048 133.538 26.5048 133.538L35.4984 132.786L31.5538 88.2057L32.9658 78.6647L23.6969 73.2422Z" fill="#263238"/>
<path d="M43.7205 78.5454C43.7205 78.5454 41.6187 96.0394 40.6309 102.782C39.601 109.835 37.5704 111.174 37.5704 111.174L21.3222 131.899L14.9551 126.183L29.205 105.445C29.205 105.445 33.1108 77.9838 32.9748 78.6552C32.8387 79.3265 43.7205 78.5454 43.7205 78.5454Z" fill="#263238"/>
<path d="M37.2443 111.461C37.2017 111.539 37.1507 111.611 37.0921 111.678L36.6419 112.281L34.9352 114.47C33.5005 116.345 31.5346 118.908 29.3615 121.742C27.1884 124.575 25.2096 127.151 23.7457 128.981C23.0138 129.901 22.4147 130.634 21.9904 131.137L21.5014 131.712C21.4462 131.78 21.3867 131.845 21.3232 131.906C21.3652 131.829 21.4152 131.756 21.4722 131.689L21.9353 131.092L23.6453 128.904C25.08 127.029 27.0459 124.466 29.219 121.632C31.3921 118.798 33.3709 116.222 34.8348 114.392C35.5667 113.472 36.1658 112.74 36.5869 112.236L37.0791 111.662C37.1287 111.591 37.184 111.524 37.2443 111.461Z" fill="#455A64"/>
<path d="M28.0723 43.6733C28.0723 43.6733 24.9276 45.5551 23.9819 47.2238C23.0362 48.8925 18.0099 61.1028 18.2172 63.1007C18.4244 65.0987 23.1431 66.3284 23.1431 66.3284L28.0723 59.957L25.1349 57.972L28.0723 54.315V43.6733Z" fill="#C53F3F"/>
<path d="M33.1499 42.0502L28.0718 43.664C28.0718 43.664 25.7659 65.4961 24.6129 68.6302C23.8657 70.8264 23.3724 73.1005 23.1426 75.4083C23.1426 75.4083 23.7903 81.5118 30.9153 82.3478C38.0402 83.1838 43.7208 78.9942 43.7208 78.9942C43.7208 78.9942 47.986 68.2235 49.2426 59.0246C50.4992 49.8257 49.6313 44.5872 49.6313 44.5872L41.8197 41.792L33.1499 42.0502Z" fill="#C53F3F"/>
<path d="M48.1969 45.2424C47.9766 45.4684 44.8416 47.5405 43.7923 51.091C42.743 54.6414 41.5933 58.2984 41.5933 58.2984L37.5029 58.8213L39.8088 68.2235C39.8088 68.2235 44.738 67.7006 47.4617 63.2077C50.1854 58.7148 51.863 53.1793 51.863 53.1793C51.863 53.1793 51.5164 41.7985 48.1969 45.2424Z" fill="#C53F3F"/>
<path d="M23.1426 66.3414C23.1426 66.3414 34.562 68.6169 38.7042 63.7173L37.5026 59.5601C37.5026 59.5601 29.9599 61.3385 27.6022 60.5735L23.1426 66.3414Z" fill="#FFBE9D"/>
<path d="M38.9053 58.6435C38.9053 58.6435 40.6444 54.7702 40.8744 54.7218C41.1043 54.6734 44.4368 53.4985 44.4368 53.4985C44.5392 53.7701 44.5392 54.0694 44.4368 54.341L45.6643 54.5056C45.6643 54.5056 45.4829 55.2447 45.0748 55.348L45.5088 55.7289C45.2914 56.0177 45.0113 56.2538 44.6895 56.4196C44.5668 56.4809 44.4315 56.5128 44.2943 56.5128C44.1571 56.5128 44.0218 56.4809 43.8992 56.4196C43.8992 56.4196 44.0514 56.6972 43.3616 57.1297C42.6718 57.5622 41.4929 58.2013 41.4929 58.2013L38.9053 58.6435Z" fill="#FFBE9D"/>
<path d="M38.8926 58.6532C38.9638 58.4951 40.635 54.78 40.8649 54.7284C41.0948 54.6767 44.4274 53.518 44.4468 53.5083C44.5437 53.7786 44.5437 54.074 44.4468 54.3443L45.6483 54.4992C45.6483 54.5282 45.467 55.2254 45.0686 55.3416L45.4994 55.7193C45.28 56.0083 44.999 56.2453 44.6768 56.4132C44.5548 56.4689 44.4223 56.4977 44.2881 56.4977C44.154 56.4977 44.0214 56.4689 43.8995 56.4132C43.9189 56.4874 43.9351 56.736 43.3489 57.1136C42.6656 57.5397 41.4932 58.1788 41.4835 58.182L38.8926 58.6532ZM44.4501 53.5115C44.2655 53.5761 41.0981 54.6799 40.8876 54.7316C40.6771 54.7832 39.5371 57.2911 38.9444 58.6306L41.5061 58.182C41.5515 58.1562 42.7012 57.5364 43.3716 57.1104C44.042 56.6843 43.9092 56.4132 43.906 56.4132V56.3842L43.9319 56.4003C44.0538 56.4601 44.1879 56.4912 44.3237 56.4912C44.4596 56.4912 44.5937 56.4601 44.7156 56.4003C45.0337 56.2344 45.3112 56.0008 45.5285 55.716L45.0848 55.3287H45.101C45.4767 55.2351 45.6581 54.5896 45.6807 54.5024L44.476 54.3507C44.5692 54.077 44.56 53.779 44.4501 53.5115Z" fill="#EB996E"/>
<path d="M44.3497 54.354C43.641 54.6942 42.9069 54.979 42.154 55.2061C41.8495 55.3159 41.5451 55.3998 41.3054 55.5289C41.0928 55.6314 40.9174 55.7972 40.8035 56.0033C40.6059 56.3648 40.5314 56.6231 40.499 56.6134C40.5115 56.3782 40.5768 56.1488 40.6901 55.942C40.804 55.702 40.9925 55.505 41.2277 55.3804C41.5093 55.2533 41.7993 55.1454 42.0957 55.0576C42.8276 54.7652 43.5812 54.5299 44.3497 54.354Z" fill="#EB996E"/>
<path d="M45.1297 55.335C44.9434 55.4453 44.738 55.5197 44.5241 55.5544C44.1387 55.6577 43.5978 55.7449 43.0246 55.8998C42.5336 56.0253 42.0716 56.2445 41.6644 56.5453C41.3599 56.781 41.2239 56.9875 41.2012 56.9714C41.1786 56.9553 41.2822 56.7229 41.5834 56.4485C41.9843 56.1041 42.4616 55.8596 42.976 55.7352C43.5654 55.577 44.1095 55.5093 44.4949 55.4382C44.7029 55.3846 44.9154 55.35 45.1297 55.335Z" fill="#EB996E"/>
<path d="M42.0566 57.0878C42.2556 56.8207 42.5401 56.6294 42.8631 56.5456C43.1665 56.4032 43.5106 56.3724 43.8346 56.4584C43.8346 56.5133 43.4104 56.5423 42.9278 56.7166C42.4453 56.8909 42.102 57.1395 42.0566 57.0878Z" fill="#EB996E"/>
<path d="M37.8554 59.8282L28.2852 57.1621L25.4385 60.2575C25.4385 60.2575 35.1738 67.8619 39.6236 67.7392" fill="#FFBE9D"/>
<path d="M39.6243 67.7391C39.224 67.7664 38.8218 67.7382 38.4293 67.6552C37.3628 67.4308 36.3276 67.0786 35.3461 66.6062C32.8329 65.4797 29.5878 63.4592 26.2326 60.961L25.3971 60.3154L25.3193 60.2573L25.3873 60.1831L28.2406 57.091L28.2762 57.0522H28.328L35.2004 58.9889L37.1695 59.5634L37.6941 59.7215C37.7548 59.7392 37.8143 59.7607 37.8722 59.7861C37.8083 59.7825 37.7452 59.7705 37.6844 59.7506L37.1565 59.6183L35.1712 59.0889L28.2794 57.2039L28.3669 57.1781L25.5201 60.2767V60.1444L26.3525 60.7899C29.7141 63.2817 32.9398 65.3087 35.4206 66.4642C36.3918 66.9423 37.4141 67.3093 38.4681 67.5583C38.6326 67.5976 38.7991 67.6277 38.9669 67.6487C39.0901 67.6691 39.2145 67.682 39.3393 67.6875C39.4353 67.6988 39.5305 67.716 39.6243 67.7391Z" fill="#EB996E"/>
<path d="M44.1163 48.9604C44.1022 49.2181 44.0554 49.473 43.9771 49.719C43.8702 50.1837 43.7083 50.8196 43.5172 51.52C43.3261 52.2204 43.1448 52.853 43.0055 53.3049C42.9465 53.5563 42.8584 53.8 42.7432 54.0311C42.7573 53.7735 42.8041 53.5186 42.8824 53.2726C42.9893 52.8078 43.1512 52.172 43.3423 51.4716C43.5334 50.7712 43.7148 50.1418 43.854 49.6867C43.9138 49.4355 44.0018 49.1919 44.1163 48.9604Z" fill="#263238"/>
<path d="M43.6723 61.7193C43.6399 61.7193 43.5492 61.2481 43.3096 60.5122C43.1745 60.0833 42.9652 59.6813 42.691 59.3244C42.3661 58.8893 41.8905 58.5902 41.3567 58.4852C40.8103 58.4594 40.2633 58.5226 39.7374 58.6724L38.3901 58.9371C38.2203 58.9598 38.0539 59.0032 37.8946 59.0662C37.8376 59.0891 37.7859 59.1236 37.743 59.1675C37.7001 59.2114 37.6668 59.2637 37.6452 59.3212C37.6221 59.3718 37.6102 59.4269 37.6102 59.4825C37.6102 59.5382 37.6221 59.5932 37.6452 59.6439C37.6452 59.6439 37.5027 59.5568 37.5642 59.3212C37.5846 59.2519 37.619 59.1876 37.6652 59.1321C37.7114 59.0766 37.7685 59.0311 37.8331 58.9984C37.9968 58.9215 38.1699 58.8662 38.348 58.8338L39.692 58.5304C40.2407 58.3661 40.8137 58.2974 41.3858 58.327C41.9653 58.4397 42.4804 58.7673 42.827 59.2437C43.1062 59.6198 43.3127 60.0445 43.4359 60.496C43.5224 60.7939 43.5905 61.0968 43.6399 61.403C43.6652 61.5065 43.6761 61.6129 43.6723 61.7193Z" fill="#263238"/>
<path d="M45.0746 59.6697C44.7936 59.1694 44.4148 58.7304 43.9605 58.3786C43.1833 57.8331 42.3768 57.7331 42.3898 57.6911C42.564 57.6615 42.7427 57.6736 42.9112 57.7266C43.326 57.8173 43.7189 57.9884 44.0674 58.2301C44.4169 58.4731 44.7051 58.7935 44.9094 59.1662C45.0076 59.3168 45.0646 59.4904 45.0746 59.6697Z" fill="#263238"/>
<path d="M51.8626 53.1792C51.8528 53.248 51.8343 53.3152 51.8075 53.3793C51.7589 53.5278 51.6942 53.7021 51.6197 53.9442C51.4415 54.4541 51.2019 55.1513 50.9072 56.0066C50.6125 56.862 50.2433 57.9174 49.7348 59.031C49.2263 60.1445 48.6207 61.3388 47.8953 62.5556C47.2139 63.7028 46.346 64.7292 45.327 65.5929C44.4983 66.3016 43.5669 66.8815 42.5645 67.3132C41.8888 67.6024 41.1777 67.801 40.4497 67.9039C40.2522 67.9328 40.0532 67.9511 39.8538 67.9587C39.7849 67.9673 39.7153 67.9673 39.6465 67.9587C39.6465 67.9394 39.9315 67.9265 40.4367 67.8361C41.1521 67.7043 41.849 67.4876 42.5127 67.1906C44.6996 66.1816 46.5238 64.5291 47.7398 62.4556C48.4555 61.2581 49.0353 60.0445 49.5826 58.9567C50.1299 57.869 50.4635 56.8232 50.7841 55.9615C51.1047 55.0997 51.3638 54.396 51.5517 53.9151L51.7751 53.3632C51.7981 53.2991 51.8274 53.2375 51.8626 53.1792Z" fill="#263238"/>
<path d="M48.9029 45.4873C48.9223 45.5389 48.1159 45.8101 47.2188 46.3556C46.3217 46.901 45.6772 47.4465 45.6416 47.4078C46.508 46.4527 47.6455 45.7829 48.9029 45.4873Z" fill="#263238"/>
<path d="M27.6963 53.363C27.7292 52.7643 27.8236 52.1705 27.9781 51.591C28.0721 50.9985 28.225 50.4168 28.4347 49.8545C28.4039 50.4532 28.3106 51.0471 28.1562 51.6265C28.0621 52.2193 27.908 52.8011 27.6963 53.363Z" fill="#263238"/>
<path d="M41.0875 70.4473C40.9175 70.5468 40.7412 70.6352 40.5596 70.7119C40.388 70.7926 40.1742 70.8895 39.9119 70.9863C39.6496 71.0831 39.3775 71.2058 39.0537 71.3091C38.3004 71.573 37.5327 71.7939 36.7543 71.9707C34.8437 72.4059 32.8823 72.5785 30.9247 72.4839C30.1281 72.4459 29.3344 72.3618 28.5476 72.2322C28.2075 72.187 27.8999 72.116 27.644 72.0611C27.3882 72.0062 27.1518 71.9546 26.9671 71.9029C26.774 71.8622 26.5845 71.8061 26.4004 71.7351C26.5973 71.7513 26.7924 71.7848 26.9833 71.8352C27.1679 71.8739 27.3946 71.9223 27.6635 71.961C27.9323 71.9998 28.2302 72.0676 28.567 72.1063C29.2342 72.2031 30.0406 72.2774 30.9345 72.3161C32.8764 72.3921 34.8202 72.2207 36.7186 71.8061C37.4929 71.6378 38.2581 71.431 39.0116 71.1864C39.3354 71.0896 39.6204 70.9766 39.8763 70.8862C40.1321 70.7959 40.3459 70.7152 40.524 70.6442C40.7052 70.5608 40.8938 70.4949 41.0875 70.4473Z" fill="#263238"/>
<path d="M32.7093 75.7823C31.996 75.6917 31.2959 75.5173 30.6236 75.2627C29.932 75.0648 29.2666 74.7853 28.6416 74.4299C28.661 74.3815 29.5581 74.7204 30.6787 75.0755C31.367 75.277 32.0448 75.5129 32.7093 75.7823Z" fill="#263238"/>
<g opacity="0.3">
<path d="M36.6765 67.1839C36.0029 66.8998 35.3519 66.5157 34.6297 66.406C33.7488 66.2736 33.0104 66.5351 32.1295 66.6707C29.5062 67.0806 27.5469 66.7707 25.0725 66.6707L24.9365 67.4162C26.0247 68.2619 27.3979 68.533 28.7775 68.5072C30.0309 68.4846 31.2615 68.0779 32.5149 68.1134C33.5006 68.1933 34.4734 68.3883 35.4135 68.6944C37.0101 69.1172 38.6845 69.411 40.3135 69.1301C41.9425 68.8493 43.5294 67.9004 44.1998 66.4028C43.1071 67.1398 41.8488 67.5967 40.5364 67.7329C39.224 67.8692 37.8982 67.6806 36.6765 67.1839Z" fill="black"/>
</g>
<g opacity="0.3">
<path d="M28.9307 74.7788C29.4628 75.6587 30.1937 76.4025 31.0652 76.9511C31.9367 77.4997 32.9247 77.8379 33.9505 77.9387C34.3949 77.993 34.8458 77.9557 35.2751 77.829C35.4889 77.7647 35.6874 77.6582 35.8588 77.5156C36.0302 77.3731 36.1709 77.1975 36.2726 76.9995C35.7979 76.6901 35.2697 76.4712 34.7148 76.3539L28.9922 74.7853" fill="black"/>
</g>
<path d="M25.8436 60.1831L22.1548 60.3154C21.7856 60.3154 21.439 59.9926 21.2836 59.4665L18.4789 50.0191C18.2101 49.1186 18.5988 48.1148 19.2303 48.0825L24.5384 47.7597C24.94 47.7371 25.3124 48.1245 25.4517 48.728L27.3528 56.7165C27.7576 58.3788 26.9965 60.1411 25.8436 60.1831Z" fill="#455A64"/>
<path d="M23.246 56.2258C22.8315 56.6518 20.5191 54.7798 19.8357 54.9186C19.1524 55.0574 18.7411 55.4512 19.12 55.7416C19.4989 56.0321 20.4543 56.9811 20.6033 57.3813C20.6033 57.3813 20.6745 55.7061 20.4932 55.9773C20.3118 56.2484 20.0074 56.6809 20.4478 56.8713C20.8883 57.0618 20.2082 58.5368 20.5353 58.7208C21.0792 58.9805 21.6506 59.1786 22.2388 59.3115C22.8421 59.4964 23.4355 59.7119 24.0168 59.957C24.9081 60.3182 25.9013 60.3412 26.8085 60.0215L27.2716 59.8602C27.6234 59.7375 27.9279 59.5081 28.1422 59.2042C28.3565 58.9003 28.47 58.5371 28.4667 58.1656L28.4505 56.6389L29.001 55.406L28.0295 53.3338L26.4101 52.798L27.032 54.7185C26.3842 55.0412 25.322 55.2381 24.7649 54.9379C24.2079 54.6378 22.0769 52.514 21.672 52.7173C21.2672 52.9207 20.9077 53.408 21.2769 53.8728C21.6461 54.3376 23.6541 55.7836 23.2395 56.2129" fill="#FFBE9D"/>
<path d="M15.0039 126.086C15.0194 126.052 15.0378 126.019 15.059 125.989C15.1043 125.921 15.1626 125.827 15.2403 125.715L15.9431 124.666L18.5534 120.821L27.2038 108.179L29.1146 105.399V105.438C29.5453 100.274 29.9275 95.7261 30.1995 92.4533C30.342 90.8394 30.4586 89.5225 30.5234 88.6123C30.5655 88.1701 30.5979 87.8248 30.6205 87.5795C30.6205 87.4665 30.6432 87.3794 30.6497 87.3116C30.6448 87.2816 30.6448 87.2511 30.6497 87.2212C30.6539 87.2512 30.6539 87.2816 30.6497 87.3116C30.6497 87.3794 30.6497 87.4697 30.6497 87.5795C30.6303 87.828 30.6076 88.1734 30.5784 88.6156C30.5104 89.529 30.4133 90.8362 30.2902 92.4597C30.0311 95.7358 29.6684 100.287 29.2603 105.454V105.474V105.493L27.3495 108.272C23.9522 113.194 20.8723 117.652 18.6441 120.889L15.9884 124.701L15.2598 125.734L15.0687 125.999C15.0298 126.06 15.0071 126.089 15.0039 126.086Z" fill="#455A64"/>
<path d="M33.986 84.6328C34.0119 84.6748 33.1893 85.188 32.2793 85.9529C31.3692 86.7179 30.7215 87.4312 30.6826 87.3989C30.7835 87.2099 30.9136 87.0378 31.068 86.889C31.7541 86.1271 32.5446 85.4653 33.416 84.9233C33.5891 84.7966 33.7816 84.6985 33.986 84.6328Z" fill="#455A64"/>
<path d="M30.7661 87.2922C30.3956 87.2754 30.0379 87.1521 29.7362 86.9371C29.4059 86.7712 29.1322 86.5119 28.9492 86.1915C28.9848 86.156 29.3249 86.4949 29.8236 86.7951C30.3224 87.0953 30.7661 87.2438 30.7661 87.2922Z" fill="#455A64"/>
<path d="M43.0152 83.1995C43.0152 83.2479 42.1278 83.1414 41.0364 83.0801C39.945 83.0187 39.0609 83.0252 39.0576 82.9768C39.715 82.8715 40.3832 82.8498 41.0461 82.9122C41.7122 82.9232 42.374 83.0198 43.0152 83.1995Z" fill="#455A64"/>
<path d="M24.0723 79.3585C24.0723 79.3585 23.9492 79.4521 23.7095 79.5102C23.3958 79.5812 23.0709 79.5889 22.7542 79.5328C22.4384 79.4769 22.1375 79.3572 21.87 79.181C21.666 79.0454 21.5656 78.9292 21.5818 78.9131C21.9632 79.1134 22.3678 79.2662 22.7865 79.3682C23.214 79.4162 23.6456 79.4129 24.0723 79.3585Z" fill="#455A64"/>
<path d="M51.0599 52.3109C50.981 52.3732 50.8938 52.4242 50.8008 52.4626C50.5558 52.5843 50.3013 52.6858 50.0397 52.766C49.6531 52.8901 49.2565 52.9808 48.8544 53.0372C48.3592 53.0981 47.8595 53.1143 47.3614 53.0856C46.8642 53.0461 46.3718 52.9596 45.891 52.8274C45.5002 52.7164 45.1199 52.5717 44.7543 52.3949C44.5075 52.2781 44.2703 52.1421 44.045 51.9882C43.9576 51.9386 43.878 51.8766 43.8086 51.8042C43.828 51.7784 44.181 52.014 44.8061 52.2883C45.1716 52.4461 45.5483 52.5767 45.9331 52.6789C46.4061 52.7979 46.8881 52.8778 47.3743 52.9177C47.8613 52.9472 48.3499 52.9353 48.8349 52.8822C49.23 52.8358 49.6208 52.7592 50.0041 52.6531C50.6615 52.4691 51.0469 52.2819 51.0599 52.3109Z" fill="white"/>
<path d="M25.9082 50.8389C26.2196 50.8496 26.5301 50.8798 26.8377 50.9292C27.1502 50.924 27.4627 50.937 27.7736 50.968C27.4705 51.0753 27.1484 51.1193 26.8274 51.0971C26.5065 51.0748 26.1936 50.987 25.9082 50.8389Z" fill="white"/>
<path d="M43.4617 50.7487C43.4617 50.7971 40.0191 51.1328 35.7635 51.504C31.508 51.8751 28.0491 52.1495 28.0459 52.0882C28.0427 52.0268 31.4886 51.7041 35.7473 51.3361C40.0061 50.9682 43.4585 50.7035 43.4617 50.7487Z" fill="white"/>
<path d="M41.0875 43.1797C41.242 42.8808 41.3167 42.5473 41.3045 42.2114L40.9159 29.6621C41.0648 26.1698 39.1508 23.1713 35.6402 23.1196H35.3163C33.7413 23.1883 32.2501 23.8455 31.1393 24.9603C30.0284 26.0752 29.3795 27.566 29.3216 29.136C29.2083 32.1636 29.1208 35.5107 29.2115 37.1278C29.3993 40.4781 32.774 40.8525 32.774 40.8525L32.8841 42.1597C32.8841 42.1597 32.6218 44.4191 35.258 45.1937C37.2821 45.7876 39.5038 44.5159 40.4398 43.9027C40.7137 43.7203 40.9366 43.4715 41.0875 43.1797Z" fill="#FFBE9D"/>
<path d="M32.7578 40.875C34.3204 40.808 35.8309 40.2961 37.1105 39.3999C37.1105 39.3999 36.1778 41.8562 32.8096 41.7012L32.7578 40.875Z" fill="#EB996E"/>
<path d="M31.1973 31.8698C31.2007 31.9945 31.2532 32.1129 31.3435 32.1993C31.4338 32.2857 31.5547 32.3331 31.6798 32.3314C31.7411 32.334 31.8023 32.3243 31.8598 32.3028C31.9172 32.2813 31.9698 32.2484 32.0142 32.2063C32.0586 32.1641 32.0941 32.1134 32.1184 32.0573C32.1428 32.0011 32.1555 31.9407 32.1559 31.8795C32.1525 31.7545 32.1001 31.6358 32.0099 31.5489C31.9196 31.462 31.7988 31.4138 31.6733 31.4147C31.612 31.413 31.5509 31.4235 31.4936 31.4455C31.4364 31.4675 31.3841 31.5007 31.3398 31.543C31.2955 31.5854 31.2601 31.6361 31.2356 31.6922C31.2111 31.7483 31.1981 31.8087 31.1973 31.8698Z" fill="#263238"/>
<path d="M30.1191 30.7695C30.1806 30.8308 30.5336 30.5468 31.0486 30.5242C31.5635 30.5016 31.9586 30.7437 32.0201 30.6791C32.0817 30.6146 31.9813 30.5403 31.8096 30.4274C31.5802 30.2816 31.3105 30.2116 31.0388 30.2272C30.7699 30.2363 30.511 30.3313 30.3004 30.4984C30.1353 30.621 30.0834 30.7437 30.1191 30.7695Z" fill="#263238"/>
<path d="M36.2012 31.8698C36.2046 31.9945 36.2571 32.1128 36.3474 32.1992C36.4377 32.2856 36.5586 32.3331 36.6837 32.3313C36.745 32.3339 36.8062 32.3242 36.8637 32.3027C36.9211 32.2812 36.9737 32.2484 37.0181 32.2062C37.0625 32.164 37.098 32.1133 37.1223 32.0572C37.1467 32.0011 37.1594 31.9406 37.1598 31.8795C37.1564 31.7547 37.1039 31.6364 37.0136 31.55C36.9232 31.4636 36.8024 31.4161 36.6772 31.4179C36.6159 31.4153 36.5547 31.425 36.4973 31.4465C36.4398 31.468 36.3873 31.5008 36.3429 31.543C36.2984 31.5852 36.263 31.6359 36.2386 31.692C36.2143 31.7482 36.2016 31.8086 36.2012 31.8698Z" fill="#263238"/>
<path d="M35.2003 30.6465C35.2619 30.7046 35.6149 30.4205 36.1331 30.4012C36.6512 30.3818 37.0399 30.6207 37.1047 30.5561C37.1694 30.4916 37.0658 30.4141 36.8941 30.3044C36.665 30.1575 36.3953 30.0863 36.1233 30.101C35.8542 30.1121 35.5956 30.2082 35.3849 30.3754C35.2198 30.5045 35.1712 30.6207 35.2003 30.6465Z" fill="#263238"/>
<path d="M33.4902 34.5454C33.2144 34.472 32.9303 34.434 32.6449 34.4324C32.5121 34.4324 32.3858 34.4034 32.3599 34.313C32.3419 34.1786 32.3668 34.042 32.4311 33.9225L32.7777 32.9025C33.257 31.4533 33.6003 30.2623 33.5387 30.2429C33.4772 30.2235 33.0432 31.3855 32.5671 32.8251C32.4538 33.1833 32.3437 33.5222 32.2433 33.8482C32.1689 34.0112 32.1529 34.1946 32.1979 34.3679C32.2186 34.4141 32.2499 34.4549 32.2893 34.4868C32.3287 34.5188 32.375 34.5411 32.4246 34.5519C32.4979 34.5687 32.5731 34.5752 32.6481 34.5712C32.9287 34.5983 33.2117 34.5896 33.4902 34.5454Z" fill="#263238"/>
<path d="M34.9766 28.6326C35.0317 28.7714 35.5466 28.681 36.1555 28.7294C36.7643 28.7778 37.2631 28.9199 37.3376 28.7907C37.37 28.7262 37.2793 28.6003 37.0752 28.468C36.8061 28.3103 36.5029 28.2195 36.1911 28.2033C35.8794 28.1789 35.5664 28.2287 35.2778 28.3486C35.0608 28.4518 34.954 28.568 34.9766 28.6326Z" fill="#263238"/>
<path d="M30.2415 29.2717C30.3354 29.3847 30.6852 29.2459 31.1159 29.2233C31.5466 29.2007 31.9094 29.2653 31.9871 29.1394C32.0195 29.0781 31.9579 28.9651 31.796 28.8618C31.579 28.7349 31.3277 28.6785 31.077 28.7004C30.8253 28.7159 30.5844 28.8083 30.3872 28.9651C30.2415 29.091 30.1961 29.2136 30.2415 29.2717Z" fill="#263238"/>
<path d="M40.5176 32.964C40.5162 32.8406 40.54 32.7183 40.5875 32.6043C40.635 32.4904 40.7053 32.3872 40.7941 32.3012C40.8828 32.2152 40.9882 32.148 41.1038 32.1038C41.2194 32.0596 41.3428 32.0393 41.4666 32.0442C42.0948 32.0764 42.8073 32.3992 42.8235 33.6935C42.8494 35.9884 40.5338 35.543 40.5274 35.4752C40.5209 35.4074 40.5209 33.9227 40.5176 32.964Z" fill="#FFBE9D"/>
<path d="M41.0204 34.6071C41.0204 34.6071 41.0593 34.6362 41.1273 34.6652C41.2241 34.7032 41.3317 34.7032 41.4285 34.6652C41.5761 34.5691 41.6955 34.4358 41.7746 34.2787C41.8537 34.1217 41.8896 33.9465 41.8786 33.7712C41.881 33.5743 41.8401 33.3793 41.7588 33.1999C41.737 33.1282 41.6978 33.0631 41.6447 33.0102C41.5916 32.9572 41.5262 32.9182 41.4544 32.8965C41.4079 32.8846 41.3588 32.8894 41.3155 32.9101C41.2723 32.9307 41.2378 32.9659 41.218 33.0094C41.1888 33.074 41.2018 33.1192 41.192 33.1224C41.1823 33.1256 41.1402 33.0869 41.1597 32.9901C41.1711 32.933 41.202 32.8817 41.2471 32.8448C41.3106 32.7984 41.3889 32.7766 41.4673 32.7835C41.5621 32.8015 41.6508 32.8433 41.725 32.9048C41.7992 32.9663 41.8565 33.0457 41.8916 33.1353C41.9927 33.3353 42.0427 33.557 42.0373 33.7808C42.0373 34.2424 41.7977 34.6781 41.4641 34.7782C41.4027 34.7975 41.3377 34.8023 41.2742 34.7922C41.2107 34.7821 41.1504 34.7574 41.0981 34.7201C41.0236 34.662 41.0107 34.6104 41.0204 34.6071Z" fill="#EB996E"/>
<path d="M29.3254 29.0651C29.293 29.5299 28.6971 27.9612 28.9368 27.561C28.7695 27.6078 28.5942 27.6184 28.4225 27.5919C28.2508 27.5655 28.0868 27.5027 27.9416 27.4077C27.7964 27.3127 27.6733 27.1877 27.5807 27.0413C27.488 26.8948 27.428 26.7303 27.4046 26.5587C27.3812 26.3872 27.395 26.2126 27.4451 26.0469C27.4952 25.8811 27.5804 25.728 27.6949 25.5978C27.8094 25.4676 27.9506 25.3634 28.109 25.2923C28.2673 25.2212 28.4392 25.1847 28.6129 25.1854C28.4954 24.9753 28.4514 24.7321 28.4878 24.4943C28.5241 24.2565 28.6388 24.0375 28.8137 23.8717C29.0169 23.7325 29.2497 23.6419 29.4938 23.6071C29.4867 23.3227 29.5536 23.0414 29.6881 22.7905C29.8301 22.5151 30.0334 22.2757 30.2824 22.0906C30.5314 21.9056 30.8197 21.7797 31.125 21.7227C31.4304 21.6657 31.7447 21.6791 32.0441 21.7618C32.3435 21.8445 32.6199 21.9943 32.8522 22.1998C33.047 21.9361 33.3033 21.7236 33.599 21.5807C33.8946 21.4377 34.2207 21.3687 34.5491 21.3795C34.8775 21.3903 35.1984 21.4806 35.4839 21.6427C35.7694 21.8047 36.0111 22.0336 36.188 22.3095C36.4301 22.1618 36.7019 22.0693 36.9841 22.0388C37.2663 22.0082 37.5518 22.0404 37.82 22.133C38.0882 22.2256 38.3325 22.3763 38.5352 22.5743C38.738 22.7722 38.8942 23.0125 38.9927 23.2778C39.2801 23.1239 39.6101 23.0674 39.9326 23.1169C40.2551 23.1664 40.5527 23.3192 40.7804 23.5522C40.9366 23.7722 41.1076 23.9814 41.2921 24.1784C41.5568 24.3423 41.8366 24.4806 42.1277 24.5915C42.3312 24.7138 42.5052 24.8791 42.6374 25.0759C42.7696 25.2727 42.8567 25.4961 42.8926 25.7302C42.9284 25.9644 42.9122 26.2035 42.8449 26.4306C42.7776 26.6578 42.661 26.8674 42.5033 27.0446C42.8357 27.2859 43.1257 27.5803 43.3616 27.916C43.4787 28.0845 43.5539 28.2783 43.5809 28.4815C43.6079 28.6847 43.586 28.8914 43.517 29.0844C43.3227 29.5363 42.8078 29.7849 42.6167 30.24C42.5292 30.4465 42.5195 30.6821 42.4353 30.8855C42.3593 31.0549 42.2482 31.2064 42.1092 31.3299C41.9702 31.4534 41.8065 31.5462 41.6289 31.602C41.4119 32.5252 40.7642 32.7769 40.7448 33.048C40.5569 35.9013 39.3781 34.2455 38.7854 28.2291C38.6461 26.8154 39.1643 26.0956 38.047 25.2274C37.9001 25.4072 37.7628 25.5947 37.6357 25.789C37.464 25.9917 37.2516 26.1563 37.0123 26.2723C36.7729 26.3883 36.5119 26.4531 36.2459 26.4625C35.9799 26.4719 35.7149 26.4258 35.4679 26.327C35.2209 26.2282 34.9973 26.0791 34.8116 25.889C34.6832 26.1109 34.5037 26.2991 34.2879 26.4381C34.0721 26.5771 33.8261 26.6629 33.5705 26.6884C33.3148 26.714 33.0567 26.6785 32.8175 26.585C32.5783 26.4914 32.3648 26.3425 32.1948 26.1505C31.7803 26.5184 30.8184 27.1414 30.0897 26.4733C29.6448 27.2698 29.3837 28.1553 29.3254 29.0651Z" fill="#263238"/>
<path d="M33.3574 35.7009C33.431 35.9145 33.5346 36.1166 33.6651 36.3013C33.7318 36.3921 33.8171 36.4679 33.9154 36.5235C34.0136 36.5792 34.1226 36.6134 34.2351 36.624C34.3557 36.6263 34.4749 36.5978 34.5815 36.5414C34.688 36.4849 34.7784 36.4023 34.8439 36.3013C34.9732 36.095 35.0333 35.8531 35.0156 35.6105C35.0156 35.3943 34.9054 35.1328 34.6917 35.107C34.6009 35.1054 34.511 35.1253 34.4294 35.1651L33.2861 35.6267" fill="#EB996E"/>
<path d="M33.8041 36.637C34.0101 36.6473 34.2162 36.621 34.413 36.5595C34.6122 36.4815 34.7759 36.3334 34.8728 36.1431C34.9252 36.0263 34.9522 35.8999 34.9522 35.772C34.9522 35.644 34.9252 35.5176 34.8728 35.4008C34.8464 35.3399 34.8127 35.2825 34.7724 35.2297C34.7303 35.1845 34.7368 35.1845 34.6882 35.1942C34.6251 35.2135 34.5634 35.2372 34.5036 35.2652L34.319 35.3394C34.0729 35.4395 33.8527 35.5234 33.6713 35.5944C33.476 35.6882 33.2674 35.7513 33.0527 35.7816C33.222 35.6447 33.4123 35.5357 33.6163 35.4589C33.7944 35.3717 34.0114 35.2717 34.264 35.1651L34.4486 35.0845C34.5156 35.0508 34.5849 35.0217 34.6559 34.9973C34.7103 34.9781 34.7698 34.9781 34.8243 34.9973C34.8746 35.0173 34.9183 35.0508 34.9506 35.0941C35.003 35.1603 35.0466 35.233 35.0801 35.3104C35.1414 35.4555 35.17 35.6122 35.1638 35.7694C35.1577 35.9267 35.1169 36.0807 35.0445 36.2206C34.9832 36.3322 34.9005 36.4307 34.801 36.5105C34.7016 36.5902 34.5873 36.6497 34.4648 36.6854C34.3057 36.7377 34.1352 36.7444 33.9725 36.7048C33.8527 36.6854 33.7976 36.6467 33.8041 36.637Z" fill="#263238"/>
<path d="M24.2212 34.5683L21.9898 30.6466C23.3733 28.4115 23.8678 25.7414 23.3761 23.1612C22.8844 20.5811 21.4421 18.2776 19.3327 16.7036C17.2232 15.1296 14.5993 14.3989 11.9768 14.6552C9.3542 14.9115 6.92269 16.1363 5.16024 18.0887C3.3978 20.0411 2.43191 22.5799 2.45247 25.2061C2.47303 27.8322 3.47854 30.3557 5.27133 32.2805C7.06413 34.2053 9.51451 35.3921 12.1408 35.6076C14.767 35.823 17.3792 35.0517 19.4637 33.445L24.2212 34.5683Z" fill="#FAFAFA"/>
<path d="M24.2216 34.5682L19.4511 33.4837H19.4025L19.4349 33.445L19.4803 33.4901C18.812 34.0047 18.0847 34.4381 17.3136 34.7812C16.3962 35.1916 15.4244 35.4688 14.428 35.6043C13.8756 35.6816 13.3175 35.7096 12.7601 35.6882C12.4751 35.6882 12.1804 35.6656 11.8889 35.6398L11.0113 35.4978C8.36046 34.9777 6.00759 33.4717 4.43038 31.2856C3.5537 30.0766 2.94739 28.6941 2.65238 27.2317C2.3422 25.6825 2.38091 24.084 2.76573 22.5515C3.16539 20.9535 3.94268 19.4739 5.03277 18.2361L5.4635 17.7649C5.60276 17.6067 5.77117 17.4744 5.92663 17.3292C6.08208 17.1839 6.23106 17.0354 6.4027 16.9128L6.90793 16.5384C7.07417 16.4107 7.24952 16.2953 7.43259 16.193L7.96696 15.8702L8.524 15.5991C8.70065 15.5092 8.88231 15.4295 9.06809 15.3603C10.567 14.7711 12.1796 14.5251 13.7868 14.6405C15.3091 14.7469 16.7889 15.1878 18.12 15.9316C20.513 17.2618 22.3019 19.4571 23.1172 22.0642C23.4446 23.1648 23.6029 24.3085 23.5868 25.4564C23.5598 26.4585 23.3864 27.4512 23.0719 28.4033C22.8091 29.1947 22.4548 29.953 22.0161 30.6627V30.6207L24.2216 34.5585L21.9546 30.653C22.3887 29.9435 22.7366 29.1851 22.9909 28.3936C23.2975 27.4479 23.4655 26.463 23.4897 25.4694C23.5081 24.325 23.352 23.1844 23.0265 22.0867C22.2166 19.5067 20.4442 17.3347 18.0747 16.0187C16.7557 15.2932 15.2931 14.8646 13.79 14.7631C12.2013 14.6515 10.6076 14.8964 9.12638 15.4797C8.93584 15.5512 8.74981 15.6342 8.56934 15.7282L8.01877 15.9961L7.49088 16.3189C7.31118 16.4149 7.13807 16.5228 6.9727 16.6417L6.47719 17.029C6.30878 17.1484 6.15333 17.3033 6.00759 17.4389C5.86185 17.5745 5.68373 17.71 5.54771 17.8682L5.12345 18.333C4.05066 19.5571 3.28675 21.0189 2.89528 22.5967C2.5129 24.1061 2.46977 25.6811 2.76897 27.2091C3.06373 28.6555 3.66554 30.0223 4.53402 31.2179C6.08635 33.376 8.40021 34.8691 11.0113 35.3977L11.8922 35.53C12.1836 35.5559 12.4719 35.5655 12.7569 35.5817C13.3087 35.6034 13.8613 35.5775 14.4086 35.5042C15.3986 35.3741 16.3649 35.1035 17.278 34.7005C18.045 34.3555 18.7689 33.9222 19.4349 33.4095L19.6292 33.261L19.4803 33.4546L19.4608 33.403L24.2216 34.5682Z" fill="#263238"/>
<path d="M10.0555 25.1501C10.0555 25.3608 9.99278 25.5667 9.87534 25.7419C9.75791 25.917 9.59099 26.0535 9.39571 26.1342C9.20042 26.2148 8.98553 26.2359 8.77821 26.1948C8.5709 26.1537 8.38046 26.0522 8.231 25.9033C8.08153 25.7543 7.97974 25.5645 7.9385 25.3579C7.89727 25.1513 7.91843 24.9371 7.99932 24.7425C8.08021 24.5479 8.2172 24.3815 8.39295 24.2645C8.56871 24.1474 8.77534 24.085 8.98671 24.085C9.27016 24.085 9.542 24.1972 9.74243 24.3969C9.94286 24.5967 10.0555 24.8676 10.0555 25.1501Z" fill="#263238"/>
<path d="M14.3338 25.1501C14.3338 25.3608 14.2711 25.5667 14.1537 25.7419C14.0362 25.917 13.8693 26.0535 13.674 26.1342C13.4787 26.2148 13.2638 26.2359 13.0565 26.1948C12.8492 26.1537 12.6588 26.0522 12.5093 25.9033C12.3599 25.7543 12.2581 25.5645 12.2168 25.3579C12.1756 25.1513 12.1968 24.9371 12.2776 24.7425C12.3585 24.5479 12.4955 24.3815 12.6713 24.2645C12.847 24.1474 13.0537 24.085 13.265 24.085C13.5485 24.085 13.8203 24.1972 14.0207 24.3969C14.2212 24.5967 14.3338 24.8676 14.3338 25.1501Z" fill="#263238"/>
<path d="M18.6022 24.6174C18.7077 24.7998 18.7565 25.0094 18.7426 25.2196C18.7286 25.4297 18.6524 25.631 18.5237 25.798C18.3949 25.9651 18.2194 26.0903 18.0192 26.1579C17.8191 26.2255 17.6033 26.2324 17.3992 26.1779C17.1951 26.1233 17.0118 26.0096 16.8725 25.8513C16.7332 25.6929 16.6441 25.4969 16.6166 25.2881C16.589 25.0793 16.6241 24.867 16.7176 24.6781C16.811 24.4892 16.9586 24.3322 17.1416 24.2268C17.2632 24.1568 17.3975 24.1114 17.5367 24.0931C17.676 24.0748 17.8175 24.0841 17.9531 24.1204C18.0888 24.1566 18.2159 24.2192 18.3273 24.3045C18.4387 24.3898 18.5321 24.4961 18.6022 24.6174Z" fill="#263238"/>
<path d="M125.409 106.052V102.108C120.473 102.108 121.299 99.0673 121.299 88.9453C121.299 81.9929 121.516 78.2939 118.727 78.2939C116.137 78.2939 115.534 80.095 115.534 88.006C115.534 102.663 117.497 106.052 125.409 106.052Z" fill="#455A64"/>
<path d="M130.559 118.256V114.315C135.497 114.315 134.672 111.271 134.672 101.149C134.672 94.197 134.455 90.498 137.243 90.498C139.834 90.498 140.433 92.2991 140.433 100.207C140.433 114.864 138.474 118.256 130.559 118.256Z" fill="#455A64"/>
<g opacity="0.3">
<path d="M132.288 114.131L133.059 118.111L131.714 118.23L131.514 114.266L132.288 114.131Z" fill="black"/>
</g>
<path d="M128.12 65.8027C124.211 65.8027 124.499 70.8992 124.499 77.1416V126.806H131.74V77.1545C131.74 70.9122 132.029 65.8027 128.12 65.8027Z" fill="#455A64"/>
<path d="M126.015 126.951C126.015 126.951 126.015 126.9 126.015 126.793C126.015 126.687 126.015 126.525 126.015 126.328V124.547C126.015 122.985 126.041 120.735 126.057 117.962C126.109 112.395 126.183 104.729 126.261 96.2368C126.339 87.7448 126.455 80.0791 126.52 74.5113C126.539 73.1202 126.555 71.8614 126.636 70.7575C126.699 69.8125 126.834 68.8737 127.041 67.9494C127.174 67.3661 127.353 66.7942 127.576 66.2388C127.647 66.0483 127.718 65.916 127.76 65.8095L127.832 65.6675C127.818 65.7191 127.8 65.7698 127.78 65.8192C127.744 65.916 127.676 66.058 127.608 66.2517C127.402 66.8105 127.237 67.3833 127.113 67.9656C126.917 68.8875 126.792 69.823 126.74 70.764C126.669 71.8646 126.659 73.1234 126.649 74.5113C126.598 80.0791 126.526 87.7448 126.445 96.2401C126.364 104.735 126.254 112.395 126.186 117.962C126.144 120.738 126.112 122.985 126.086 124.547C126.086 125.318 126.06 125.919 126.05 126.338C126.05 126.535 126.05 126.69 126.05 126.803C126.042 126.853 126.03 126.903 126.015 126.951Z" fill="#263238"/>
<path d="M129.282 126.88C129.282 126.88 129.282 126.825 129.282 126.722C129.282 126.619 129.282 126.454 129.282 126.257V124.475C129.282 122.916 129.298 120.68 129.311 117.917C129.353 112.375 129.415 104.728 129.48 96.2913C129.545 87.8542 129.645 80.2013 129.7 74.6659C129.719 73.2844 129.729 72.0321 129.681 70.9347C129.65 69.9965 129.564 69.0609 129.421 68.133C129.33 67.5472 129.207 66.9666 129.055 66.3933C129.004 66.2029 128.962 66.0544 128.932 65.9447C128.903 65.8349 128.894 65.793 128.894 65.793C129.169 66.5472 129.37 67.3267 129.493 68.1201C129.646 69.0506 129.743 69.9894 129.784 70.9314C129.842 72.0321 129.839 73.2844 129.83 74.6691C129.787 80.211 129.729 87.8574 129.664 96.2945C129.6 104.732 129.499 112.381 129.441 117.92C129.405 120.68 129.376 122.92 129.353 124.475C129.353 125.244 129.328 125.841 129.321 126.257C129.321 126.454 129.321 126.609 129.321 126.722C129.321 126.835 129.282 126.88 129.282 126.88Z" fill="#263238"/>
<path d="M131.812 118.191C131.642 116.857 131.596 115.51 131.673 114.167C131.786 114.831 131.84 115.504 131.835 116.177C131.885 116.848 131.878 117.522 131.812 118.191Z" fill="#263238"/>
<path d="M137.438 90.5527C137.438 90.5527 137.438 90.6528 137.457 90.8368C137.477 91.0207 137.457 91.3112 137.477 91.6534C137.477 92.3796 137.496 93.3996 137.512 94.6519C137.512 97.2018 137.545 100.691 137.567 104.545C137.567 106.481 137.567 108.334 137.221 109.99C136.957 111.47 136.322 112.86 135.375 114.031C134.739 114.822 133.917 115.444 132.982 115.842C132.642 115.989 132.283 116.086 131.916 116.132C132.269 116.033 132.616 115.915 132.956 115.777C133.862 115.361 134.656 114.734 135.271 113.95C136.187 112.787 136.798 111.415 137.049 109.958C137.373 108.321 137.389 106.478 137.373 104.548V94.6519C137.373 93.3996 137.389 92.3925 137.393 91.6534C137.393 91.3306 137.393 91.0401 137.409 90.8368C137.41 90.7414 137.42 90.6464 137.438 90.5527Z" fill="#263238"/>
<path d="M124.496 101.953C124.587 102.703 124.617 103.458 124.587 104.213C124.618 104.967 124.587 105.722 124.496 106.472C124.405 105.722 124.374 104.967 124.405 104.213C124.374 103.458 124.405 102.703 124.496 101.953Z" fill="#263238"/>
<path d="M118.533 78.3071C118.543 78.4037 118.543 78.501 118.533 78.5976C118.533 78.8042 118.533 79.0785 118.533 79.4271C118.514 80.163 118.482 81.2024 118.446 82.4741C118.371 85.0562 118.223 88.6067 118.271 92.5283C118.32 94.4907 118.303 96.3725 118.712 98.0153C119.013 99.4877 119.667 100.865 120.619 102.031C121.274 102.805 122.127 103.389 123.087 103.722C123.443 103.828 123.807 103.907 124.175 103.958C123.798 103.964 123.423 103.907 123.064 103.79C122.078 103.476 121.198 102.896 120.522 102.115C119.638 101.146 118.945 99.7163 118.546 98.0541C118.148 96.3918 118.135 94.4843 118.09 92.5251C118.038 88.5905 118.206 85.0368 118.316 82.4644C118.378 81.1894 118.427 80.1534 118.462 79.4175C118.482 79.0721 118.498 78.7945 118.511 78.5879C118.511 78.4939 118.518 78.4 118.533 78.3071Z" fill="#263238"/>
<g opacity="0.3">
<path d="M123.515 105.971L123.66 101.92L124.502 102.062V106.032C124.502 106.032 123.66 105.984 123.515 105.971Z" fill="black"/>
</g>
<path d="M116.321 91.7051C116.052 91.8347 115.759 91.9093 115.46 91.9245C115.17 91.9981 114.868 92.0124 114.572 91.9665C114.841 91.8333 115.134 91.7574 115.434 91.7438C115.724 91.6702 116.026 91.657 116.321 91.7051Z" fill="#263238"/>
<path d="M116.234 87.7834C115.933 87.8132 115.63 87.7836 115.34 87.6962C115.041 87.6675 114.75 87.5785 114.485 87.4348C115.086 87.4289 115.682 87.5476 116.234 87.7834Z" fill="#263238"/>
<path d="M114.647 81.5088C114.971 81.552 115.277 81.6825 115.532 81.8864C115.979 82.1834 116.257 82.532 116.221 82.5546C115.941 82.4089 115.675 82.2359 115.428 82.0381C115.15 81.8896 114.888 81.7122 114.647 81.5088Z" fill="#263238"/>
<path d="M117.196 77.5C117.395 77.7474 117.542 78.0315 117.63 78.336C117.775 78.6189 117.866 78.9266 117.896 79.243C117.553 78.7118 117.316 78.1202 117.196 77.5Z" fill="#263238"/>
<path d="M120.801 77.7681C120.696 78.1533 120.532 78.5202 120.315 78.8558C120.151 79.2211 119.932 79.5595 119.667 79.8596C119.773 79.4732 119.938 79.1052 120.156 78.7686C120.319 78.4048 120.537 78.0675 120.801 77.7681Z" fill="#263238"/>
<path d="M122.006 82.4676C121.521 82.7297 120.983 82.8787 120.432 82.9033C120.658 82.7408 120.918 82.6306 121.193 82.5806C121.452 82.4849 121.73 82.4463 122.006 82.4676Z" fill="#263238"/>
<path d="M119.994 87.5219C119.955 87.5541 119.729 87.3669 119.489 87.1023C119.249 86.8376 119.081 86.5955 119.12 86.5632C119.159 86.531 119.382 86.7149 119.625 86.9796C119.868 87.2443 120.033 87.4864 119.994 87.5219Z" fill="#263238"/>
<path d="M121.646 92.5924C121.61 92.6279 121.289 92.3859 120.927 92.0469C120.564 91.708 120.302 91.4014 120.337 91.3691C120.373 91.3369 120.693 91.5757 121.053 91.9146C121.412 92.2535 121.681 92.5472 121.646 92.5924Z" fill="#263238"/>
<path d="M116.758 94.7553C116.794 94.7908 116.509 95.1135 116.111 95.475C115.896 95.7165 115.638 95.9158 115.35 96.0625C115.314 96.0237 115.599 95.701 115.997 95.3395C116.396 94.978 116.723 94.7165 116.758 94.7553Z" fill="#263238"/>
<path d="M117.371 99.1996C117.322 99.1834 117.371 98.8768 117.501 98.5153C117.63 98.1538 117.76 97.8698 117.808 97.8924C117.857 97.915 117.808 98.2151 117.675 98.5734C117.543 98.9317 117.42 99.2125 117.371 99.1996Z" fill="#263238"/>
<path d="M117.821 104.345C117.893 103.965 118.025 103.599 118.213 103.26C118.348 102.897 118.537 102.557 118.773 102.25C118.702 102.63 118.57 102.996 118.382 103.334C118.249 103.698 118.06 104.039 117.821 104.345Z" fill="#263238"/>
<path d="M120.801 106.695C120.798 106.012 120.918 105.334 121.157 104.693C121.16 105.376 121.04 106.054 120.801 106.695Z" fill="#263238"/>
<path d="M122.358 98.9158C122.072 98.9433 121.783 98.9114 121.51 98.8222C121.224 98.7899 120.95 98.6974 120.703 98.551C120.989 98.5192 121.279 98.5511 121.552 98.6446C121.837 98.6769 122.112 98.7694 122.358 98.9158Z" fill="#263238"/>
<path d="M122.006 95.8883C121.767 95.9322 121.522 95.9178 121.29 95.8464C120.901 95.7754 120.597 95.6753 120.607 95.6269C120.616 95.5785 120.931 95.5946 121.322 95.6656C121.714 95.7366 122.015 95.8367 122.006 95.8883Z" fill="#263238"/>
<g opacity="0.3">
<path d="M118.533 78.523C118.66 78.523 118.734 80.0884 118.634 82.6027C118.585 83.8615 118.498 85.356 118.401 87.0085C118.304 88.6611 118.187 90.4815 118.148 92.3794C118.075 94.1427 118.226 95.9081 118.595 97.634C118.755 98.3809 118.971 99.1147 119.243 99.8289C119.485 100.438 119.8 101.016 120.182 101.549C120.733 102.325 121.472 102.95 122.329 103.366C122.944 103.663 123.327 103.757 123.301 103.831C123.275 103.905 122.886 103.909 122.183 103.699C121.192 103.373 120.318 102.766 119.667 101.953C119.213 101.398 118.835 100.786 118.543 100.132C118.217 99.3913 117.957 98.6235 117.766 97.8374C117.329 96.0426 117.146 94.1957 117.222 92.3503C117.264 90.4137 117.403 88.5933 117.546 86.9375C117.688 85.2817 117.844 83.797 117.973 82.5479C118.245 80.0626 118.397 78.5197 118.533 78.523Z" fill="black"/>
</g>
<path d="M135.423 108.605C134.9 108.73 134.354 108.73 133.83 108.605C134.354 108.485 134.899 108.485 135.423 108.605Z" fill="#263238"/>
<path d="M135.375 104.777C135.116 104.812 134.852 104.786 134.604 104.703C134.19 104.613 133.862 104.5 133.875 104.448C134.134 104.414 134.396 104.439 134.643 104.522C135.051 104.613 135.375 104.726 135.375 104.777Z" fill="#263238"/>
<path d="M135.562 100.491C135.258 100.552 134.946 100.552 134.642 100.491C134.332 100.495 134.023 100.438 133.735 100.323C134.039 100.258 134.353 100.253 134.658 100.307C134.969 100.307 135.276 100.37 135.562 100.491Z" fill="#263238"/>
<path d="M134.957 96.698C134.703 96.6829 134.456 96.6077 134.238 96.4785C133.862 96.3107 133.59 96.1364 133.59 96.0912C133.59 96.046 133.93 96.1428 134.306 96.3106C134.681 96.4785 134.976 96.6496 134.957 96.698Z" fill="#263238"/>
<path d="M135.329 93.4739C135.044 93.3926 134.786 93.2378 134.581 93.0252C134.212 92.7025 133.982 92.3797 134.017 92.3539C134.053 92.3281 134.341 92.5798 134.701 92.8864C135.06 93.1931 135.374 93.4319 135.329 93.4739Z" fill="#263238"/>
<path d="M136.45 91.0953C136.405 91.1179 136.22 90.8338 136.039 90.4497C135.857 90.0656 135.747 89.7558 135.792 89.7332C135.838 89.7106 136.022 89.9946 136.204 90.3787C136.385 90.7628 136.495 91.0727 136.45 91.0953Z" fill="#263238"/>
<path d="M139.646 90.256C139.685 90.2882 139.51 90.5787 139.299 90.9015C139.089 91.2243 138.924 91.5212 138.878 91.5018C138.833 91.4825 138.927 91.1565 139.144 90.8047C139.361 90.4528 139.607 90.2237 139.646 90.256Z" fill="#263238"/>
<path d="M141.139 94.4547C140.877 94.5981 140.582 94.6705 140.284 94.6645C139.99 94.7167 139.688 94.6934 139.406 94.5967C139.687 94.5135 139.978 94.4743 140.271 94.4805C140.557 94.4283 140.85 94.4196 141.139 94.4547Z" fill="#263238"/>
<path d="M141.094 97.4922C140.887 97.7057 140.638 97.8748 140.362 97.9893C140.115 98.153 139.836 98.263 139.543 98.312C139.752 98.1008 140.001 97.932 140.275 97.815C140.523 97.6533 140.802 97.5435 141.094 97.4922Z" fill="#263238"/>
<path d="M141.182 102.453C141.159 102.498 140.858 102.401 140.508 102.234C140.158 102.066 139.893 101.895 139.915 101.849C139.938 101.804 140.239 101.901 140.589 102.069C140.939 102.237 141.204 102.408 141.182 102.453Z" fill="#263238"/>
<path d="M140.903 105.18C140.926 105.226 140.68 105.39 140.359 105.545C140.039 105.7 139.754 105.787 139.731 105.742C139.708 105.697 139.954 105.532 140.278 105.377C140.602 105.222 140.881 105.145 140.903 105.18Z" fill="#263238"/>
<path d="M140.161 110.99C140.125 111.026 139.886 110.823 139.627 110.539C139.367 110.254 139.186 109.999 139.225 109.964C139.264 109.928 139.503 110.132 139.763 110.416C140.022 110.7 140.2 110.948 140.161 110.99Z" fill="#263238"/>
<path d="M138.289 116.032C138.169 115.741 138.083 115.436 138.033 115.125C137.926 114.829 137.854 114.521 137.819 114.208C138.025 114.459 138.16 114.76 138.211 115.08C138.32 115.385 138.347 115.713 138.289 116.032Z" fill="#263238"/>
<path d="M134.872 118.646C134.805 118.353 134.796 118.049 134.847 117.752C134.838 117.451 134.891 117.151 135.002 116.871C135.071 117.164 135.081 117.468 135.031 117.765C135.04 118.067 134.986 118.367 134.872 118.646Z" fill="#263238"/>
<path d="M134.671 112.766C134.642 112.808 134.318 112.643 133.943 112.398C133.567 112.152 133.295 111.92 133.314 111.878C133.581 111.947 133.83 112.072 134.043 112.246C134.419 112.491 134.701 112.724 134.671 112.766Z" fill="#263238"/>
<path d="M139.028 103.66C138.996 103.696 138.75 103.541 138.478 103.308C138.205 103.076 138.011 102.857 138.044 102.818C138.076 102.779 138.325 102.937 138.597 103.17C138.869 103.402 139.064 103.622 139.028 103.66Z" fill="#263238"/>
<path d="M136.605 97.4534C136.64 97.4889 136.414 97.7761 136.103 98.0763C135.792 98.3765 135.51 98.6024 135.471 98.5669C135.432 98.5314 135.662 98.2441 135.973 97.9472C136.284 97.6502 136.569 97.434 136.605 97.4534Z" fill="#263238"/>
<path d="M139.261 92.5928C139.287 92.638 139.07 92.8058 138.781 92.9737C138.493 93.1415 138.234 93.2383 138.208 93.1931C138.182 93.148 138.396 92.9801 138.688 92.8155C138.979 92.6509 139.235 92.5347 139.261 92.5928Z" fill="#263238"/>
<path d="M136.485 115.186C136.439 115.206 136.3 114.986 136.161 114.696C136.022 114.405 135.973 114.154 136.018 114.131C136.064 114.108 136.203 114.331 136.342 114.625C136.482 114.919 136.53 115.154 136.485 115.186Z" fill="#263238"/>
<path d="M125.351 82.3353C125.027 82.4111 124.692 82.4253 124.363 82.3773C124.034 82.3866 123.705 82.3385 123.392 82.2353C123.716 82.1596 124.053 82.1454 124.383 82.1933C124.711 82.1834 125.039 82.2314 125.351 82.3353Z" fill="#263238"/>
<path d="M125.04 76.6771C124.412 76.5506 123.814 76.3052 123.278 75.9541C123.599 75.9849 123.91 76.0781 124.195 76.2284C124.503 76.3224 124.79 76.4747 125.04 76.6771Z" fill="#263238"/>
<path d="M125.559 69.6538C125.214 69.6407 124.876 69.5504 124.571 69.3895C124.266 69.2285 124.002 69.0011 123.797 68.7242C123.836 68.6855 124.176 68.976 124.658 69.2277C125.141 69.4795 125.568 69.6021 125.559 69.6538Z" fill="#263238"/>
<path d="M126.86 66.371C126.452 65.88 126.144 65.3142 125.953 64.7056C126.36 65.1978 126.667 65.7632 126.86 66.371Z" fill="#263238"/>
<path d="M131.352 65.4124C131.215 65.7175 131.024 65.9953 130.788 66.2323C130.438 66.6551 130.121 66.9714 130.082 66.9391C130.22 66.6368 130.411 66.3613 130.646 66.1258C130.995 65.6933 131.313 65.3802 131.352 65.4124Z" fill="#263238"/>
<path d="M132.492 70.2603C132.521 70.3022 132.22 70.5669 131.819 70.8509C131.591 71.0486 131.325 71.1979 131.038 71.2899C131.009 71.2479 131.31 70.9833 131.712 70.6992C131.939 70.5016 132.205 70.3522 132.492 70.2603Z" fill="#263238"/>
<path d="M133.02 76.9866C132.794 77.1393 132.536 77.2396 132.266 77.2803C132.011 77.3775 131.738 77.4182 131.466 77.3998C131.466 77.3481 131.79 77.2158 132.217 77.1028C132.473 77.0038 132.747 76.964 133.02 76.9866Z" fill="#263238"/>
<path d="M132.705 82.6836C132.083 82.7719 131.45 82.739 130.84 82.5868C131.462 82.4938 132.096 82.5267 132.705 82.6836Z" fill="#263238"/>
<path d="M132.813 88.4482C132.554 88.6963 132.254 88.8983 131.926 89.0454C131.628 89.2431 131.3 89.3903 130.954 89.4811C131.511 89.0316 132.142 88.6821 132.82 88.4482H132.813Z" fill="#263238"/>
<path d="M124.83 91.2533C124.491 91.2735 124.151 91.2331 123.826 91.1339C123.487 91.0923 123.158 90.9918 122.854 90.8369C123.531 90.8561 124.198 90.9972 124.824 91.2533H124.83Z" fill="#263238"/>
<path d="M125.01 96.2754C124.544 96.8182 123.988 97.2768 123.365 97.631C123.576 97.3404 123.834 97.0873 124.13 96.8822C124.386 96.6315 124.684 96.4263 125.01 96.2754Z" fill="#263238"/>
<path d="M125.137 111.278C124.773 111.094 124.439 110.857 124.146 110.574C123.814 110.338 123.519 110.054 123.271 109.731C123.967 110.151 124.596 110.672 125.137 111.278Z" fill="#263238"/>
<path d="M124.937 115.509C124.969 115.548 124.694 115.832 124.321 116.155C123.949 116.477 123.622 116.69 123.59 116.652C123.557 116.613 123.832 116.329 124.205 116.006C124.577 115.683 124.904 115.467 124.937 115.509Z" fill="#263238"/>
<path d="M132.388 106.094C132.172 106.368 131.909 106.602 131.611 106.785C131.35 107.017 131.051 107.201 130.727 107.33C130.694 107.288 131.051 106.982 131.501 106.64C131.763 106.408 132.063 106.224 132.388 106.094Z" fill="#263238"/>
<path d="M132.502 98.8804C132.28 99.1494 131.982 99.3462 131.647 99.4452C131.334 99.5994 130.982 99.6546 130.637 99.6034C130.945 99.4779 131.261 99.3701 131.582 99.2806C131.881 99.1297 132.188 98.996 132.502 98.8804Z" fill="#263238"/>
<path d="M132.605 93.606C132.322 93.5915 132.046 93.5155 131.796 93.3833C131.522 93.306 131.268 93.1706 131.051 92.9863C131.335 93.0045 131.611 93.0814 131.864 93.2123C132.136 93.2903 132.389 93.4244 132.605 93.606Z" fill="#263238"/>
<path d="M133.01 120.351C132.726 120.582 132.407 120.766 132.065 120.896C131.746 121.078 131.399 121.205 131.038 121.274C131.321 121.041 131.64 120.856 131.984 120.728C132.302 120.544 132.649 120.417 133.01 120.351Z" fill="#263238"/>
<path d="M124.939 86.8955C124.575 86.6892 124.241 86.4328 123.948 86.1338C123.616 85.8797 123.322 85.5785 123.077 85.2397C123.778 85.6953 124.406 86.2535 124.939 86.8955Z" fill="#263238"/>
<path d="M133.228 84.2007C132.711 84.6787 132.115 85.0632 131.466 85.3368C131.981 84.8569 132.577 84.4722 133.228 84.2007Z" fill="#263238"/>
<path d="M124.729 72.9585C124.486 73.0159 124.234 73.0159 123.991 72.9585C123.741 72.951 123.497 72.8846 123.278 72.7649C123.278 72.7132 123.602 72.7197 124.017 72.7649C124.431 72.8101 124.736 72.9037 124.729 72.9585Z" fill="#263238"/>
<path d="M132.605 73.3717C132.402 73.5363 132.164 73.6532 131.909 73.7138C131.674 73.8289 131.416 73.8885 131.154 73.8881C131.135 73.8397 131.446 73.6848 131.847 73.5427C132.083 73.4276 132.343 73.369 132.605 73.3717Z" fill="#263238"/>
<path d="M128.467 85.6663C128.334 85.9744 128.148 86.2564 127.916 86.499C127.573 86.9251 127.268 87.2446 127.22 87.2123C127.353 86.9049 127.54 86.6239 127.774 86.3828C128.117 85.9568 128.428 85.634 128.467 85.6663Z" fill="#263238"/>
<path d="M128.46 80.2885C128.434 80.3305 128.094 80.1271 127.812 79.7366C127.622 79.5166 127.518 79.236 127.518 78.9458C127.569 78.9458 127.709 79.2686 127.965 79.6333C128.22 79.998 128.492 80.2466 128.46 80.2885Z" fill="#263238"/>
<path d="M128.357 72.6489C128.195 72.8977 128.017 73.135 127.822 73.359C127.672 73.6152 127.504 73.8611 127.32 74.0949C127.344 73.7834 127.467 73.4879 127.673 73.2524C127.971 72.8328 128.328 72.6101 128.357 72.6489Z" fill="#263238"/>
<path d="M127.734 93.4061C127.732 93.1444 127.791 92.8859 127.906 92.6508C128.049 92.2538 128.204 91.9439 128.253 91.9601C128.255 92.2217 128.196 92.4803 128.081 92.7154C127.926 93.1124 127.783 93.4222 127.734 93.4061Z" fill="#263238"/>
<path d="M126.569 104.467C126.076 103.735 125.689 102.938 125.419 102.098C125.687 102.449 125.905 102.834 126.067 103.244C126.292 103.626 126.461 104.038 126.569 104.467Z" fill="#263238"/>
<path d="M128.645 106.201C128.502 106.667 128.302 107.113 128.049 107.531C127.85 107.976 127.594 108.395 127.288 108.776C127.632 107.863 128.088 106.996 128.645 106.194V106.201Z" fill="#263238"/>
<path d="M128.544 117.994C128.053 117.301 127.666 116.539 127.395 115.735C127.662 116.065 127.881 116.433 128.042 116.826C128.264 117.19 128.434 117.583 128.544 117.994Z" fill="#263238"/>
<path d="M127.838 121.6C127.746 121.901 127.596 122.181 127.398 122.426C127.109 122.852 126.844 123.178 126.802 123.149C126.894 122.848 127.044 122.568 127.242 122.323C127.53 121.897 127.796 121.571 127.838 121.6Z" fill="#263238"/>
<g opacity="0.3">
<path d="M129.486 66.9033C129.742 66.9033 129.946 80.2724 129.946 96.7626C129.946 113.253 129.742 126.625 129.486 126.625C129.23 126.625 129.026 113.25 129.026 96.7626C129.026 80.2756 129.221 66.9033 129.486 66.9033Z" fill="black"/>
</g>
<g opacity="0.3">
<path d="M137.8 91.0078C137.926 91.0078 138.075 92.5313 138.149 95.0037C138.224 97.4761 138.211 100.885 138.279 104.645C138.332 106.449 138.177 108.253 137.816 110.022C137.639 110.801 137.377 111.559 137.035 112.281C136.738 112.903 136.403 113.505 136.031 114.086C135.714 114.59 135.297 115.024 134.804 115.361C134.432 115.601 134.025 115.779 133.596 115.89C132.903 116.071 132.514 116.071 132.501 116.019C132.488 115.967 132.854 115.825 133.473 115.554C133.842 115.398 134.189 115.193 134.503 114.944C134.901 114.61 135.23 114.202 135.474 113.744C135.793 113.166 136.08 112.573 136.336 111.965C136.624 111.278 136.841 110.563 136.984 109.832C137.283 108.119 137.408 106.38 137.356 104.642C137.288 100.872 137.408 97.4535 137.495 94.9908C137.583 92.528 137.67 91.011 137.8 91.0078Z" fill="black"/>
</g>
<path d="M141.175 125.592H116.552V129.943H141.175V125.592Z" fill="#C53F3F"/>
<path d="M118.391 129.082L121.383 142.076H136.061L139.335 129.082H118.391Z" fill="#C53F3F"/>
<path d="M141.162 129.95C141.162 129.995 135.608 130.034 128.758 130.034C121.909 130.034 116.354 129.995 116.354 129.95C116.354 129.905 121.905 129.863 128.758 129.863C135.611 129.863 141.162 129.902 141.162 129.95Z" fill="#263238"/>
<path d="M143.811 142.037C143.811 142.085 111.613 142.124 71.9136 142.124C32.2146 142.124 0 142.085 0 142.037C0 141.989 32.1919 141.953 71.9168 141.953C111.642 141.953 143.811 141.992 143.811 142.037Z" fill="#263238"/>
</svg>
